<svg width="156.000000" height="57.000000" viewBox="0 0 156 57" fill="none" xmlns="http://www.w3.org/2000/svg" xmlns:xlink="http://www.w3.org/1999/xlink">
	<desc>
			Created with Pixso.
	</desc>
	<defs>
		<clipPath id="clip8_5546">
			<rect id="reward 2" rx="0.000000" width="155.000000" height="56.000000" transform="translate(0.500000 0.500000)" fill="white" fill-opacity="0"/>
		</clipPath>
	</defs>
	<rect id="reward 2" rx="0.000000" width="155.000000" height="56.000000" transform="translate(0.500000 0.500000)" fill="#FFFFFF" fill-opacity="0"/>
	<g clip-path="url(#clip8_5546)">
		<path id="Vector" d="M0 42.57L4.12 42.57L4.12 21.31L15.83 21.31L15.83 42.57L19.95 42.57L19.95 17.36L0 17.36L0 42.57ZM23.68 50.98L27.84 50.98L27.84 41.61C28.48 42.08 29.2 42.45 29.96 42.69C30.76 42.96 31.63 43.1 32.59 43.1C34.3 43.1 35.78 42.66 37.04 41.78C38.3 40.91 39.28 39.72 39.98 38.21C40.67 36.71 41.02 35.01 41.02 33.12C41.02 31.2 40.67 29.49 39.96 27.99C39.27 26.48 38.27 25.29 36.99 24.43C35.7 23.57 34.18 23.13 32.44 23.13C31.39 23.13 30.44 23.3 29.58 23.62C28.75 23.94 27.98 24.41 27.32 25.02L27.32 23.66L23.68 23.66L23.68 50.98ZM31.96 39.31C30.31 39.31 29.12 38.74 28.4 37.6C27.68 36.44 27.32 34.95 27.32 33.12C27.32 31.27 27.68 29.78 28.38 28.63C29.1 27.49 30.25 26.92 31.82 26.92C32.93 26.92 33.83 27.2 34.54 27.76C35.26 28.3 35.79 29.05 36.13 30C36.48 30.93 36.66 31.97 36.66 33.12C36.66 34.27 36.49 35.32 36.15 36.25C35.82 37.18 35.3 37.93 34.61 38.49C33.91 39.04 33.03 39.31 31.96 39.31ZM52.16 43.1C53.94 43.1 55.56 42.63 57.03 41.7C58.52 40.75 59.61 39.42 60.32 37.7L56.25 36.44C55.43 38.24 53.98 39.14 51.92 39.14C50.52 39.14 49.41 38.73 48.6 37.9C47.79 37.06 47.31 35.85 47.15 34.29L60.52 34.29C60.68 32.01 60.44 30.04 59.79 28.37C59.14 26.7 58.14 25.41 56.79 24.5C55.46 23.59 53.84 23.13 51.92 23.13C50.11 23.13 48.51 23.55 47.13 24.39C45.75 25.22 44.68 26.4 43.9 27.93C43.13 29.46 42.74 31.26 42.74 33.33C42.74 35.24 43.13 36.93 43.92 38.4C44.68 39.84 45.83 41.04 47.24 41.85C48.65 42.68 50.29 43.1 52.16 43.1ZM52.09 26.83C53.37 26.83 54.35 27.17 55.03 27.86C55.73 28.54 56.17 29.62 56.35 31.1L47.25 31.1C47.74 28.25 49.36 26.83 52.09 26.83L52.09 26.83ZM62.78 42.57L66.73 42.57L66.73 32.15L71.97 42.57L73.6 42.57L78.85 32.15L78.85 42.57L82.78 42.57L82.78 23.66L79.41 23.66L72.78 36.72L66.16 23.66L62.78 23.66L62.78 42.57ZM102.54 23.66L99.27 23.66L90.45 35.69L90.45 23.66L86.5 23.66L86.5 42.57L89.8 42.57L98.59 30.23L98.59 42.57L102.54 42.57L102.54 23.66ZM105.29 42.57L109.61 42.57L113.43 36.27L117.36 36.27L117.36 42.57L121.48 42.57L121.48 23.66L113.99 23.66C113.57 23.66 113.04 23.67 112.42 23.69C111.8 23.71 111.18 23.78 110.57 23.9C109.14 24.2 107.99 24.86 107.1 25.9C106.21 26.94 105.76 28.31 105.76 30.02C105.76 31.5 106.11 32.72 106.79 33.68C107.46 34.61 108.4 35.32 109.48 35.71L105.29 42.57ZM113.63 32.96C113.41 32.96 113.16 32.95 112.88 32.94C112.59 32.92 112.31 32.86 112.04 32.78C111.48 32.62 110.99 32.3 110.57 31.82C110.16 31.33 109.95 30.72 109.95 29.98C109.95 29.26 110.16 28.64 110.57 28.14C110.98 27.64 111.43 27.31 111.92 27.16C112.22 27.08 112.52 27.03 112.83 27C113.15 26.98 113.41 26.97 113.63 26.97L117.36 26.97L117.36 32.96L113.63 32.96Z" fill="#4E4E4E" fill-opacity="1.000000" fill-rule="nonzero"/>
		<path id="Vector" d="M141.45 37.95C141.5 37.92 141.56 37.91 141.62 37.91C141.68 37.91 141.74 37.92 141.79 37.95L150.13 43.01C150.37 43.16 150.67 42.96 150.62 42.68L149.03 33.21C149.02 33.16 149.02 33.11 149.04 33.06C149.06 33.01 149.08 32.96 149.12 32.93L155.9 26.4C155.94 26.36 155.97 26.3 155.99 26.24C156 26.18 156 26.12 155.98 26.06C155.96 26 155.92 25.95 155.88 25.91C155.83 25.87 155.77 25.85 155.71 25.84L146.4 24.61C146.35 24.6 146.3 24.58 146.26 24.55C146.21 24.52 146.18 24.48 146.15 24.43L141.91 15.79C141.88 15.73 141.84 15.69 141.79 15.65C141.74 15.62 141.68 15.6 141.62 15.6C141.56 15.6 141.5 15.62 141.44 15.65C141.39 15.69 141.35 15.73 141.32 15.79L137.08 24.43C137.06 24.48 137.02 24.52 136.98 24.55C136.93 24.58 136.88 24.6 136.83 24.61L127.52 25.84C127.46 25.85 127.4 25.87 127.36 25.91C127.31 25.95 127.27 26 127.25 26.06C127.24 26.12 127.23 26.18 127.25 26.24C127.26 26.3 127.29 26.36 127.34 26.4L134.11 32.93C134.19 33 134.22 33.11 134.21 33.21L132.61 42.68C132.57 42.96 132.87 43.16 133.11 43.01L141.45 37.95Z" fill="#E4B674" fill-opacity="1.000000" fill-rule="nonzero"/>
		<path id="Vector" d="M33.74 16.27L35.4 16.27L35.4 8.05L40.1 8.05L40.1 16.27L41.76 16.27L41.76 6.52L33.74 6.52L33.74 16.27ZM43.26 19.52L44.93 19.52L44.93 15.9C45.18 16.08 45.46 16.22 45.78 16.32C46.1 16.43 46.45 16.48 46.84 16.48C47.52 16.48 48.12 16.31 48.62 15.97C49.13 15.63 49.54 15.15 49.8 14.59C50.08 14.01 50.22 13.35 50.22 12.62C50.22 11.88 50.08 11.22 49.8 10.63C49.53 10.07 49.12 9.59 48.6 9.26C48.08 8.92 47.47 8.76 46.77 8.76C46.38 8.75 45.99 8.82 45.62 8.95C45.29 9.07 44.98 9.25 44.72 9.49L44.72 8.96L43.26 8.96L43.26 19.52ZM46.58 15.01C45.92 15.01 45.44 14.79 45.15 14.35C44.86 13.9 44.72 13.33 44.72 12.62C44.72 11.9 44.86 11.33 45.14 10.88C45.43 10.44 45.89 10.22 46.53 10.22C46.97 10.22 47.33 10.33 47.62 10.54C47.91 10.76 48.12 11.05 48.26 11.41C48.4 11.77 48.47 12.18 48.47 12.62C48.47 13.06 48.4 13.47 48.26 13.83C48.13 14.19 47.92 14.48 47.65 14.7C47.37 14.91 47.01 15.01 46.58 15.01ZM54.6 16.48C55.34 16.48 55.99 16.31 56.54 15.99C57.1 15.66 57.53 15.21 57.84 14.63C58.15 14.05 58.3 13.38 58.3 12.62C58.3 11.86 58.15 11.2 57.84 10.62C57.55 10.05 57.1 9.58 56.55 9.25C56 8.92 55.35 8.76 54.6 8.76C53.87 8.76 53.23 8.92 52.68 9.24C52.13 9.57 51.68 10.03 51.38 10.6C51.07 11.18 50.91 11.85 50.91 12.62C50.91 13.37 51.06 14.04 51.36 14.62C51.66 15.19 52.11 15.66 52.66 15.98C53.21 16.31 53.86 16.48 54.6 16.48ZM54.6 14.95C53.96 14.95 53.48 14.74 53.15 14.32C52.83 13.89 52.66 13.33 52.66 12.62C52.66 11.93 52.82 11.37 53.13 10.94C53.45 10.5 53.94 10.29 54.6 10.29C55.25 10.29 55.74 10.5 56.06 10.92C56.39 11.34 56.55 11.91 56.55 12.62C56.55 13.3 56.39 13.86 56.06 14.3C55.74 14.73 55.25 14.95 54.6 14.95L54.6 14.95ZM58.7 17.9L60.36 17.9L60.36 16.27L66.4 16.27L66.4 17.9L68.05 17.9L68.05 14.74L67.31 14.74L67.31 6.52L60.86 6.51C60.79 7.52 60.73 8.42 60.69 9.23C60.64 10.05 60.58 10.86 60.5 11.68C60.46 12.2 60.37 12.72 60.25 13.23C60.13 13.69 59.94 14.05 59.7 14.33C59.46 14.61 59.13 14.74 58.7 14.74L58.7 17.9ZM61.28 14.74C61.47 14.51 61.62 14.28 61.72 14.04C61.82 13.8 61.89 13.52 61.94 13.19C62 12.87 62.05 12.46 62.09 11.98C62.14 11.48 62.18 11.03 62.21 10.61C62.24 10.19 62.26 9.77 62.29 9.36C62.31 8.95 62.34 8.51 62.37 8.04L65.65 8.05L65.65 14.74L61.28 14.74ZM72.42 16.48C73.17 16.48 73.81 16.31 74.37 15.99C74.92 15.66 75.35 15.21 75.66 14.63C75.97 14.05 76.13 13.38 76.13 12.62C76.13 11.86 75.97 11.2 75.67 10.62C75.37 10.05 74.92 9.58 74.37 9.25C73.82 8.92 73.17 8.76 72.42 8.76C71.7 8.76 71.05 8.92 70.5 9.24C69.95 9.57 69.5 10.03 69.2 10.6C68.89 11.18 68.73 11.85 68.73 12.62C68.73 13.37 68.89 14.04 69.19 14.62C69.48 15.19 69.93 15.66 70.48 15.98C71.03 16.31 71.68 16.48 72.42 16.48ZM72.42 14.95C71.79 14.95 71.3 14.74 70.98 14.32C70.65 13.89 70.49 13.33 70.49 12.62C70.49 11.93 70.64 11.37 70.95 10.94C71.27 10.5 71.76 10.29 72.42 10.29C73.07 10.29 73.56 10.5 73.89 10.92C74.21 11.34 74.37 11.91 74.37 12.62C74.37 13.3 74.21 13.86 73.89 14.3C73.57 14.73 73.08 14.95 72.42 14.95L72.42 14.95ZM77.21 16.27L78.9 16.27L78.9 12.75L81.74 16.27L83.93 16.27L80.81 12.62L83.68 8.96L81.62 8.96L78.9 12.48L78.9 8.96L77.23 8.96L77.21 16.27Z" fill="#4E4E4E" fill-opacity="1.000000" fill-rule="nonzero"/>
		<path id="Vector" d="M86.07 16.27L87.72 16.27L87.72 10.41L90.2 10.41L90.2 8.96L83.59 8.96L83.59 10.41L86.07 10.41L86.07 16.27ZM94.24 16.48C94.98 16.48 95.63 16.32 96.18 15.99C96.73 15.67 97.18 15.19 97.47 14.63C97.78 14.05 97.94 13.38 97.94 12.62C97.94 11.86 97.78 11.2 97.48 10.62C97.18 10.05 96.74 9.58 96.19 9.25C95.63 8.92 94.98 8.76 94.24 8.76C93.51 8.76 92.87 8.92 92.31 9.24C91.76 9.57 91.31 10.04 91.01 10.6C90.7 11.18 90.55 11.85 90.55 12.62C90.55 13.37 90.7 14.04 91 14.62C91.3 15.19 91.74 15.66 92.29 15.98C92.85 16.31 93.49 16.48 94.24 16.48ZM94.24 14.95C93.6 14.95 93.12 14.74 92.79 14.32C92.46 13.89 92.3 13.33 92.3 12.62C92.3 11.93 92.46 11.37 92.77 10.94C93.08 10.5 93.57 10.29 94.24 10.29C94.89 10.29 95.37 10.5 95.7 10.92C96.02 11.34 96.19 11.91 96.19 12.62C96.19 13.3 96.02 13.86 95.7 14.3C95.38 14.73 94.89 14.95 94.24 14.95L94.24 14.95ZM99.03 19.52L100.7 19.52L100.7 15.9C100.95 16.08 101.23 16.22 101.55 16.32C101.87 16.43 102.22 16.48 102.61 16.48C103.29 16.48 103.89 16.31 104.39 15.97C104.9 15.63 105.29 15.17 105.57 14.59C105.85 14.01 105.99 13.35 105.99 12.62C105.99 11.88 105.85 11.22 105.57 10.63C105.3 10.07 104.89 9.59 104.37 9.26C103.85 8.93 103.24 8.76 102.54 8.76C102.15 8.75 101.76 8.82 101.4 8.95C101.06 9.07 100.75 9.25 100.49 9.49L100.49 8.96L99.03 8.96L99.03 19.52ZM102.35 15.01C101.69 15.01 101.21 14.79 100.92 14.35C100.63 13.9 100.49 13.33 100.49 12.62C100.49 11.9 100.63 11.33 100.92 10.88C101.2 10.44 101.66 10.22 102.3 10.22C102.74 10.22 103.1 10.33 103.39 10.54C103.68 10.76 103.89 11.05 104.03 11.41C104.17 11.77 104.24 12.18 104.24 12.62C104.24 13.06 104.17 13.47 104.03 13.83C103.9 14.19 103.7 14.48 103.42 14.7C103.14 14.91 102.78 15.01 102.35 15.01ZM110.37 16.48C111.11 16.48 111.76 16.32 112.31 15.99C112.87 15.66 113.3 15.21 113.6 14.63C113.92 14.05 114.07 13.38 114.07 12.62C114.07 11.86 113.92 11.2 113.61 10.62C113.32 10.05 112.87 9.58 112.32 9.25C111.77 8.92 111.12 8.76 110.37 8.76C109.64 8.76 109 8.92 108.45 9.24C107.9 9.57 107.45 10.04 107.15 10.6C106.84 11.18 106.68 11.85 106.68 12.62C106.68 13.37 106.83 14.04 107.13 14.62C107.43 15.19 107.88 15.66 108.43 15.98C108.98 16.31 109.63 16.48 110.37 16.48ZM110.37 14.95C109.73 14.95 109.25 14.74 108.92 14.32C108.59 13.89 108.43 13.33 108.43 12.62C108.43 11.93 108.59 11.37 108.9 10.94C109.22 10.5 109.71 10.29 110.37 10.29C111.02 10.29 111.51 10.5 111.83 10.92C112.16 11.34 112.32 11.91 112.32 12.62C112.32 13.3 112.16 13.86 111.83 14.3C111.51 14.73 111.02 14.95 110.37 14.95L110.37 14.95ZM115.16 16.27L118.81 16.27C119.04 16.27 119.26 16.26 119.48 16.25C119.7 16.22 119.89 16.19 120.06 16.15C120.53 16.01 120.88 15.78 121.12 15.45C121.36 15.11 121.48 14.69 121.48 14.2C121.48 13.77 121.39 13.43 121.22 13.19C121.06 12.96 120.84 12.77 120.59 12.65C120.42 12.58 120.25 12.52 120.08 12.49C120.24 12.45 120.4 12.36 120.57 12.22C120.73 12.09 120.86 11.93 120.96 11.72C121.06 11.52 121.12 11.26 121.12 10.95C121.12 10.42 120.98 10.01 120.7 9.71C120.45 9.42 120.12 9.21 119.75 9.1C119.58 9.06 119.39 9.02 119.21 9C118.99 8.97 118.76 8.96 118.53 8.96L115.16 8.96L115.16 16.27ZM116.84 11.98L116.84 10.24L118.18 10.24C118.22 10.24 118.32 10.24 118.48 10.25C118.65 10.26 118.79 10.28 118.9 10.32C118.98 10.34 119.06 10.38 119.12 10.43C119.19 10.48 119.24 10.55 119.28 10.62C119.36 10.76 119.4 10.93 119.4 11.11C119.41 11.27 119.37 11.43 119.3 11.57C119.22 11.71 119.11 11.81 118.97 11.87C118.85 11.92 118.74 11.95 118.62 11.96C118.48 11.97 118.35 11.98 118.21 11.98L116.84 11.98L116.84 11.98ZM116.84 15.01L116.84 13.26L118.66 13.26C118.72 13.26 118.81 13.27 118.92 13.28C119.03 13.28 119.13 13.3 119.22 13.34C119.38 13.38 119.51 13.47 119.62 13.6C119.73 13.73 119.79 13.91 119.79 14.14C119.79 14.3 119.75 14.46 119.67 14.6C119.64 14.68 119.59 14.74 119.53 14.8C119.46 14.85 119.39 14.89 119.32 14.91C119.11 14.98 118.9 15.01 118.69 15.02L116.84 15.02L116.84 15.01Z" fill="#4E4E4E" fill-opacity="1.000000" fill-rule="nonzero"/>
	</g>
</svg>
