<svg width="179.000000" height="65.000000" viewBox="0 0 179 65" fill="none" xmlns="http://www.w3.org/2000/svg" xmlns:xlink="http://www.w3.org/1999/xlink">
	<desc>
			Created with Pixso.
	</desc>
	<defs>
		<clipPath id="clip8_5552">
			<rect id="reward2 1" rx="0.000000" width="178.000000" height="64.000000" transform="translate(0.500000 0.500000)" fill="white" fill-opacity="0"/>
		</clipPath>
	</defs>
	<rect id="reward2 1" rx="0.000000" width="178.000000" height="64.000000" transform="translate(0.500000 0.500000)" fill="#FFFFFF" fill-opacity="0"/>
	<g clip-path="url(#clip8_5552)">
		<path id="Vector" d="M62.14 40.45L170.47 40.45C174.61 40.45 177.98 43.79 177.98 47.91L177.98 54.94L69.62 54.94C65.49 54.94 62.14 51.62 62.14 47.52L62.14 40.45ZM29.27 42.49C29.08 42.49 28.9 42.43 28.75 42.33C28.6 42.22 28.48 42.06 28.42 41.89L23.69 28.25L20.09 38.67C20.02 38.84 19.91 39 19.76 39.11C19.6 39.21 19.42 39.27 19.23 39.27C19.05 39.27 18.86 39.21 18.71 39.11C18.56 39 18.44 38.84 18.38 38.67L17.47 36.05L17 36.05C16.81 36.05 16.63 35.99 16.48 35.89C16.33 35.78 16.21 35.62 16.15 35.45L15.86 34.6L15.57 35.37C15.5 35.55 15.39 35.7 15.24 35.8C15.09 35.91 14.91 35.96 14.72 35.96L9.28 35.96C9.16 35.96 9.04 35.94 8.93 35.89C8.82 35.85 8.73 35.78 8.64 35.7C8.56 35.62 8.49 35.52 8.45 35.41C8.4 35.3 8.38 35.18 8.38 35.06C8.38 34.57 8.78 34.17 9.28 34.17L14.1 34.17L15.04 31.63C15.11 31.46 15.22 31.31 15.37 31.2C15.52 31.1 15.7 31.04 15.89 31.04L15.9 31.04C16.28 31.05 16.61 31.29 16.74 31.65L17.64 34.26L18.12 34.26C18.3 34.26 18.49 34.32 18.64 34.43C18.79 34.54 18.91 34.69 18.97 34.87L19.23 35.63L22.84 25.21C22.9 25.03 23.02 24.88 23.17 24.77C23.32 24.66 23.51 24.6 23.69 24.6C24.08 24.6 24.42 24.85 24.55 25.21L29.27 38.85L31.77 31.65C31.83 31.47 31.94 31.32 32.1 31.21C32.25 31.1 32.43 31.04 32.62 31.04C33 31.04 33.34 31.29 33.47 31.65L34.85 35.63L35.11 34.87C35.17 34.69 35.29 34.54 35.44 34.43C35.59 34.32 35.78 34.26 35.96 34.26L41.71 34.26C42.21 34.26 42.61 34.66 42.61 35.16C42.61 35.27 42.59 35.39 42.54 35.5C42.5 35.61 42.43 35.71 42.35 35.79C42.27 35.87 42.17 35.94 42.06 35.98C41.95 36.03 41.83 36.05 41.71 36.05L36.61 36.05L35.7 38.67C35.64 38.84 35.52 39 35.37 39.11C35.22 39.21 35.04 39.27 34.85 39.27C34.66 39.27 34.48 39.21 34.33 39.11C34.17 39 34.06 38.84 34 38.67L32.62 34.69L30.12 41.89C30.06 42.07 29.95 42.22 29.79 42.33C29.64 42.43 29.46 42.49 29.27 42.49Z" fill="#25B1D9" fill-opacity="1.000000" fill-rule="nonzero"/>
		<path id="Vector" d="M48.32 19.49C45.96 15.67 42.63 12.69 38.37 10.58C34.08 8.47 29.16 7.42 23.6 7.42L0.25 7.42L0.29 58.35L23.6 58.35C29.16 58.35 34.08 57.29 38.37 55.18C42.63 53.07 45.96 50.11 48.32 46.27C50.7 42.44 51.88 37.97 51.88 32.88C51.88 27.79 50.7 23.34 48.32 19.49ZM35.29 44.41C32.23 47.26 28.13 48.67 23 48.67L16.33 48.67L12.15 53.8L12.17 31.71L12.17 17.1L23 17.1C28.13 17.1 32.23 18.52 35.29 21.35C38.33 24.2 39.86 28.04 39.86 32.88C39.86 37.74 38.33 41.58 35.29 44.41Z" fill="#25B1D9" fill-opacity="1.000000" fill-rule="nonzero"/>
		<path id="Vector" d="M76.63 44.58L76.63 49.99L75.11 49.99L75.11 48.15C74.74 48.28 74.35 48.35 73.95 48.36C73.19 48.36 72.6 48.18 72.2 47.82C71.8 47.45 71.6 46.93 71.6 46.24L71.6 44.58L73.12 44.58L73.12 46.07C73.12 46.77 73.46 47.12 74.15 47.12C74.52 47.12 74.84 47.05 75.11 46.93L75.11 44.58L76.63 44.58ZM81.72 48.94L79.41 48.94L78.98 49.99L77.41 49.99L79.82 44.58L81.33 44.58L83.75 49.99L82.14 49.99L81.72 48.94ZM81.26 47.81L80.56 46.08L79.86 47.81L81.26 47.81ZM85.57 49.74C85.12 49.51 84.75 49.16 84.49 48.72C84.23 48.29 84.1 47.79 84.11 47.29C84.1 46.78 84.23 46.28 84.49 45.85C84.75 45.41 85.12 45.06 85.57 44.83C86.04 44.59 86.57 44.46 87.11 44.47C87.61 44.47 88.06 44.56 88.46 44.73C88.86 44.91 89.19 45.16 89.45 45.49L88.47 46.37C88.12 45.95 87.69 45.74 87.18 45.74C86.89 45.74 86.63 45.8 86.39 45.93C86.17 46.06 85.98 46.25 85.86 46.48C85.73 46.71 85.67 46.98 85.67 47.29C85.67 47.59 85.73 47.86 85.86 48.09C85.98 48.33 86.16 48.51 86.39 48.64C86.63 48.77 86.89 48.83 87.18 48.83C87.69 48.83 88.12 48.62 88.47 48.2L89.45 49.08C89.19 49.41 88.86 49.66 88.46 49.84C88.06 50.01 87.6 50.1 87.11 50.1C86.54 50.1 86.02 49.98 85.57 49.74ZM94.65 45.79L92.98 45.79L92.98 49.99L91.46 49.99L91.46 45.79L89.79 45.79L89.79 44.58L94.65 44.58L94.65 45.79ZM100.7 44.58L100.7 49.99L99.16 49.99L99.16 47.88L97.05 47.88L97.05 49.99L95.51 49.99L95.51 44.58L97.05 44.58L97.05 46.61L99.16 46.61L99.16 44.58L100.7 44.58ZM105.79 48.94L103.48 48.94L103.05 49.99L101.48 49.99L103.89 44.58L105.41 44.58L107.82 49.99L106.21 49.99L105.79 48.94ZM105.34 47.81L104.64 46.08L103.93 47.81L105.34 47.81ZM112.87 44.58L112.87 49.99L111.35 49.99L111.35 48.63L110.51 48.63L109.61 49.99L107.99 49.99L109.1 48.41C108.76 48.27 108.47 48.02 108.27 47.71C108.07 47.39 107.97 47.02 107.98 46.64C107.98 46.21 108.08 45.85 108.27 45.54C108.48 45.22 108.78 44.97 109.12 44.83C109.49 44.66 109.92 44.58 110.41 44.58L112.87 44.58L112.87 44.58ZM109.53 46.61C109.53 46.89 109.61 47.09 109.76 47.23C109.92 47.38 110.14 47.45 110.43 47.45L111.35 47.45L111.35 45.79L110.45 45.79C109.84 45.79 109.53 46.06 109.53 46.61ZM121.53 49.99L121.52 47.13L120.12 49.46L119.44 49.46L118.03 47.18L118.03 49.99L116.62 49.99L116.62 44.58L117.89 44.58L119.8 47.7L121.67 44.58L122.94 44.58L122.96 49.99L121.53 49.99ZM128.65 48.81L128.65 49.99L124.27 49.99L124.27 44.58L128.55 44.58L128.55 45.76L125.8 45.76L125.8 46.68L128.22 46.68L128.22 47.82L125.8 47.82L125.8 48.81L128.65 48.81ZM135.55 48.78L135.55 51.08L134.14 51.08L134.14 49.99L130.64 49.99L130.64 51.08L129.23 51.08L129.23 48.78L129.42 48.78C129.74 48.77 129.97 48.55 130.1 48.12C130.24 47.69 130.32 47.06 130.35 46.25L130.41 44.58L134.81 44.58L134.81 48.78L135.55 48.78ZM131.56 47.85C131.48 48.25 131.37 48.56 131.22 48.78L133.29 48.78L133.29 45.79L131.72 45.79L131.7 46.38C131.68 46.87 131.64 47.36 131.56 47.85ZM136.44 44.58L137.96 44.58L137.96 47.76L140.21 44.58L141.66 44.58L141.66 49.99L140.14 49.99L140.14 46.82L137.9 49.99L136.44 49.99L136.44 44.58ZM148.87 48.78L148.87 51.1L147.46 51.1L147.46 49.99L142.98 49.99L142.98 44.58L144.5 44.58L144.5 48.78L146.6 48.78L146.6 44.58L148.12 44.58L148.12 48.78L148.87 48.78ZM149.75 44.58L151.27 44.58L151.27 47.76L153.52 44.58L154.97 44.58L154.97 49.99L153.45 49.99L153.45 46.82L151.21 49.99L149.75 49.99L149.75 44.58ZM161.49 44.58L161.49 49.99L159.94 49.99L159.94 47.88L157.84 47.88L157.84 49.99L156.3 49.99L156.3 44.58L157.84 44.58L157.84 46.61L159.94 46.61L159.94 44.58L161.49 44.58ZM166.57 48.94L164.27 48.94L163.84 49.99L162.26 49.99L164.67 44.58L166.19 44.58L168.6 49.99L167 49.99L166.57 48.94ZM166.12 47.81L165.42 46.08L164.72 47.81L166.12 47.81Z" fill="#FFFFFF" fill-opacity="1.000000" fill-rule="nonzero"/>
		<path id="Vector" d="M65.14 12.24L63.23 12.24L63.24 15.46L62.71 15.46L62.71 11.78L65.14 11.78L65.14 12.24ZM66.68 15.26C66.39 15.1 66.14 14.87 65.97 14.58C65.8 14.29 65.72 13.96 65.72 13.62C65.72 13.29 65.8 12.96 65.97 12.67C66.14 12.38 66.39 12.15 66.68 11.99C66.98 11.82 67.32 11.74 67.69 11.74C68.07 11.74 68.4 11.82 68.7 11.99C69 12.15 69.24 12.38 69.41 12.67C69.58 12.96 69.67 13.29 69.66 13.62C69.67 13.96 69.58 14.29 69.41 14.58C69.24 14.87 69 15.1 68.7 15.26C68.39 15.43 68.05 15.51 67.69 15.51C67.32 15.51 66.98 15.42 66.68 15.26ZM68.43 14.85C68.64 14.73 68.82 14.56 68.94 14.35C69.07 14.13 69.13 13.89 69.13 13.62C69.13 13.36 69.07 13.12 68.94 12.9C68.82 12.69 68.64 12.51 68.43 12.4C68.2 12.27 67.95 12.21 67.69 12.21C67.42 12.21 67.18 12.27 66.96 12.4C66.74 12.52 66.56 12.69 66.44 12.9C66.31 13.12 66.25 13.36 66.25 13.62C66.25 13.89 66.31 14.13 66.44 14.35C66.56 14.56 66.74 14.73 66.96 14.85C67.18 14.98 67.42 15.04 67.69 15.04C67.97 15.04 68.21 14.98 68.43 14.85ZM73.81 12.13C74.09 12.36 74.23 12.67 74.23 13.07C74.23 13.47 74.09 13.78 73.81 14.01C73.54 14.24 73.16 14.35 72.68 14.35L71.76 14.35L71.76 15.46L71.24 15.46L71.24 11.78L72.68 11.78C73.16 11.78 73.54 11.9 73.81 12.13L73.81 12.13ZM73.43 13.68C73.61 13.54 73.7 13.33 73.7 13.07C73.7 12.8 73.61 12.6 73.43 12.46C73.25 12.31 73 12.24 72.66 12.24L71.76 12.24L71.76 13.89L72.66 13.89C73 13.89 73.25 13.82 73.43 13.68ZM76.39 15.26C76.09 15.1 75.85 14.87 75.68 14.58C75.51 14.29 75.42 13.96 75.43 13.62C75.42 13.29 75.51 12.96 75.68 12.67C75.85 12.38 76.1 12.15 76.39 11.99C76.7 11.82 77.05 11.74 77.4 11.74C77.77 11.74 78.11 11.82 78.41 11.99C78.7 12.15 78.95 12.38 79.12 12.67C79.28 12.96 79.37 13.29 79.36 13.62C79.37 13.96 79.28 14.29 79.12 14.58C78.95 14.87 78.7 15.1 78.41 15.26C78.1 15.43 77.75 15.51 77.4 15.51C77.03 15.51 76.69 15.42 76.39 15.26ZM78.13 14.85C78.35 14.73 78.52 14.56 78.65 14.35C78.77 14.13 78.83 13.89 78.83 13.62C78.83 13.36 78.77 13.12 78.65 12.9C78.53 12.69 78.35 12.51 78.13 12.4C77.91 12.27 77.66 12.21 77.4 12.21C77.13 12.21 76.88 12.27 76.66 12.4C76.44 12.52 76.27 12.69 76.14 12.9C76.02 13.12 75.96 13.36 75.96 13.62C75.96 13.89 76.02 14.13 76.14 14.35C76.27 14.56 76.44 14.73 76.66 14.85C76.88 14.98 77.13 15.04 77.4 15.04C77.67 15.04 77.91 14.98 78.13 14.85ZM84.36 15.01L84.36 16.27L83.87 16.27L83.87 15.46L80.82 15.46L80.82 16.27L80.33 16.27L80.33 15.01L80.51 15.01C80.74 14.99 80.91 14.81 81 14.46C81.1 14.1 81.16 13.61 81.18 12.97L81.22 11.79L83.82 11.79L83.82 15.01L84.36 15.01ZM81.52 14.3C81.46 14.64 81.35 14.88 81.21 15.01L83.3 15.01L83.3 12.24L81.67 12.24L81.65 13.02C81.64 13.45 81.59 13.88 81.52 14.3L81.52 14.3ZM86.46 15.26C86.17 15.1 85.92 14.87 85.76 14.58C85.59 14.29 85.5 13.96 85.51 13.62C85.5 13.29 85.59 12.96 85.75 12.67C85.92 12.38 86.17 12.14 86.46 11.99C86.77 11.82 87.12 11.74 87.47 11.74C87.76 11.74 88.02 11.79 88.26 11.89C88.5 11.99 88.71 12.13 88.88 12.32L88.54 12.65C88.4 12.51 88.24 12.39 88.06 12.32C87.88 12.24 87.69 12.21 87.49 12.21C87.23 12.21 86.98 12.27 86.75 12.4C86.53 12.51 86.35 12.69 86.23 12.9C86.1 13.12 86.04 13.36 86.04 13.62C86.04 13.89 86.1 14.13 86.22 14.35C86.35 14.56 86.52 14.73 86.75 14.85C86.97 14.98 87.22 15.04 87.49 15.04C87.91 15.04 88.25 14.89 88.54 14.6L88.88 14.93C88.71 15.12 88.5 15.26 88.26 15.36C88.02 15.46 87.75 15.51 87.47 15.51C87.1 15.51 86.76 15.42 86.46 15.26ZM91.62 13.85L90.85 13.85L90.85 15.46L90.33 15.46L90.33 11.78L90.85 11.78L90.85 13.38L91.63 13.38L92.8 11.79L93.36 11.79L92.04 13.57L93.43 15.46L92.82 15.46L91.62 13.85ZM97.04 14.54L95.08 14.54L94.67 15.46L94.12 15.46L95.8 11.79L96.32 11.79L98.01 15.46L97.45 15.46L97.04 14.54ZM96.86 14.12L96.06 12.32L95.26 14.12L96.86 14.12ZM101.91 11.79L101.91 15.46L101.39 15.46L101.39 14.39L100.37 14.39C100.3 14.39 100.26 14.39 100.23 14.39L99.48 15.46L98.92 15.46L99.74 14.3C99.5 14.22 99.28 14.07 99.13 13.86C98.99 13.64 98.92 13.38 98.92 13.11C98.92 12.69 99.06 12.37 99.33 12.14C99.6 11.9 99.96 11.79 100.42 11.79L101.91 11.79ZM99.7 13.73C99.86 13.88 100.1 13.95 100.41 13.95L101.39 13.95L101.39 12.24L100.44 12.24C100.12 12.24 99.88 12.32 99.71 12.46C99.54 12.61 99.46 12.82 99.46 13.1C99.46 13.38 99.54 13.59 99.7 13.73ZM108.61 15.01L108.61 15.46L105.93 15.46L105.93 11.78L108.54 11.78L108.54 12.24L106.45 12.24L106.45 13.37L108.31 13.37L108.31 13.82L106.45 13.82L106.45 15L108.61 15L108.61 15.01ZM113.23 13.85L112.53 13.85L112.53 15.46L112.01 15.46L112.01 13.85L111.3 13.85L110.26 15.46L109.65 15.46L110.87 13.55L109.74 11.79L110.3 11.79L111.29 13.38L112.01 13.38L112.01 11.79L112.53 11.79L112.53 13.38L113.24 13.38L114.23 11.79L114.8 11.79L113.67 13.56L114.89 15.46L114.27 15.46L113.23 13.85ZM118.85 15.01L118.85 15.46L116.17 15.46L116.17 11.78L118.78 11.78L118.78 12.24L116.69 12.24L116.69 13.37L118.55 13.37L118.55 13.82L116.69 13.82L116.69 15L118.85 15L118.85 15.01ZM122.83 12.24L120.92 12.24L120.93 15.46L120.4 15.46L120.4 11.78L122.83 11.78L122.83 12.24ZM124.37 15.26C124.08 15.1 123.83 14.87 123.66 14.58C123.49 14.29 123.4 13.96 123.41 13.62C123.4 13.29 123.49 12.96 123.66 12.67C123.83 12.38 124.08 12.15 124.37 11.99C124.67 11.82 125.01 11.74 125.38 11.74C125.75 11.74 126.09 11.82 126.39 11.99C126.68 12.14 126.93 12.38 127.1 12.67C127.27 12.96 127.35 13.29 127.35 13.62C127.35 13.96 127.27 14.29 127.1 14.58C126.93 14.87 126.68 15.1 126.39 15.26C126.09 15.42 125.75 15.51 125.38 15.51C125.01 15.51 124.67 15.42 124.37 15.26ZM126.12 14.85C126.33 14.73 126.51 14.56 126.63 14.35C126.75 14.13 126.82 13.89 126.82 13.62C126.82 13.37 126.76 13.12 126.63 12.9C126.51 12.69 126.33 12.51 126.12 12.4C125.89 12.27 125.64 12.21 125.38 12.21C125.11 12.21 124.87 12.27 124.64 12.4C124.43 12.51 124.25 12.69 124.13 12.9C124 13.12 123.94 13.36 123.94 13.62C123.94 13.89 124 14.13 124.13 14.35C124.25 14.56 124.42 14.73 124.64 14.85C124.87 14.98 125.11 15.04 125.38 15.04C125.65 15.04 125.9 14.98 126.12 14.85ZM132.35 15.01L132.35 16.27L131.85 16.27L131.85 15.46L128.81 15.46L128.8 16.27L128.31 16.27L128.32 15.01L128.49 15.01C128.73 14.99 128.89 14.81 128.99 14.46C129.08 14.1 129.14 13.61 129.16 12.97L129.2 11.79L131.8 11.79L131.8 15.01L132.35 15.01ZM129.5 14.3C129.44 14.64 129.33 14.88 129.19 15.01L131.28 15.01L131.28 12.24L129.65 12.24L129.63 13.02C129.62 13.45 129.58 13.88 129.5 14.3ZM136.98 11.79L136.98 15.46L136.45 15.46L136.45 13.82L134.32 13.82L134.32 15.46L133.79 15.46L133.79 11.78L134.32 11.78L134.32 13.37L136.45 13.37L136.45 11.79L136.98 11.79ZM141.26 14.54L139.29 14.54L138.88 15.46L138.34 15.46L140.02 11.79L140.54 11.79L142.22 15.46L141.67 15.46L141.26 14.54ZM141.07 14.12L140.28 12.32L139.48 14.12L141.07 14.12ZM146.12 11.79L146.12 15.46L145.6 15.46L145.6 14.39L144.58 14.39C144.52 14.39 144.47 14.39 144.44 14.39L143.7 15.46L143.14 15.46L143.96 14.3C143.71 14.22 143.5 14.07 143.35 13.86C143.2 13.64 143.13 13.38 143.14 13.11C143.14 12.69 143.27 12.37 143.54 12.14C143.81 11.9 144.18 11.79 144.64 11.79L146.12 11.79ZM143.91 13.73C144.07 13.88 144.31 13.95 144.62 13.95L145.6 13.95L145.6 12.24L144.66 12.24C144.34 12.24 144.1 12.32 143.93 12.46C143.76 12.61 143.67 12.82 143.67 13.1C143.67 13.38 143.75 13.59 143.91 13.73ZM153.33 11.79L153.33 15.46L152.81 15.46L152.81 12.24L150.66 12.24L150.66 15.46L150.14 15.46L150.14 11.78L153.33 11.78L153.33 11.79ZM157.78 12.13C158.06 12.36 158.19 12.67 158.19 13.07C158.19 13.47 158.06 13.78 157.78 14.01C157.5 14.24 157.13 14.35 156.65 14.35L155.73 14.35L155.73 15.46L155.2 15.46L155.2 11.78L156.65 11.78C157.13 11.78 157.5 11.9 157.78 12.13L157.78 12.13ZM157.4 13.68C157.58 13.54 157.66 13.33 157.66 13.07C157.66 12.8 157.58 12.6 157.4 12.46C157.22 12.31 156.97 12.24 156.63 12.24L155.73 12.24L155.73 13.89L156.63 13.89C156.97 13.89 157.22 13.82 157.4 13.68ZM162.34 15.01L162.34 15.46L159.65 15.46L159.65 11.78L162.26 11.78L162.26 12.24L160.18 12.24L160.18 13.37L162.03 13.37L162.03 13.82L160.18 13.82L160.18 15L162.34 15.01ZM167.32 15.46L167.32 12.78L165.98 15.02L165.74 15.02L164.4 12.8L164.4 15.46L163.89 15.46L163.89 11.78L164.32 11.78L165.87 14.37L167.39 11.79L167.83 11.79L167.83 15.46L167.32 15.46L167.32 15.46ZM169.7 11.79L170.23 11.79L170.23 14.62L172.42 11.79L172.91 11.79L172.91 15.46L172.39 15.46L172.39 12.63L170.19 15.46L169.7 15.46L169.7 11.78L169.7 11.79ZM177.49 11.79L177.49 15.46L176.98 15.46L176.98 14.39L175.95 14.39C175.89 14.39 175.84 14.39 175.81 14.39L175.07 15.46L174.51 15.46L175.33 14.3C175.08 14.22 174.87 14.07 174.72 13.86C174.57 13.64 174.5 13.38 174.51 13.11C174.51 12.69 174.64 12.37 174.91 12.14C175.18 11.9 175.55 11.79 176.01 11.79L177.49 11.79ZM175.28 13.73C175.44 13.88 175.68 13.95 176 13.95L176.98 13.95L176.98 12.24L176.03 12.24C175.71 12.24 175.47 12.32 175.3 12.46C175.13 12.61 175.04 12.82 175.04 13.1C175.04 13.38 175.12 13.59 175.28 13.73ZM62.49 22.81L66.87 22.81C67.89 22.81 68.79 23 69.58 23.38C70.33 23.72 70.96 24.28 71.4 24.98C71.83 25.67 72.05 26.49 72.05 27.42C72.05 28.35 71.84 29.16 71.4 29.85C70.96 30.55 70.33 31.11 69.58 31.45C68.79 31.83 67.89 32.02 66.87 32.02L62.49 32.02L62.49 22.81ZM66.77 29.94C67.56 29.94 68.2 29.72 68.68 29.27C69.16 28.82 69.4 28.2 69.4 27.42C69.4 26.63 69.16 26.01 68.68 25.56C68.2 25.11 67.56 24.89 66.77 24.89L65.11 24.89L65.11 29.94L66.76 29.94L66.77 29.94ZM75.68 31.59C74.91 31.2 74.27 30.6 73.83 29.86C73.38 29.13 73.15 28.28 73.17 27.42C73.17 26.5 73.39 25.68 73.83 24.96C74.28 24.23 74.92 23.64 75.68 23.25C76.46 22.83 77.34 22.63 78.32 22.63C79.3 22.63 80.18 22.83 80.96 23.25C81.74 23.66 82.36 24.23 82.8 24.95C83.25 25.7 83.49 26.55 83.47 27.42C83.49 28.28 83.26 29.13 82.81 29.86C82.37 30.6 81.73 31.2 80.96 31.59C80.18 32 79.3 32.2 78.32 32.2C77.34 32.2 76.46 32 75.68 31.59ZM79.59 29.72C79.97 29.5 80.27 29.19 80.49 28.79C80.71 28.39 80.82 27.93 80.82 27.42C80.83 26.94 80.72 26.46 80.49 26.04C80.28 25.65 79.97 25.33 79.59 25.11C79.2 24.89 78.76 24.78 78.32 24.79C77.85 24.79 77.43 24.89 77.05 25.11C76.67 25.33 76.37 25.64 76.15 26.04C75.92 26.46 75.81 26.94 75.82 27.42C75.82 27.93 75.93 28.39 76.15 28.79C76.37 29.19 76.67 29.5 77.05 29.72C77.43 29.94 77.85 30.05 78.32 30.05C78.79 30.05 79.21 29.94 79.59 29.72ZM88.89 28.49L87.7 28.49L87.7 32.02L85.09 32.02L85.09 22.81L87.7 22.81L87.7 26.39L88.96 26.39L91.17 22.81L93.93 22.81L91.03 27.26L93.95 32.02L91 32.02L88.89 28.49ZM102.42 24.88L99.59 24.88L99.59 32.02L97 32.02L97 24.88L94.15 24.88L94.15 22.81L102.42 22.81L102.42 24.88ZM105.68 31.59C104.92 31.2 104.28 30.6 103.83 29.88C103.38 29.14 103.15 28.28 103.17 27.42C103.17 26.5 103.39 25.68 103.83 24.96C104.28 24.23 104.92 23.64 105.68 23.25C106.46 22.83 107.34 22.63 108.32 22.63C109.3 22.63 110.18 22.83 110.96 23.25C111.74 23.66 112.36 24.23 112.8 24.95C113.25 25.68 113.47 26.5 113.47 27.42C113.47 28.33 113.25 29.15 112.8 29.88C112.36 30.6 111.72 31.2 110.96 31.59C110.18 32 109.3 32.2 108.32 32.2C107.34 32.2 106.46 32 105.68 31.59ZM109.59 29.72C109.97 29.5 110.27 29.19 110.49 28.79C110.72 28.37 110.83 27.9 110.82 27.42C110.83 26.94 110.72 26.46 110.49 26.04C110.28 25.66 109.97 25.33 109.59 25.11C109.2 24.89 108.77 24.78 108.32 24.79C107.85 24.79 107.43 24.89 107.05 25.11C106.67 25.33 106.36 25.65 106.15 26.04C105.92 26.46 105.81 26.94 105.81 27.42C105.81 27.93 105.93 28.39 106.15 28.79C106.37 29.19 106.67 29.5 107.05 29.72C107.43 29.94 107.85 30.05 108.32 30.05C108.79 30.05 109.21 29.94 109.59 29.72ZM121.57 23.23C122.19 23.5 122.66 23.9 123 24.41C123.34 24.92 123.5 25.53 123.5 26.22C123.5 26.91 123.34 27.51 123 28.02C122.66 28.53 122.19 28.92 121.57 29.2C120.95 29.47 120.22 29.61 119.38 29.61L117.77 29.61L117.77 32.02L115.14 32.02L115.14 22.81L119.38 22.81C120.22 22.81 120.95 22.95 121.57 23.23ZM120.44 27.21C120.72 26.98 120.85 26.65 120.85 26.22C120.85 25.79 120.72 25.46 120.44 25.22C120.17 24.98 119.76 24.86 119.23 24.86L117.77 24.86L117.77 27.56L119.22 27.56C119.76 27.56 120.17 27.45 120.44 27.21ZM137.91 22.81L137.91 32.02L135.31 32.02L135.31 24.88L131.78 24.88L131.78 32.02L129.2 32.02L129.2 22.81L137.91 22.81ZM140.16 22.81L142.74 22.81L142.74 28.22L146.57 22.81L149.04 22.81L149.04 32.02L146.45 32.02L146.45 26.63L142.64 32.02L140.16 32.02L140.16 22.81ZM158.76 24.88L155.93 24.88L155.93 32.02L153.34 32.02L153.34 24.88L150.5 24.88L150.5 22.81L158.76 22.81L158.76 24.88ZM167.68 30.01L167.68 32.02L160.23 32.02L160.23 22.81L167.51 22.81L167.51 24.82L162.83 24.82L162.83 26.38L166.95 26.38L166.95 28.32L162.83 28.32L162.83 30.01L167.68 30.01ZM175.87 23.23C176.49 23.5 176.96 23.9 177.3 24.41C177.64 24.92 177.8 25.53 177.8 26.22C177.8 26.91 177.64 27.51 177.3 28.02C176.96 28.53 176.49 28.92 175.87 29.2C175.25 29.47 174.52 29.61 173.68 29.61L172.07 29.61L172.07 32.02L169.44 32.02L169.44 22.81L173.68 22.81C174.52 22.81 175.25 22.95 175.87 23.23ZM174.74 27.21C175.02 26.98 175.15 26.65 175.15 26.22C175.15 25.79 175.02 25.46 174.74 25.22C174.47 24.98 174.06 24.86 173.52 24.86L172.07 24.86L172.07 27.56L173.52 27.56C174.06 27.56 174.47 27.45 174.74 27.21Z" fill="#414141" fill-opacity="1.000000" fill-rule="nonzero"/>
	</g>
</svg>
