<svg width="197.000000" height="71.000000" viewBox="0 0 197 71" fill="none" xmlns="http://www.w3.org/2000/svg" xmlns:xlink="http://www.w3.org/1999/xlink">
	<desc>
			Created with Pixso.
	</desc>
	<defs>
		<clipPath id="clip8_5561">
			<rect id="reward3 1" rx="0.000000" width="196.000000" height="70.000000" transform="translate(0.500000 0.500000)" fill="white" fill-opacity="0"/>
		</clipPath>
	</defs>
	<rect id="reward3 1" rx="0.000000" width="196.000000" height="70.000000" transform="translate(0.500000 0.500000)" fill="#FFFFFF" fill-opacity="0"/>
	<g clip-path="url(#clip8_5561)">
		<path id="Vector" d="M130.96 24.51C129.9 24.51 129 23.78 129 22.89C129 22 129.9 21.29 130.96 21.29C132.04 21.29 132.91 22 132.91 22.89C132.91 23.78 132.04 24.51 130.96 24.51Z" fill="#713D9E" fill-opacity="1.000000" fill-rule="nonzero"/>
		<path id="Vector" d="M39.66 40.57C37 40.57 35.09 39.68 33.81 38.39L35.4 36.18C35.97 36.76 36.66 37.23 37.41 37.55C38.17 37.86 38.98 38.03 39.81 38.02C41.43 38.02 42.21 37.29 42.21 36.51C42.21 34.08 34.24 35.75 34.24 30.6C34.24 28.32 36.23 26.43 39.5 26.43C41.69 26.43 43.52 27.09 44.89 28.34L43.25 30.48C42.13 29.45 40.64 28.98 39.22 28.98C37.96 28.98 37.25 29.53 37.25 30.35C37.25 32.53 45.2 31.07 45.2 36.18C45.2 38.68 43.4 40.57 39.66 40.57ZM53.36 40.32L50.39 40.32L50.39 29.2L46.35 29.2L46.35 26.64L57.39 26.64L57.39 29.2L53.36 29.2L53.36 40.32L53.36 40.32ZM71.6 40.32L68.23 40.32L67.38 38L61.44 38L60.57 40.32L57.21 40.32L62.56 26.64L66.26 26.64L71.6 40.32ZM66.57 35.44L64.41 29.55L62.25 35.44L66.57 35.44L66.57 35.44ZM84.09 40.32L80.71 40.32L77.99 35.46L75.83 35.46L75.83 40.32L72.88 40.32L72.88 26.64L79.36 26.64C82.25 26.64 84.01 28.51 84.01 31.05C84.01 33.47 82.47 34.76 80.98 35.11L84.09 40.32L84.09 40.32ZM78.92 32.9C80.11 32.9 81 32.2 81 31.05C81 29.9 80.1 29.2 78.92 29.2L75.83 29.2L75.83 32.9L78.92 32.9ZM92.39 40.32L89.43 40.32L89.43 29.2L85.38 29.2L85.38 26.64L96.42 26.64L96.42 29.2L92.4 29.2L92.4 40.32L92.39 40.32ZM103.23 40.57C100.58 40.57 98.66 39.68 97.38 38.39L98.98 36.18C99.54 36.76 100.23 37.23 100.99 37.55C101.74 37.86 102.56 38.03 103.38 38.02C105 38.02 105.79 37.29 105.79 36.51C105.79 34.08 97.81 35.75 97.81 30.6C97.81 28.32 99.81 26.43 103.07 26.43C105.27 26.43 107.09 27.09 108.46 28.34L106.82 30.48C105.7 29.45 104.21 28.98 102.8 28.98C101.53 28.98 100.82 29.53 100.82 30.35C100.82 32.53 108.77 31.07 108.77 36.18C108.77 38.68 106.97 40.57 103.23 40.57ZM125.78 40.32L122.81 40.32L122.81 30.74L118.91 40.32L117.62 40.32L113.72 30.74L113.72 40.32L110.77 40.32L110.77 26.64L114.9 26.64L118.26 34.91L121.63 26.64L125.78 26.64L125.78 40.32L125.78 40.32ZM131.09 40.32L128.46 40.32L128.46 26.64L131.09 26.64L131.09 40.32L131.09 40.32L131.09 40.32ZM142.57 40.32L133.77 40.32L133.77 26.64L136.72 26.64L136.72 37.76L142.57 37.76L142.57 40.32ZM154.43 40.32L144.63 40.32L144.63 26.64L154.43 26.64L154.43 29.2L147.58 29.2L147.58 32.1L154.28 32.1L154.28 34.66L147.58 34.66L147.58 37.76L154.43 37.76L154.43 40.32Z" fill="#000000" fill-opacity="1.000000" fill-rule="nonzero"/>
		<g opacity="0.600000">
			<path id="Vector" d="M35.39 47.87C35.2 47.87 35.02 47.83 34.86 47.75C34.69 47.66 34.55 47.54 34.44 47.39L34.44 48.92L33.81 48.92L33.81 44.87L34.44 44.87L34.44 45.27C34.55 45.12 34.7 45 34.86 44.92C35.02 44.83 35.2 44.79 35.39 44.79C36.15 44.79 36.69 45.36 36.69 46.33C36.69 47.3 36.15 47.87 35.39 47.87ZM35.2 47.31C35.7 47.31 36.03 46.9 36.03 46.33C36.03 45.76 35.7 45.36 35.2 45.36C35.05 45.36 34.9 45.4 34.77 45.47C34.64 45.53 34.53 45.63 34.44 45.75L34.44 46.91C34.58 47.13 34.9 47.31 35.2 47.31ZM39.37 47.87C38.49 47.87 37.83 47.26 37.83 46.33C37.83 45.48 38.45 44.79 39.32 44.79C40.2 44.79 40.77 45.47 40.77 46.39L40.77 46.54L38.5 46.54C38.55 46.99 38.88 47.35 39.44 47.35C39.74 47.35 40.04 47.24 40.27 47.03L40.56 47.45C40.27 47.73 39.84 47.87 39.37 47.87ZM40.15 46.09C40.13 45.75 39.9 45.31 39.32 45.31C38.77 45.31 38.52 45.73 38.49 46.09L40.15 46.09ZM42.71 47.8L42.09 47.8L42.09 44.87L42.73 44.87L42.73 46.84L44.08 44.87L44.72 44.87L44.72 47.8L44.08 47.8L44.08 45.77L42.71 47.8ZM44.47 44.02C44.35 44.19 44.19 44.32 44 44.42C43.82 44.51 43.61 44.56 43.41 44.56C43.2 44.55 42.99 44.51 42.81 44.41C42.62 44.32 42.46 44.19 42.34 44.02L42.63 43.78C42.72 43.9 42.83 44 42.97 44.07C43.1 44.14 43.25 44.18 43.41 44.18C43.56 44.18 43.71 44.14 43.84 44.07C43.98 44 44.09 43.9 44.18 43.78L44.47 44.02ZM47.41 47.8L46.77 47.8L46.77 45.43L45.94 45.43L45.94 44.87L48.26 44.87L48.26 45.43L47.41 45.43L47.41 47.8ZM50.09 47.8L49.47 47.8L49.47 44.87L50.11 44.87L50.11 46.84L51.46 44.87L52.1 44.87L52.1 47.8L51.46 47.8L51.46 45.77L50.09 47.8ZM54.26 47.8L53.62 47.8L53.62 44.87L54.26 44.87L54.26 46.02L55.61 46.02L55.61 44.87L56.25 44.87L56.25 47.8L55.61 47.8L55.61 46.58L54.26 46.58L54.26 47.8ZM59.99 44.87L59.99 45.43L58.4 45.43L58.4 47.8L57.77 47.8L57.77 44.87L59.99 44.87ZM64.8 47.87C63.91 47.87 63.28 47.22 63.28 46.33C63.28 45.44 63.91 44.79 64.8 44.79C65.37 44.79 65.72 45.04 65.93 45.32L65.51 45.71C65.43 45.59 65.33 45.5 65.22 45.44C65.1 45.38 64.97 45.35 64.83 45.36C64.3 45.36 63.94 45.76 63.94 46.33C63.94 46.9 64.3 47.31 64.83 47.31C64.96 47.31 65.1 47.28 65.21 47.22C65.33 47.16 65.43 47.07 65.51 46.96L65.93 47.35C65.72 47.63 65.37 47.87 64.8 47.87ZM68.35 47.8L67.71 47.8L67.71 45.42L66.88 45.42L66.88 44.86L69.2 44.86L69.2 45.42L68.35 45.42L68.35 47.8L68.35 47.8ZM71.74 47.87C70.81 47.87 70.23 47.17 70.23 46.33C70.23 45.49 70.81 44.79 71.74 44.79C72.68 44.79 73.25 45.49 73.25 46.33C73.25 47.17 72.68 47.87 71.74 47.87ZM71.74 47.31C72.29 47.31 72.59 46.85 72.59 46.33C72.59 45.81 72.29 45.36 71.74 45.36C71.2 45.36 70.89 45.81 70.89 46.33C70.89 46.85 71.2 47.31 71.74 47.31ZM77.88 47.8L77.24 47.8L77.24 45.76L76.37 47.8L76.11 47.8L75.23 45.76L75.23 47.8L74.59 47.8L74.59 44.87L75.42 44.87L76.24 46.76L77.04 44.87L77.88 44.87L77.88 47.8ZM81.83 47.8L81.19 47.8L81.19 47.48C80.97 47.73 80.63 47.87 80.24 47.87C79.76 47.87 79.22 47.55 79.22 46.9C79.22 46.23 79.76 45.95 80.24 45.95C80.64 45.95 80.98 46.07 81.19 46.32L81.19 45.89C81.19 45.55 80.91 45.34 80.51 45.34C80.34 45.34 80.18 45.37 80.03 45.44C79.88 45.5 79.75 45.59 79.64 45.71L79.37 45.27C79.72 44.94 80.14 44.79 80.61 44.79C81.26 44.79 81.83 45.07 81.83 45.86L81.83 47.8ZM80.49 47.44C80.77 47.44 81.05 47.33 81.19 47.13L81.19 46.69C81.05 46.49 80.77 46.38 80.49 46.38C80.13 46.38 79.87 46.59 79.87 46.91C79.87 47.23 80.13 47.44 80.49 47.44ZM84.52 47.8L83.89 47.8L83.89 45.43L83.05 45.43L83.05 44.87L85.37 44.87L85.37 45.43L84.52 45.43L84.52 47.8ZM87.91 47.87C86.98 47.87 86.4 47.17 86.4 46.33C86.4 45.49 86.98 44.79 87.91 44.79C88.85 44.79 89.42 45.49 89.42 46.33C89.42 47.17 88.85 47.87 87.91 47.87ZM87.91 47.31C88.46 47.31 88.76 46.85 88.76 46.33C88.76 45.81 88.46 45.36 87.91 45.36C87.37 45.36 87.07 45.81 87.07 46.33C87.07 46.85 87.37 47.31 87.91 47.31ZM90.46 47.87L90.46 47.35C90.71 47.35 90.85 47.07 90.94 46.29L91.12 44.87L93.39 44.87L93.39 47.8L92.75 47.8L92.75 45.43L91.69 45.43L91.58 46.37C91.47 47.43 91.1 47.87 90.46 47.87ZM96.23 47.87C95.3 47.87 94.73 47.17 94.73 46.33C94.73 45.49 95.3 44.79 96.24 44.79C97.18 44.79 97.75 45.49 97.75 46.33C97.75 47.17 97.18 47.87 96.23 47.87ZM96.23 47.31C96.78 47.31 97.09 46.85 97.09 46.33C97.09 45.81 96.78 45.36 96.23 45.36C95.69 45.36 95.39 45.81 95.39 46.33C95.39 46.85 95.69 47.31 96.23 47.31ZM101.31 44.87L101.31 45.43L99.72 45.43L99.72 47.8L99.09 47.8L99.09 44.87L101.31 44.87ZM103.14 47.8L102.53 47.8L102.53 44.87L103.17 44.87L103.17 46.84L104.52 44.87L105.15 44.87L105.15 47.8L104.52 47.8L104.52 45.77L103.14 47.8ZM106.57 44.87L107.21 44.87L107.21 45.65C107.21 46.11 107.44 46.25 107.91 46.25C108.19 46.25 108.4 46.21 108.55 46.14L108.55 44.87L109.19 44.87L109.19 47.8L108.55 47.8L108.55 46.66C108.36 46.75 108.06 46.82 107.71 46.82C106.88 46.82 106.57 46.49 106.57 45.89L106.57 44.87ZM112.07 47.87C111.19 47.87 110.53 47.26 110.53 46.33C110.53 45.48 111.15 44.79 112.02 44.79C112.9 44.79 113.47 45.47 113.47 46.39L113.47 46.54L111.2 46.54C111.24 46.99 111.58 47.35 112.13 47.35C112.44 47.35 112.74 47.24 112.97 47.03L113.26 47.45C112.97 47.73 112.54 47.87 112.07 47.87ZM112.84 46.09C112.83 45.75 112.6 45.31 112.02 45.31C111.47 45.31 111.22 45.73 111.19 46.09L112.84 46.09ZM116.13 47.87C115.23 47.87 114.61 47.22 114.61 46.33C114.61 45.44 115.23 44.79 116.13 44.79C116.7 44.79 117.05 45.04 117.25 45.32L116.83 45.71C116.76 45.59 116.66 45.5 116.54 45.44C116.42 45.38 116.29 45.35 116.16 45.36C115.62 45.36 115.27 45.76 115.27 46.33C115.27 46.9 115.62 47.31 116.16 47.31C116.29 47.31 116.42 47.28 116.54 47.22C116.66 47.16 116.76 47.07 116.83 46.96L117.25 47.35C117.05 47.63 116.7 47.87 116.13 47.87ZM121.25 47.8L120.45 47.8L119.55 46.59L119.14 47.01L119.14 47.8L118.51 47.8L118.51 44.87L119.14 44.87L119.14 46.28L120.44 44.87L121.23 44.87L120.01 46.2L121.25 47.8L121.25 47.8ZM123.01 47.8L122.4 47.8L122.4 44.86L123.04 44.86L123.04 46.84L124.38 44.86L125.02 44.86L125.02 47.8L124.38 47.8L124.38 45.77L123.01 47.8L123.01 47.8ZM129.12 47.8L128.4 47.8L127.64 46.72L126.87 47.8L126.16 47.8L127.24 46.29L126.22 44.87L126.94 44.87L127.64 45.86L128.33 44.87L129.05 44.87L128.03 46.29L129.11 47.8L129.12 47.8ZM135.26 47.8L134.45 47.8L133.55 46.59L133.15 47.01L133.15 47.8L132.51 47.8L132.51 44.87L133.15 44.87L133.15 46.28L134.44 44.87L135.23 44.87L134.01 46.2L135.26 47.8ZM136.09 47.87L136.09 47.35C136.34 47.35 136.48 47.07 136.58 46.29L136.76 44.87L139.02 44.87L139.02 47.8L138.39 47.8L138.39 45.43L137.32 45.43L137.22 46.37C137.1 47.43 136.74 47.87 136.09 47.87ZM141.16 47.8L140.55 47.8L140.55 44.86L141.18 44.86L141.18 46.84L142.53 44.86L143.17 44.86L143.17 47.8L142.53 47.8L142.53 45.77L141.16 47.8L141.16 47.8ZM145.33 47.8L144.69 47.8L144.69 44.86L145.33 44.86L145.33 46.02L146.68 46.02L146.68 44.86L147.32 44.86L147.32 47.8L146.68 47.8L146.68 46.58L145.33 46.58L145.33 47.8L145.33 47.8ZM149.45 47.8L148.84 47.8L148.84 44.86L149.48 44.86L149.48 46.84L150.83 44.86L151.46 44.86L151.46 47.8L150.83 47.8L150.83 45.77L149.45 47.8L149.45 47.8ZM155.73 47.8L154.93 47.8L154.03 46.59L153.62 47.01L153.62 47.8L152.98 47.8L152.98 44.87L153.62 44.87L153.62 46.28L154.92 44.87L155.71 44.87L154.49 46.2L155.73 47.8Z" fill="#000000" fill-opacity="1.000000" fill-rule="nonzero"/>
		</g>
		<path id="Vector" d="M25.98 34.14C25.98 41.24 20.29 46.99 13.27 46.99C6.25 46.99 0.55 41.24 0.55 34.14C0.55 27.05 6.25 21.3 13.27 21.3C20.29 21.3 25.98 27.05 25.98 34.14L25.98 34.14Z" fill="#713D9E" fill-opacity="1.000000" fill-rule="nonzero"/>
		<path id="Vector" d="M13.27 38.18L16.27 39.82C16.35 39.86 16.43 39.88 16.52 39.88C16.61 39.87 16.69 39.84 16.76 39.79C16.83 39.74 16.88 39.68 16.92 39.6C16.95 39.52 16.96 39.43 16.94 39.34L16.39 35.78L18.84 33.22C18.89 33.16 18.93 33.08 18.95 33C18.97 32.92 18.97 32.83 18.94 32.75C18.91 32.67 18.87 32.6 18.8 32.55C18.74 32.49 18.66 32.45 18.58 32.44L15.2 31.9L13.68 28.7C13.64 28.62 13.59 28.55 13.51 28.51C13.44 28.46 13.36 28.43 13.27 28.44C13.18 28.44 13.1 28.46 13.02 28.51C12.95 28.55 12.89 28.62 12.85 28.7L11.34 31.9L7.96 32.44C7.86 32.45 7.78 32.5 7.71 32.56C7.62 32.65 7.57 32.77 7.57 32.89C7.57 33.01 7.62 33.13 7.7 33.22L10.15 35.78L9.59 39.34C9.58 39.42 9.59 39.51 9.62 39.58C9.65 39.66 9.69 39.72 9.76 39.77C9.83 39.83 9.91 39.87 10 39.88C10.09 39.88 10.18 39.87 10.26 39.82L13.27 38.18ZM10.86 40.94C10.67 41.05 10.45 41.11 10.22 41.14C10 41.16 9.77 41.14 9.55 41.08C9.34 41.01 9.14 40.9 8.96 40.76C8.79 40.62 8.64 40.44 8.54 40.24C8.36 39.91 8.29 39.52 8.35 39.14L8.81 36.21L6.8 34.1C6.48 33.77 6.31 33.33 6.31 32.87C6.32 32.41 6.51 31.97 6.84 31.65C7.09 31.4 7.41 31.24 7.76 31.18L10.49 30.74L11.72 28.15C11.86 27.85 12.08 27.61 12.35 27.43C12.62 27.26 12.94 27.16 13.27 27.16C13.59 27.16 13.91 27.26 14.19 27.43C14.46 27.61 14.68 27.85 14.82 28.15L16.05 30.74L18.78 31.18C19.71 31.33 20.35 32.22 20.2 33.17C20.15 33.52 19.99 33.84 19.74 34.1L17.73 36.21L18.19 39.14C18.26 39.6 18.15 40.06 17.88 40.43C17.62 40.8 17.21 41.05 16.76 41.13C16.39 41.19 16 41.12 15.67 40.94L13.27 39.62L10.86 40.94Z" fill="#FFFFFF" fill-opacity="1.000000" fill-rule="nonzero"/>
		<path id="Vector" d="M162.25 26.43L196.16 26.43L196.16 40.57L162.25 40.57L162.25 26.43Z" fill="#713D9E" fill-opacity="1.000000" fill-rule="nonzero"/>
		<path id="Vector" d="M169.19 38.19C167.62 38.19 166.57 37.61 166.57 36.34C166.57 36.22 166.58 35.97 166.64 35.76L167.62 31.43L166.16 31.43L166.62 29.49L168.08 29.49L168.87 26.43L171.21 26.43L170.41 29.49L172.19 29.49L171.72 31.43L169.93 31.43L169.1 35.11C169.07 35.23 169.06 35.35 169.06 35.46C169.06 35.92 169.33 36.2 169.91 36.2C170.15 36.2 170.44 36.11 170.55 36.03L170.64 37.82C170.3 38.05 169.75 38.19 169.19 38.19ZM176.48 38.19C173.68 38.19 172.13 36.55 172.13 34.34C172.13 31.69 174.25 29.28 177.21 29.28C180.02 29.28 181.58 30.93 181.58 33.15C181.58 33.81 181.45 34.47 181.19 35.08C180.93 35.7 180.56 36.25 180.08 36.72C179.61 37.19 179.05 37.56 178.43 37.81C177.81 38.06 177.15 38.19 176.48 38.19ZM176.57 36.2C178.12 36.2 179.18 34.78 179.18 33.25C179.18 32.02 178.41 31.27 177.14 31.27C175.57 31.27 174.52 32.71 174.52 34.22C174.52 35.45 175.28 36.2 176.57 36.2ZM187.62 38.19C186.42 38.19 185.4 37.7 184.82 36.85L183.82 41.21L181.51 41.21L184.2 29.49L186.51 29.49L186.26 30.55C187 29.7 187.86 29.28 188.91 29.28C190.88 29.28 192.25 30.55 192.25 32.8C192.25 35.34 190.61 38.19 187.62 38.19ZM187.24 36.2C188.77 36.2 189.83 34.82 189.83 33.25C189.83 32.04 188.99 31.27 187.88 31.27C187.06 31.27 186.35 31.71 185.86 32.29L185.18 35.24C185.57 35.8 186.31 36.2 187.24 36.2Z" fill="#FFFFFF" fill-opacity="1.000000" fill-rule="nonzero"/>
	</g>
</svg>
