<svg width="202.729980" height="32.579956" viewBox="0 0 202.73 32.58" fill="none" xmlns="http://www.w3.org/2000/svg" xmlns:xlink="http://www.w3.org/1999/xlink">
	<desc>
			Created with Pixso.
	</desc>
	<defs>
		<clipPath id="clip8_5573">
			<rect id="logo (1) 1" rx="0.000000" width="201.729996" height="31.580002" transform="translate(0.500000 0.500000)" fill="white" fill-opacity="0"/>
		</clipPath>
	</defs>
	<rect id="logo (1) 1" rx="0.000000" width="201.729996" height="31.580002" transform="translate(0.500000 0.500000)" fill="#FFFFFF" fill-opacity="0"/>
	<g clip-path="url(#clip8_5573)">
		<path id="TM" d="M197.92 21.71L197.92 19.1L197 19.1L197 18.66L199.25 18.66L199.25 19.1L198.37 19.1L198.37 21.71L197.92 21.71ZM202.24 21.71L202.24 19.45L201.24 20.79L200.24 19.45L200.24 21.71L199.75 21.71L199.75 18.7L200.24 18.7L201.24 20.09L202.24 18.7L202.73 18.7L202.73 21.71L202.24 21.71Z" fill="#000000" fill-opacity="1.000000" fill-rule="nonzero"/>
		<path id="Nobel Biocare" d="M55.99 26.56L55.94 26.56L47.7 13.87L44.1 13.87L44.1 32.17L47.19 32.17L47.19 18.72L47.24 18.72L55.99 32.17L59.08 32.17L59.08 13.87L55.99 13.87L55.99 26.56ZM67.62 18.41C63.96 18.41 61.29 21.09 61.29 25.5C61.29 29.91 63.91 32.5 67.57 32.5C71.23 32.5 73.9 29.82 73.9 25.42C73.9 21.02 71.28 18.41 67.62 18.41ZM67.62 29.85C65.72 29.85 64.41 28.26 64.41 25.47C64.41 22.68 65.72 21.09 67.62 21.09C69.51 21.09 70.84 22.69 70.84 25.47C70.84 28.25 69.5 29.85 67.59 29.85L67.62 29.85ZM83 18.41C82.28 18.41 81.57 18.55 80.91 18.82C80.25 19.09 79.65 19.49 79.15 19.99L79.15 13.87L76.06 13.87L76.06 32.17L78.79 32.17L78.92 30.68C79.38 31.27 79.97 31.74 80.64 32.06C81.31 32.38 82.05 32.54 82.8 32.53C86.3 32.53 88.62 29.65 88.62 25.32C88.62 20.99 86.43 18.41 83 18.41ZM82.15 29.85C81.56 29.84 80.99 29.69 80.47 29.43C79.95 29.16 79.5 28.78 79.15 28.31L79.15 22.59C79.5 22.14 79.96 21.77 80.48 21.51C81 21.25 81.57 21.11 82.15 21.09C84.27 21.09 85.5 22.69 85.5 25.42C85.5 28.15 84.24 29.85 82.16 29.85L82.15 29.85ZM96.62 18.41C92.89 18.41 90.39 21.27 90.39 25.55C90.39 29.83 92.89 32.55 96.88 32.55C98.78 32.57 100.62 31.9 102.08 30.67L100.71 28.48C99.69 29.41 98.37 29.95 97 29.99C95 29.99 93.86 28.83 93.55 26.61L102.55 26.61L102.55 25.4C102.54 21.12 100.23 18.41 96.62 18.41ZM93.53 24.47C93.61 22.3 94.82 20.83 96.53 20.83C98.24 20.83 99.39 22.25 99.46 24.47L93.53 24.47ZM109 29.75C108.3 29.75 107.94 29.39 107.94 28.64L107.94 13.87L104.86 13.87L104.86 29.31C104.8 29.72 104.84 30.14 104.98 30.53C105.11 30.92 105.33 31.28 105.61 31.57C105.9 31.87 106.25 32.1 106.64 32.24C107.03 32.38 107.44 32.43 107.86 32.38C108.68 32.37 109.51 32.23 110.3 31.97L110.04 29.6C109.7 29.7 109.35 29.75 109 29.75ZM126.62 22.59L126.62 22.53C127.42 22.24 128.12 21.69 128.59 20.97C129.07 20.25 129.31 19.4 129.27 18.53C129.27 15.7 127.16 13.89 123.86 13.89L117.22 13.89L117.22 32.19L124 32.19C127.66 32.19 130 30.19 130 27.09C130.05 26.07 129.74 25.05 129.12 24.23C128.5 23.41 127.62 22.83 126.62 22.59ZM119 15.47L123.77 15.47C126.08 15.47 127.55 16.74 127.55 18.75C127.55 20.76 126.13 21.92 123.89 21.92L119 21.92L119 15.47ZM124 30.58L119 30.58L119 23.46L124 23.46C126.68 23.46 128.25 24.75 128.25 26.97C128.25 29.19 126.64 30.58 124 30.58ZM133.67 14.09C133.45 14.09 133.22 14.16 133.03 14.29C132.84 14.42 132.69 14.6 132.6 14.81C132.52 15.02 132.49 15.26 132.54 15.48C132.58 15.71 132.69 15.91 132.86 16.08C133.02 16.24 133.22 16.35 133.45 16.39C133.67 16.44 133.91 16.41 134.12 16.33C134.33 16.24 134.51 16.09 134.64 15.9C134.77 15.71 134.84 15.48 134.84 15.25C134.84 15.1 134.82 14.95 134.76 14.8C134.7 14.66 134.62 14.53 134.51 14.42C134.4 14.31 134.27 14.23 134.13 14.17C133.98 14.12 133.83 14.09 133.67 14.09ZM132.83 18.76L134.53 18.76L134.53 32.16L132.83 32.16L132.83 18.76ZM143.14 18.41C139.57 18.41 137.14 21.25 137.14 25.5C137.14 29.75 139.52 32.5 143.07 32.5C146.62 32.5 149.07 29.67 149.07 25.42C149.07 21.17 146.7 18.41 143.14 18.41ZM143.14 30.99C140.58 30.99 138.91 28.85 138.91 25.47C138.91 22.09 140.55 19.99 143.12 19.99C145.69 19.99 147.37 22.13 147.37 25.5C147.37 28.87 145.7 30.99 143.12 30.99L143.14 30.99ZM156.56 31.04C154.11 31.04 152.49 28.82 152.49 25.5C152.49 22.18 154.16 19.91 156.69 19.91C157.5 19.93 158.28 20.21 158.92 20.7C159.57 21.2 160.03 21.88 160.25 22.66L161.75 21.97C161.39 20.94 160.71 20.04 159.82 19.41C158.92 18.77 157.85 18.42 156.75 18.41C153.23 18.41 150.84 21.27 150.84 25.52C150.84 29.77 153.16 32.52 156.61 32.52C158.87 32.52 160.7 31.24 161.86 28.81L160.39 28.07C159.41 30.04 158.14 31.04 156.56 31.04ZM174.19 28.64L174.19 22.82C174.19 19.82 172.67 18.41 169.53 18.41C167.55 18.46 165.62 19 163.91 19.99L164.51 21.41C165.94 20.49 167.61 19.97 169.32 19.92C171.48 19.92 172.49 20.87 172.49 22.92L172.49 23.92C165.67 24.31 163.49 25.39 163.49 28.35C163.49 30.9 165.29 32.55 168.07 32.55C169.75 32.53 171.37 31.85 172.57 30.65C172.64 31.07 172.81 31.46 173.07 31.79C173.32 32.12 173.65 32.38 174.04 32.55L175.12 31.6C174.37 30.99 174.19 30.4 174.19 28.64ZM172.49 29.18C171.99 29.77 171.37 30.25 170.67 30.58C169.97 30.91 169.21 31.08 168.44 31.09C166.44 31.09 165.18 30.09 165.18 28.33C165.18 26.22 166.77 25.52 172.49 25.14L172.49 29.18ZM179.3 20.89L179.3 18.77L177.61 18.77L177.61 32.17L179.3 32.17L179.3 22.48C179.74 21.77 180.36 21.17 181.09 20.75C181.83 20.33 182.65 20.09 183.5 20.06C183.92 20.07 184.34 20.11 184.76 20.19L184.76 18.51C184.35 18.45 183.95 18.42 183.55 18.41C182.68 18.43 181.84 18.66 181.09 19.1C180.35 19.53 179.73 20.15 179.3 20.89ZM191 18.44C187.5 18.44 185.13 21.33 185.13 25.58C185.13 29.83 187.5 32.58 191.25 32.58C193.07 32.58 194.83 31.86 196.14 30.58L195.32 29.34C194.26 30.41 192.82 31.03 191.32 31.04C188.73 31.04 187.08 29.27 186.85 26.17L196.63 26.17L196.63 25.4C196.59 21.18 194.4 18.44 191 18.44ZM186.85 24.86C187 21.92 188.61 19.99 191 19.99C193.39 19.99 194.84 21.9 194.94 24.91L186.85 24.86Z" fill="#000000" fill-opacity="1.000000" fill-rule="nonzero"/>
		<path id="Vector" d="M28.15 4.63L28.15 27.72C28.15 27.88 28.09 28.03 27.98 28.15C27.86 28.26 27.71 28.33 27.55 28.33L23.16 28.33C21.75 28.33 21.27 28.14 20.81 27.5L10 12.54C9.91 12.46 9.8 12.41 9.68 12.4C9.57 12.38 9.45 12.4 9.35 12.45C9.25 12.5 9.16 12.57 9.09 12.67C9.03 12.77 9 12.88 9 13L9 17.18C9 17.38 9.07 17.57 9.21 17.71L18.31 30.72C18.69 31.23 19.2 31.64 19.78 31.91C20.37 32.17 21.01 32.28 21.65 32.23L31.57 32.23C31.73 32.23 31.88 32.16 32 32.05C32.11 31.93 32.17 31.78 32.17 31.62L32.17 0.6C32.17 0.44 32.11 0.29 32 0.17C31.88 0.06 31.73 0 31.57 0L23.07 0C22.9 0 22.75 0.06 22.63 0.17C22.52 0.29 22.46 0.44 22.46 0.6L22.46 3.41C22.46 3.57 22.52 3.72 22.63 3.84C22.75 3.95 22.9 4.02 23.07 4.02L27.55 4.02C27.71 4.02 27.86 4.08 27.98 4.19C28.09 4.31 28.15 4.46 28.15 4.63Z" fill="#CC0000" fill-opacity="1.000000" fill-rule="nonzero"/>
		<path id="Vector" d="M4 27.54L4 4.46C4 4.38 4.01 4.31 4.04 4.23C4.07 4.16 4.12 4.09 4.17 4.03C4.23 3.98 4.3 3.93 4.37 3.9C4.45 3.87 4.52 3.85 4.61 3.85L9 3.85C10.41 3.85 10.88 4.03 11.35 4.68L22.12 19.68C22.2 19.77 22.31 19.82 22.43 19.85C22.55 19.87 22.67 19.86 22.78 19.81C22.89 19.77 22.99 19.69 23.06 19.59C23.12 19.49 23.16 19.38 23.16 19.25L23.16 14.99C23.17 14.81 23.11 14.64 23 14.49L13.89 1.49C13.51 0.97 12.99 0.56 12.4 0.3C11.81 0.04 11.16 -0.07 10.52 -0.01L0.61 -0.01C0.44 -0.01 0.29 0.06 0.17 0.17C0.06 0.29 0 0.44 0 0.6L0 31.6C0 31.77 0.06 31.92 0.17 32.04C0.29 32.15 0.44 32.21 0.61 32.21L9.11 32.21C9.27 32.21 9.42 32.15 9.54 32.04C9.65 31.92 9.71 31.77 9.71 31.6L9.71 28.8C9.71 28.64 9.65 28.49 9.54 28.37C9.42 28.26 9.27 28.19 9.11 28.19L4.62 28.19C4.54 28.2 4.45 28.18 4.38 28.15C4.3 28.12 4.22 28.07 4.17 28.01C4.11 27.95 4.06 27.88 4.03 27.8C4 27.72 3.99 27.63 4 27.54Z" fill="#CC0000" fill-opacity="1.000000" fill-rule="nonzero"/>
	</g>
</svg>
