<svg width="155.000000" height="31.000000" viewBox="0 0 155 31" fill="none" xmlns="http://www.w3.org/2000/svg" xmlns:xlink="http://www.w3.org/1999/xlink">
	<desc>
			Created with Pixso.
	</desc>
	<defs>
		<clipPath id="clip156_4041">
			<rect id="logo.7ad9346a 2" rx="0.000000" width="154.000000" height="30.000000" transform="translate(0.500000 0.500000)" fill="white" fill-opacity="0"/>
		</clipPath>
	</defs>
	<rect id="logo.7ad9346a 2" rx="0.000000" width="154.000000" height="30.000000" transform="translate(0.500000 0.500000)" fill="#FFFFFF" fill-opacity="0"/>
	<g clip-path="url(#clip156_4041)">
		<path id="Vector" d="M0 10.62C0 6.9 0 5.04 0.71 3.62C1.33 2.37 2.33 1.36 3.56 0.72C4.96 0 6.79 0 10.44 0L20.02 0C23.68 0 25.5 0 26.9 0.72C28.13 1.36 29.13 2.37 29.76 3.62C30.47 5.04 30.47 6.9 30.47 10.62L30.47 20.37C30.47 24.09 30.47 25.95 29.76 27.37C29.13 28.62 28.13 29.63 26.9 30.27C25.5 31 23.68 31 20.02 31L10.44 31C6.79 31 4.96 31 3.56 30.27C2.33 29.63 1.33 28.62 0.71 27.37C0 25.95 0 24.09 0 20.37L0 10.62Z" fill="#FFB401" fill-opacity="1.000000" fill-rule="nonzero"/>
		<path id="Vector" d="M5.61 5.13C6.62 3.81 8.16 2.95 10.14 2.95C12.58 2.95 14.11 4.06 15.23 5.14C16.36 4.06 17.89 2.95 20.33 2.95C22.31 2.95 23.84 3.81 24.86 5.13C25.85 6.42 26.32 8.12 26.32 9.8C26.32 13.83 23.16 16.81 20.08 19.09L15.88 22.26C15.11 22.84 14.92 23.92 15.43 24.74C16 25.63 17.18 25.86 18.03 25.24L21.97 22.33L23.01 23.79L19.07 26.7C17.4 27.94 15.05 27.48 13.94 25.71C12.92 24.1 13.3 21.95 14.82 20.81L19.03 17.63L19.03 17.62C22.14 15.34 24.54 12.84 24.54 9.8C24.54 8.43 24.16 7.16 23.46 6.24C22.77 5.35 21.75 4.76 20.33 4.76C18.17 4.76 17 5.87 15.87 7.04C15.7 7.21 15.47 7.31 15.23 7.31C14.99 7.31 14.77 7.21 14.6 7.04C13.47 5.87 12.3 4.76 10.13 4.76C8.71 4.76 7.69 5.35 7.01 6.24C6.31 7.16 5.92 8.43 5.92 9.8C5.92 12.75 8.24 15.52 11.21 17.61C11.61 17.9 11.71 18.46 11.43 18.87C11.15 19.28 10.6 19.38 10.19 19.1C7.12 16.93 4.15 13.68 4.15 9.8C4.15 8.12 4.61 6.42 5.61 5.13Z" fill="#FFFFFF" fill-opacity="1.000000" fill-rule="nonzero"/>
		<path id="Vector" d="M11.94 8.72C11.94 8.65 12 8.59 12.07 8.59L13.59 8.59C13.66 8.59 13.72 8.65 13.72 8.72L13.72 11.14C13.72 11.21 13.78 11.27 13.85 11.27L16.62 11.27C16.69 11.27 16.75 11.21 16.75 11.14L16.75 8.72C16.75 8.65 16.81 8.59 16.88 8.59L18.4 8.59C18.47 8.59 18.53 8.65 18.53 8.72L18.53 15.63C18.53 15.7 18.47 15.76 18.4 15.76L16.88 15.76C16.81 15.76 16.75 15.7 16.75 15.63L16.75 13.21C16.75 13.13 16.69 13.08 16.62 13.08L13.85 13.08C13.78 13.08 13.72 13.13 13.72 13.21L13.72 15.63C13.72 15.7 13.66 15.76 13.59 15.76L12.07 15.76C12 15.76 11.94 15.7 11.94 15.63L11.94 8.72Z" fill="#FFFFFF" fill-opacity="1.000000" fill-rule="nonzero"/>
		<path id="Vector" d="M24.56 20.41C23.99 20.41 23.52 20.88 23.52 21.46C23.52 22.05 23.99 22.52 24.56 22.52C25.13 22.52 25.6 22.04 25.6 21.46C25.6 20.88 25.13 20.41 24.56 20.41ZM21.74 21.46C21.74 19.88 23.01 18.6 24.56 18.6C26.12 18.6 27.38 19.88 27.38 21.46C27.38 23.04 26.12 24.33 24.56 24.33C23.01 24.33 21.74 23.04 21.74 21.46Z" fill="#FFFFFF" fill-opacity="1.000000" fill-rule="nonzero"/>
		<path id="Vector" d="M38.24 21.2L38.24 8.08L39.7 8.08L39.7 13.91L47.14 13.91L47.14 8.08L48.6 8.08L48.6 21.2L47.14 21.2L47.14 15.3L39.7 15.3L39.7 21.2L38.24 21.2Z" fill="#000000" fill-opacity="1.000000" fill-rule="nonzero"/>
		<path id="Vector" d="M54.84 21.41C53.87 21.41 53.04 21.14 52.34 20.61C51.64 20.07 51.29 19.32 51.29 18.35C51.29 17.34 51.65 16.56 52.39 16.01C53.13 15.46 54.12 15.19 55.36 15.19C56.34 15.19 57.31 15.32 58.27 15.6L58.27 15.3C58.27 14.45 58.03 13.8 57.53 13.35C57.04 12.9 56.35 12.67 55.45 12.67C54.52 12.67 53.55 12.91 52.56 13.37L52.13 12.19C53.31 11.64 54.47 11.36 55.6 11.36C56.95 11.36 57.98 11.72 58.68 12.43C59.34 13.11 59.67 14.06 59.67 15.28L59.67 21.21L58.27 21.21L58.27 19.76C57.42 20.86 56.28 21.41 54.84 21.41ZM55.12 20.25C56 20.25 56.75 20.01 57.37 19.52C57.98 19.03 58.29 18.41 58.29 17.65L58.29 16.74C57.36 16.47 56.43 16.33 55.51 16.33C54.63 16.33 53.95 16.51 53.46 16.87C52.97 17.22 52.73 17.71 52.73 18.32C52.73 18.91 52.96 19.38 53.42 19.73C53.88 20.07 54.44 20.25 55.12 20.25Z" fill="#000000" fill-opacity="1.000000" fill-rule="nonzero"/>
		<path id="Vector" d="M62.64 21.2L62.64 8.08L73.4 8.08L73.4 21.2L70.56 21.2L70.56 10.69L65.48 10.69L65.48 21.2L62.64 21.2Z" fill="#000000" fill-opacity="1.000000" fill-rule="nonzero"/>
		<path id="Vector" d="M84.87 19.91C83.84 20.92 82.57 21.43 81.05 21.43C79.52 21.43 78.25 20.92 77.24 19.92C76.23 18.91 75.72 17.67 75.72 16.2C75.72 14.74 76.23 13.5 77.26 12.49C78.29 11.47 79.56 10.97 81.08 10.97C82.61 10.97 83.88 11.47 84.89 12.48C85.9 13.48 86.41 14.72 86.41 16.2C86.41 17.66 85.9 18.9 84.87 19.91ZM81.08 18.97C81.86 18.97 82.48 18.71 82.94 18.18C83.41 17.65 83.64 16.99 83.64 16.2C83.64 15.44 83.4 14.78 82.92 14.24C82.43 13.7 81.81 13.42 81.05 13.42C80.27 13.42 79.65 13.69 79.18 14.22C78.72 14.75 78.48 15.41 78.48 16.2C78.48 16.96 78.73 17.62 79.21 18.16C79.7 18.7 80.32 18.97 81.08 18.97Z" fill="#000000" fill-opacity="1.000000" fill-rule="nonzero"/>
		<path id="Vector" d="M97.41 11.16L97.41 21.2L94.61 21.2L94.61 13.59L91.24 13.59L91.24 21.2L88.44 21.2L88.44 11.16L97.41 11.16Z" fill="#000000" fill-opacity="1.000000" fill-rule="nonzero"/>
		<path id="Vector" d="M99.91 24.21L99.91 11.16L102.71 11.16L102.71 12.6C103.5 11.51 104.53 10.97 105.79 10.97C107.02 10.97 108.08 11.44 108.96 12.37C109.85 13.31 110.29 14.58 110.29 16.2C110.29 17.8 109.85 19.06 108.97 19.99C108.09 20.92 107.03 21.39 105.79 21.39C104.56 21.39 103.54 20.89 102.71 19.89L102.71 24.2L99.91 24.21ZM103.37 18.2C103.83 18.72 104.4 18.97 105.07 18.97C105.75 18.97 106.32 18.72 106.79 18.2C107.26 17.68 107.49 17 107.49 16.16C107.49 15.35 107.26 14.69 106.79 14.17C106.32 13.65 105.75 13.39 105.07 13.39C104.4 13.39 103.83 13.65 103.37 14.17C102.91 14.69 102.68 15.36 102.68 16.2C102.68 17.01 102.91 17.68 103.37 18.2Z" fill="#000000" fill-opacity="1.000000" fill-rule="nonzero"/>
		<path id="Vector" d="M115.15 21.39C114.18 21.39 113.38 21.12 112.73 20.57C112.09 20.02 111.76 19.26 111.76 18.28C111.76 17.22 112.12 16.42 112.84 15.88C113.56 15.34 114.53 15.08 115.74 15.08C116.57 15.08 117.37 15.21 118.16 15.49L118.16 15.32C118.16 14.1 117.45 13.48 116.04 13.48C115.19 13.48 114.28 13.66 113.31 14.03L112.61 11.85C113.82 11.31 115.09 11.04 116.44 11.04C117.93 11.04 119.04 11.42 119.78 12.17C120.49 12.9 120.85 13.96 120.85 15.38L120.85 21.21L118.14 21.21L118.14 20.12C117.39 20.97 116.39 21.39 115.15 21.39ZM116 19.42C116.65 19.42 117.18 19.26 117.59 18.93C117.99 18.6 118.19 18.17 118.19 17.66L118.19 17.16C117.67 16.91 117.07 16.78 116.41 16.78C115.79 16.78 115.32 16.9 114.98 17.15C114.64 17.39 114.47 17.74 114.47 18.21C114.47 18.58 114.61 18.88 114.89 19.1C115.18 19.32 115.55 19.42 116 19.42Z" fill="#000000" fill-opacity="1.000000" fill-rule="nonzero"/>
		<path id="Vector" d="M123.26 11.16L128.68 11.16C129.69 11.16 130.49 11.38 131.08 11.83C131.68 12.28 131.98 12.89 131.98 13.67C131.98 14.72 131.46 15.47 130.41 15.94C131.7 16.34 132.35 17.18 132.35 18.47C132.35 19.32 132.02 19.99 131.36 20.47C130.71 20.96 129.8 21.2 128.66 21.2L123.26 21.2L123.26 11.16ZM128 15.19C128.38 15.19 128.67 15.09 128.87 14.91C129.08 14.72 129.18 14.47 129.18 14.17C129.18 13.91 129.08 13.69 128.89 13.52C128.7 13.35 128.41 13.26 128.03 13.26L126.03 13.26L126.03 15.19L128 15.19ZM126.03 18.97L128.24 18.97C129.09 18.97 129.51 18.64 129.51 17.96C129.51 17.31 129.06 16.99 128.16 16.99L126.03 16.99L126.03 18.97Z" fill="#000000" fill-opacity="1.000000" fill-rule="nonzero"/>
		<path id="Vector" d="M134.32 21.2L134.32 11.16L137.12 11.16L137.12 15.28L140.66 11.16L143.88 11.16L140.25 15.28L144.34 21.2L141.03 21.2L138.39 17.38L137.12 18.79L137.12 21.2L134.32 21.2Z" fill="#000000" fill-opacity="1.000000" fill-rule="nonzero"/>
		<path id="Vector" d="M147.93 24.26C147.05 24.26 146.22 24.03 145.45 23.57L146.39 21.5C146.82 21.77 147.22 21.9 147.59 21.9C148.03 21.9 148.35 21.68 148.56 21.24L144.69 11.16L147.66 11.16L149.91 18L152.06 11.16L154.97 11.16L151.17 21.45C150.79 22.49 150.37 23.21 149.89 23.63C149.41 24.05 148.76 24.26 147.93 24.26Z" fill="#000000" fill-opacity="1.000000" fill-rule="nonzero"/>
	</g>
</svg>
