<svg width="115.000000" height="23.000000" viewBox="0 0 115 23" fill="none" xmlns="http://www.w3.org/2000/svg" xmlns:xlink="http://www.w3.org/1999/xlink">
	<desc>
			Created with Pixso.
	</desc>
	<defs>
		<clipPath id="clip156_4048">
			<rect id="logo.7ad9346a 2" rx="0.000000" width="114.000000" height="22.000000" transform="translate(0.500000 0.500000)" fill="white" fill-opacity="0"/>
		</clipPath>
		<linearGradient x1="8894.705078" y1="1078.842285" x2="2508.364746" y2="1078.842285" id="paint_linear_8_431_0" gradientUnits="userSpaceOnUse">
			<stop stop-color="#6339F5"/>
			<stop offset="1.000000" stop-color="#3D3F55"/>
		</linearGradient>
	</defs>
	<rect id="logo.7ad9346a 2" rx="0.000000" width="114.000000" height="22.000000" transform="translate(0.500000 0.500000)" fill="#FFFFFF" fill-opacity="0"/>
	<g clip-path="url(#clip156_4048)">
		<path id="Vector" d="M1 1.43L24.95 1.43C25.51 1.43 25.96 1.78 25.96 2.21L25.96 5.86C25.96 6.35 25.69 6.81 25.22 7.12L11.82 15.81L24.95 15.81C25.51 15.81 25.96 16.15 25.96 16.58L25.96 20.77C25.96 21.21 25.51 21.56 24.95 21.56L1 21.56C0.45 21.56 0 21.21 0 20.77L0 17.13C0 16.64 0.27 16.18 0.74 15.87L14.13 7.18L1 7.18C0.45 7.18 0 6.82 0 6.39L0 2.21C0 1.78 0.45 1.43 1 1.43ZM42.66 0.71C45.43 0.71 47.89 1.2 49.96 2.08C52.02 2.96 53.67 4.24 54.81 5.84C55.95 7.44 56.57 9.35 56.57 11.5C56.57 13.64 55.95 15.55 54.81 17.15C53.67 18.75 52.02 20.03 49.96 20.91C47.89 21.79 45.43 22.28 42.66 22.28C39.89 22.28 37.42 21.79 35.36 20.91C33.3 20.03 31.64 18.75 30.51 17.15C29.37 15.55 28.75 13.64 28.75 11.5C28.75 9.35 29.37 7.44 30.51 5.84C31.64 4.24 33.3 2.96 35.36 2.08C37.42 1.2 39.89 0.71 42.66 0.71ZM42.66 6.46C41.33 6.46 40.17 6.68 39.21 7.08C38.25 7.49 37.48 8.08 36.96 8.82C36.44 9.57 36.16 10.47 36.16 11.5C36.16 12.52 36.44 13.42 36.96 14.17C37.48 14.91 38.25 15.5 39.21 15.91C40.17 16.31 41.33 16.53 42.66 16.53C43.98 16.53 45.14 16.31 46.11 15.91C47.07 15.5 47.83 14.91 48.35 14.17C48.87 13.42 49.15 12.52 49.15 11.5C49.15 10.47 48.87 9.57 48.35 8.82C47.83 8.08 47.07 7.49 46.11 7.08C45.14 6.68 43.98 6.46 42.66 6.46ZM72.33 0.71C75.1 0.71 77.57 1.2 79.63 2.08C81.69 2.96 83.35 4.24 84.48 5.84C85.62 7.44 86.25 9.35 86.25 11.5C86.25 13.64 85.62 15.55 84.48 17.15C83.35 18.75 81.69 20.03 79.63 20.91C77.57 21.79 75.1 22.28 72.33 22.28C69.56 22.28 67.1 21.79 65.04 20.91C62.97 20.03 61.32 18.75 60.18 17.15C59.05 15.55 58.42 13.64 58.42 11.5C58.42 9.35 59.05 7.44 60.18 5.84C61.32 4.24 62.97 2.96 65.04 2.08C67.1 1.2 69.56 0.71 72.33 0.71ZM72.33 6.46C71.01 6.46 69.85 6.68 68.88 7.08C67.92 7.49 67.16 8.08 66.64 8.82C66.12 9.57 65.84 10.47 65.84 11.5C65.84 12.52 66.12 13.42 66.64 14.17C67.16 14.91 67.92 15.5 68.88 15.91C69.85 16.31 71.01 16.53 72.33 16.53C73.66 16.53 74.82 16.31 75.78 15.91C76.74 15.5 77.51 14.91 78.03 14.17C78.55 13.42 78.83 12.52 78.83 11.5C78.83 10.47 78.55 9.57 78.03 8.82C77.51 8.08 76.74 7.49 75.78 7.08C74.82 6.68 73.66 6.46 72.33 6.46ZM115 2.21L115 20.77C115 21.21 114.55 21.56 113.99 21.56L109.28 21.56C108.66 21.56 108.06 21.35 107.65 20.98L96.45 10.6L96.45 20.77C96.45 21.21 95.98 21.56 95.43 21.56L90.03 21.56C89.48 21.56 89.02 21.21 89.02 20.77L89.02 2.21C89.02 1.78 89.48 1.43 90.03 1.43L94.74 1.43C95.37 1.43 95.96 1.64 96.37 2.01L107.58 12.39L107.58 2.21C107.58 1.78 108.02 1.43 108.58 1.43L113.99 1.43C114.55 1.43 115 1.78 115 2.21Z" fill="url(#paint_linear_8_431_0)" fill-opacity="1.000000" fill-rule="nonzero"/>
	</g>
</svg>
