<svg width="50.000000" height="50.000000" viewBox="0 0 50 50" fill="none" xmlns="http://www.w3.org/2000/svg" xmlns:xlink="http://www.w3.org/1999/xlink">
	<desc>
			Created with Pixso.
	</desc>
	<defs/>
	<path id="Vector" d="M16 0L34 0C42.83 0 50 7.16 50 16L50 34C50 42.83 42.83 50 34 50L16 50C7.16 50 0 42.83 0 34L0 16C0 7.16 7.16 0 16 0Z" fill="#FFFFFF" fill-opacity="1.000000" fill-rule="evenodd"/>
	<path id="Vector" d="M24.99 6C21.99 5.99 19.05 6.89 16.55 8.56C14.05 10.23 12.1 12.6 10.95 15.38C9.8 18.16 9.5 21.21 10.08 24.16C10.67 27.11 12.12 29.82 14.24 31.95C16.99 34.7 23.48 38.67 23.85 42.86C23.91 43.49 24.36 44 24.99 44C25.62 44 26.07 43.49 26.13 42.86C26.51 38.67 32.99 34.7 35.74 31.95C37.87 29.82 39.32 27.11 39.91 24.16C40.49 21.21 40.19 18.16 39.04 15.38C37.89 12.6 35.94 10.23 33.44 8.56C30.94 6.89 28 5.99 24.99 6Z" fill="#FF4433" fill-opacity="1.000000" fill-rule="nonzero"/>
	<path id="Vector" d="M25 26.51C26.41 26.51 27.76 25.95 28.76 24.96C29.75 23.96 30.32 22.61 30.32 21.2C30.32 19.78 29.75 18.43 28.76 17.43C27.76 16.44 26.41 15.87 25 15.87C23.58 15.87 22.23 16.44 21.23 17.43C20.24 18.43 19.68 19.78 19.68 21.2C19.68 22.61 20.24 23.96 21.23 24.96C22.23 25.95 23.58 26.51 25 26.51Z" fill="#FFFFFF" fill-opacity="1.000000" fill-rule="nonzero"/>
	<path id="Vector" d="M34 1L16 1C12.02 1 8.2 2.58 5.39 5.39C2.58 8.2 1 12.02 1 16L1 34C1 37.97 2.58 41.79 5.39 44.6C8.2 47.41 12.02 49 16 49L34 49C37.97 49 41.79 47.41 44.6 44.6C47.41 41.79 49 37.97 49 34L49 16C49 12.02 47.41 8.2 44.6 5.39C41.79 2.58 37.97 1 34 1ZM16 0C11.75 0 7.68 1.68 4.68 4.68C1.68 7.68 0 11.75 0 16L0 34C0 38.24 1.68 42.31 4.68 45.31C7.68 48.31 11.75 50 16 50L34 50C38.24 50 42.31 48.31 45.31 45.31C48.31 42.31 50 38.24 50 34L50 16C50 11.75 48.31 7.68 45.31 4.68C42.31 1.68 38.24 0 34 0L16 0Z" fill="#000000" fill-opacity="0.120000" fill-rule="evenodd"/>
</svg>
