<svg width="132.000000" height="37.000000" viewBox="0 0 132 37" fill="none" xmlns="http://www.w3.org/2000/svg" xmlns:xlink="http://www.w3.org/1999/xlink">
	<desc>
			Created with Pixso.
	</desc>
	<defs>
		<clipPath id="clip156_4066">
			<rect id="Логотип_2ГИС 2" rx="0.000000" width="131.000000" height="36.000000" transform="translate(0.500000 0.500000)" fill="white" fill-opacity="0"/>
		</clipPath>
	</defs>
	<rect id="Логотип_2ГИС 2" rx="0.000000" width="131.000000" height="36.000000" transform="translate(0.500000 0.500000)" fill="#FFFFFF" fill-opacity="0"/>
	<g clip-path="url(#clip156_4066)">
		<mask id="mask8_560" mask-type="alpha" maskUnits="userSpaceOnUse" x="0.000000" y="0.000000" width="37.290283" height="37.056885">
			<path id="path1623" d="M9.26 0.01L10.86 0L27.45 0C27.71 0 27.86 0.01 28.02 0.01C28.84 0.03 29.67 0.08 30.49 0.23C31.3 0.36 32.09 0.62 32.83 0.98C33.57 1.35 34.24 1.83 34.83 2.41C35.41 2.98 35.9 3.64 36.28 4.37C36.66 5.11 36.9 5.86 37.05 6.67C37.2 7.47 37.24 8.29 37.27 9.1C37.28 9.47 37.28 9.84 37.28 10.21L37.29 10.87L37.29 25.51C37.29 25.95 37.29 26.39 37.28 26.83C37.28 27.21 37.28 27.58 37.27 27.95C37.24 28.75 37.2 29.57 37.05 30.37C36.91 31.17 36.65 31.95 36.28 32.67C35.9 33.4 35.41 34.06 34.83 34.64C34.24 35.21 33.57 35.69 32.83 36.06C32.09 36.43 31.3 36.68 30.49 36.82C29.67 36.96 28.84 37.01 28.02 37.03L25.54 37.05L9.83 37.04C9.64 37.04 9.45 37.04 9.26 37.03C8.44 37.01 7.61 36.96 6.8 36.82C5.98 36.68 5.19 36.43 4.45 36.06C2.97 35.32 1.77 34.14 1 32.67C0.63 31.95 0.37 31.17 0.23 30.37C0.08 29.57 0.04 28.75 0.02 27.95C0 27.58 0 27.21 0 26.83L0 26.17L0 11.53C0 11.09 0 10.65 0 10.21C0 9.84 0.01 9.47 0.02 9.1C0.04 8.29 0.09 7.47 0.23 6.68C0.37 5.87 0.63 5.1 1 4.37C1.77 2.91 2.97 1.72 4.45 0.98C5.19 0.62 5.98 0.36 6.8 0.23C7.61 0.08 8.44 0.03 9.26 0.01Z" fill="#FFFFFF" fill-opacity="1.000000" fill-rule="evenodd"/>
		</mask>
		<g mask="url(#mask8_560)">
			<path id="path1626" d="M0 -0.01L37.23 -0.01L37.23 37L0 37L0 -0.01Z" fill="#19AA1E" fill-opacity="1.000000" fill-rule="nonzero"/>
			<path id="path1628" d="M0 -0.01L37.23 -0.01L37.23 12.13L0 6.35L0 -0.01Z" fill="#FFB919" fill-opacity="1.000000" fill-rule="evenodd"/>
			<path id="path1630" d="M0 32.95L37.23 27.17L37.23 37L0 37L0 32.95Z" fill="#82D714" fill-opacity="1.000000" fill-rule="evenodd"/>
			<path id="path1632" d="M0 5.62L12.99 7.64C14.61 6.62 16.53 6.06 18.61 6.06C21.49 6.06 24.07 7.13 25.96 9.01C26.19 9.25 26.42 9.5 26.63 9.76L37.23 11.4L37.23 12.87L27.7 11.39C28.42 12.74 28.79 14.25 28.79 15.77C28.79 17.76 28.35 19.73 27.42 21.72L27.4 21.78L27 22.61L26.08 22.61C24.17 22.61 22.9 23.18 22.07 24.19C21.42 24.98 21.04 26.05 20.91 27.21L20.91 27.25L20.89 27.43L20.88 27.51L20.87 27.67C20.82 28.19 20.79 28.63 20.77 28.99L37.23 26.43L37.23 27.9L0 33.68L0 32.22L16.47 29.66L16.47 29.33L16.46 29.24L16.46 29.19L16.46 29.12C16.44 28.72 16.41 28.21 16.35 27.59L16.34 27.47L16.32 27.27C16.2 26.1 15.83 25.02 15.18 24.22C14.36 23.2 13.1 22.62 11.2 22.61L10.22 22.61L9.83 21.78C8.89 19.77 8.43 17.78 8.43 15.77C8.43 13.26 9.46 10.82 11.27 9.01L11.43 8.86L0 7.08L0 5.62Z" fill="#FFFFFF" fill-opacity="1.000000" fill-rule="evenodd"/>
			<path id="path1634" d="M18.61 7.51C23.81 7.51 27.34 11.48 27.34 15.77C27.34 17.5 26.96 19.29 26.08 21.17C20.96 21.17 19.7 24.81 19.46 27.1L19.45 27.25C19.37 28.07 19.32 28.72 19.31 29.22L17.92 29.43L17.92 29.39C17.9 28.66 17.85 27.93 17.77 27.21L17.77 27.17C17.55 24.88 16.31 21.17 11.15 21.17C10.26 19.29 9.88 17.5 9.88 15.77C9.88 11.48 13.41 7.51 18.61 7.51Z" fill="#0073FA" fill-opacity="1.000000" fill-rule="evenodd"/>
		</g>
		<path id="path1638" d="M55.12 6.72C49.39 6.72 45.09 10.11 45.12 16L50.45 16C50.38 13.64 51.92 11.36 55.12 11.36C57.55 11.36 59.09 12.93 59.09 14.93C59.09 17 57.4 18.14 54.68 19.42C51.12 21.1 48.98 21.88 45.12 23.13L45.12 29.91L64.98 29.91L64.98 25.27L52.33 25.27C54.17 24.53 55.97 23.71 57.59 22.95C61.89 20.96 64.42 18.71 64.42 14.68C64.42 9.83 60.67 6.72 55.12 6.72ZM73.06 11.72L83.36 11.72L83.36 7.08L67.92 7.08L67.92 29.91L73.06 29.91L73.06 11.72ZM91.45 7.08L86.3 7.08L86.3 29.91L91.41 29.91L101 15.32L101 29.91L106.15 29.91L106.15 7.08L101 7.08L91.45 21.67L91.45 7.08ZM132 21.35L126.66 21.35C125.86 23.88 123.39 25.63 120.49 25.63C116.26 25.63 113.5 22.1 113.5 18.5C113.5 14.89 116.19 11.36 120.64 11.36C123.58 11.36 125.86 13.11 126.66 15.64L132 15.64C131.22 10.54 127.07 6.72 120.49 6.72C113.21 6.72 108.36 11.68 108.36 18.5C108.36 25.31 113.21 30.27 120.49 30.27C127.07 30.27 131.22 26.52 132 21.35Z" fill="#262626" fill-opacity="1.000000" fill-rule="evenodd"/>
	</g>
</svg>
