<svg width="872.400146" height="500.399902" viewBox="0 0 872.4 500.4" fill="none" xmlns="http://www.w3.org/2000/svg" xmlns:xlink="http://www.w3.org/1999/xlink">
	<desc>
			Created with Pixso.
	</desc>
	<defs>
		<filter id="filter_220_11828_dd" x="0.000000" y="0.000000" width="872.400146" height="500.399902" filterUnits="userSpaceOnUse" color-interpolation-filters="sRGB">
			<feFlood flood-opacity="0" result="BackgroundImageFix"/>
			<feBlend mode="normal" in="SourceGraphic" in2="BackgroundImageFix" result="shape"/>
			<feGaussianBlur stdDeviation="21.2333" result="effect_layerBlur_1"/>
		</filter>
	</defs>
	<g filter="url(#filter_220_11828_dd)">
		<path id="Ellipse 14" d="M808.7 436.7C808.7 337.77 769.45 242.9 699.59 172.94C629.74 102.99 534.99 63.7 436.2 63.7C337.4 63.7 242.66 102.99 172.8 172.94C102.94 242.9 63.7 337.77 63.7 436.7L808.7 436.7Z" fill="#93DCE7" fill-opacity="0.200000" fill-rule="nonzero"/>
	</g>
	<path id="Ellipse 7" d="M728.91 436.89C728.91 400.45 721.34 364.36 706.63 330.69C691.92 297.01 670.36 266.42 643.18 240.65C616 214.88 583.73 194.43 548.21 180.49C512.7 166.54 474.64 159.36 436.2 159.36C397.76 159.36 359.69 166.54 324.18 180.49C288.66 194.43 256.4 214.88 229.21 240.65C202.03 266.42 180.47 297.01 165.76 330.69C151.05 364.36 143.48 400.45 143.48 436.89L728.91 436.89Z" fill="#9FDBE3" fill-opacity="0.500000" fill-rule="nonzero"/>
	<path id="Ellipse 9" d="M772.7 436.89C772.7 394.98 763.99 353.47 747.08 314.74C730.17 276.01 705.38 240.83 674.14 211.19C642.89 181.55 605.79 158.03 564.97 141.99C524.14 125.95 480.39 117.7 436.2 117.7C392.01 117.7 348.25 125.95 307.42 141.99C266.6 158.03 229.5 181.55 198.25 211.19C167.01 240.83 142.22 276.01 125.31 314.74C108.4 353.47 99.7 394.98 99.7 436.89L772.7 436.89Z" fill="#9FDBE3" fill-opacity="0.200000" fill-rule="nonzero"/>
	<path id="Ellipse 8" d="M672.42 436.89C672.42 407.5 666.31 378.39 654.43 351.23C642.56 324.06 625.16 299.39 603.23 278.6C581.29 257.81 555.25 241.32 526.59 230.07C497.93 218.82 467.22 213.03 436.2 213.03C405.17 213.03 374.46 218.82 345.8 230.07C317.14 241.32 291.1 257.81 269.16 278.6C247.23 299.39 229.83 324.06 217.96 351.23C206.08 378.39 199.97 407.5 199.97 436.89L672.42 436.89Z" fill="#9FDBE3" fill-opacity="1.000000" fill-rule="nonzero"/>
</svg>
