<svg width="210.000000" height="110.000000" viewBox="0 0 210 110" fill="none" xmlns="http://www.w3.org/2000/svg" xmlns:xlink="http://www.w3.org/1999/xlink">
	<desc>
			Created with Pixso.
	</desc>
	<defs/>
	<mask id="mask107_42723" mask-type="alpha" maskUnits="userSpaceOnUse" x="0.000000" y="0.000000" width="210.000000" height="110.000000">
		<path id="Vector" d="M0 0L210 0L210 110L0 110L0 0Z" fill="#000000" fill-opacity="1.000000" fill-rule="evenodd"/>
	</mask>
	<g mask="url(#mask107_42723)">
		<path id="Vector" d="M170.15 66.59L170.17 54.98C165.99 56.91 155.58 58.74 155.69 51.24C155.83 41.94 168.72 47.07 169.93 47.27L169.93 35.89C168.29 34.59 162.68 33.88 160.1 33.87C149.59 33.87 141.39 38.98 141.28 51.24C141.1 72.59 166.67 69.35 170.14 66.59L170.15 66.59ZM139.38 66.39L139.38 54.98C135.28 56.85 124.78 58.81 124.9 51.24C124.95 47.79 126.86 46.12 130.11 45.76C134.3 45.31 135.93 46.58 139.15 47.29L139.15 35.89C137.52 34.55 131.75 33.85 129.12 33.87C118.67 33.97 110.44 39.13 110.5 51.44C110.56 63.75 119.11 68.49 129.52 68.61C131.34 68.64 133.17 68.47 134.96 68.1C135.93 67.89 138.91 67.32 139.39 66.4L139.38 66.39ZM108.09 67.77L94.4 67.77L94.69 56.8C93.89 57.63 93.15 58.63 92.35 59.63C90.35 62.14 87.79 65.48 85.8 67.77L75.35 67.77L75.35 34.71L89.04 34.73L88.76 45.67C89.94 44.52 97.91 34.72 97.95 34.71L108.08 34.71L108.08 67.78L108.09 67.77ZM39.8 67.77L53.49 67.77L53.49 57.15C54.39 57.25 54.19 57.5 55.28 59.5C56.03 60.91 60.02 67.77 60.02 67.77L74.63 67.77C74.04 66.28 65.67 51.78 65.48 51.1C65.48 51.1 72.75 37.3 73.68 34.71L59.16 34.71L55.56 43.03C55.08 44.15 54.79 45.44 53.52 45.51L53.52 34.71L39.82 34.71L39.8 67.77Z" fill="#FFFFFF" fill-opacity="1.000000" fill-rule="evenodd"/>
		<path id="Vector" d="M97.16 10.8C112.13 12.33 128 15.23 142.72 17.98C166.73 22.45 188.26 30.86 200.19 42.33C206.17 48.08 209.79 54.67 209.99 61.96C210.19 69.24 206.96 77.03 199.64 85.19C190.92 94.89 176.55 101.16 159.74 104.96C142.92 108.78 123.52 110.16 104.6 109.98C78.21 109.73 50.91 103.39 33.21 94.81C22.37 89.57 14.98 82.61 10.9 74.85C6.82 67.09 6.07 58.59 8.41 50.35C13.1 33.88 30.02 18.6 56.9 11.91C68.09 9.13 82.22 9.28 97.16 10.8ZM96.97 12.7C82.08 11.18 68.22 11.06 57.36 13.76C30.9 20.35 14.69 35.27 10.25 50.87C8.04 58.66 8.74 66.65 12.59 73.97C16.45 81.29 23.49 87.99 34.04 93.1C51.46 101.54 78.47 107.83 104.62 108.08C123.45 108.25 142.69 106.88 159.32 103.11C175.98 99.33 189.89 93.18 198.22 83.92C205.34 76 208.27 68.66 208.08 62.01C207.9 55.37 204.6 49.22 198.86 43.7C187.34 32.62 166.25 24.3 142.37 19.85C127.65 17.1 111.84 14.21 96.97 12.7Z" fill="#43CEE0" fill-opacity="1.000000" fill-rule="evenodd"/>
		<path id="Vector" d="M16.52 58.06C18.32 66.76 24.39 75.02 35.56 81.4C55.9 93.02 72.82 93.01 93.83 92.99C94.67 92.99 95.51 92.99 96.37 92.99C130.15 92.99 154.84 87.44 170.99 79.14C187.14 70.83 194.58 59.86 194.32 49.01C194.07 38.12 186.07 26.88 170.3 18.06C154.56 9.26 131.23 2.97 100.72 1.98C63.25 0.75 35.82 14.49 23.39 31.54C17.18 40.05 14.72 49.36 16.52 58.06ZM21.84 30.42C34.75 12.73 62.87 -1.16 100.78 0.07C131.5 1.08 155.16 7.41 171.24 16.4C187.3 25.38 195.95 37.12 196.23 48.96C196.51 60.83 188.36 72.34 171.86 80.83C155.35 89.32 130.33 94.89 96.37 94.89C95.48 94.89 94.61 94.89 93.74 94.89C72.78 94.91 55.4 94.93 34.61 83.06C23.08 76.47 16.58 67.79 14.65 58.44C12.72 49.11 15.39 39.27 21.84 30.42Z" fill="#60EAFC" fill-opacity="1.000000" fill-rule="evenodd"/>
		<path id="Vector" d="M178.59 11.79C189.95 16 198.35 24.14 202.11 38.22C205.01 49.08 203.99 59.03 199.28 67.79C194.58 76.53 186.27 83.99 174.73 89.98C152.17 101.69 120.5 106.04 90.34 103.66C60.2 101.29 31.34 92.19 14.5 76.77C10.01 72.64 5.94 67.16 3.27 61.24C0.6 55.33 -0.72 48.91 0.4 42.95C1.52 36.95 5.08 31.51 11.98 27.6C18.83 23.71 28.95 21.34 43.19 21.34C57.26 21.34 73.22 18.92 89.54 16.13C92.3 15.65 95.07 15.17 97.85 14.69C111.43 12.32 125.08 9.94 137.81 8.76C153.14 7.33 167.3 7.62 178.59 11.79ZM89.86 18C73.55 20.79 57.44 23.24 43.19 23.24C29.13 23.25 19.38 25.59 12.92 29.25C6.49 32.9 3.29 37.88 2.27 43.3C1.25 48.76 2.44 54.78 5.01 60.46C7.58 66.14 11.49 71.41 15.8 75.37C32.18 90.37 60.54 99.4 90.49 101.76C120.43 104.12 151.71 99.79 173.84 88.3C185.16 82.42 193.13 75.2 197.6 66.89C202.05 58.6 203.05 49.15 200.27 38.71C196.67 25.24 188.72 17.58 177.92 13.58C167.05 9.56 153.24 9.24 137.99 10.66C125.34 11.83 111.79 14.19 98.2 16.56C95.42 17.04 92.64 17.53 89.86 18Z" fill="#14A9BD" fill-opacity="1.000000" fill-rule="evenodd"/>
		<path id="Vector" d="M149.45 76.17C149.45 76.39 149.4 76.6 149.31 76.8C149.21 76.97 149.08 77.13 148.91 77.25C148.72 77.38 148.51 77.48 148.29 77.54C148.01 77.61 147.73 77.65 147.44 77.64C147.28 77.64 147.11 77.63 146.94 77.6C146.8 77.58 146.66 77.55 146.52 77.5C146.41 77.47 146.3 77.43 146.2 77.37C146.14 77.35 146.07 77.31 146.02 77.26C145.99 77.24 145.96 77.21 145.94 77.18C145.92 77.15 145.91 77.12 145.9 77.09C145.9 77.07 145.9 77.03 145.88 76.99C145.86 76.94 145.88 76.89 145.88 76.83C145.88 76.78 145.88 76.74 145.88 76.69C145.89 76.66 145.9 76.63 145.91 76.6C145.92 76.58 145.93 76.56 145.95 76.55C145.96 76.54 145.98 76.54 146 76.55C146.06 76.55 146.11 76.58 146.16 76.62C146.37 76.75 146.6 76.85 146.84 76.92C147.04 76.98 147.24 77 147.45 76.99C147.6 77 147.75 76.98 147.89 76.94C148.02 76.91 148.14 76.86 148.24 76.78C148.34 76.72 148.41 76.62 148.47 76.52C148.52 76.41 148.55 76.28 148.54 76.16C148.55 76.04 148.52 75.93 148.46 75.83C148.41 75.73 148.33 75.65 148.23 75.59C148.1 75.52 147.96 75.47 147.81 75.44C147.61 75.4 147.4 75.38 147.19 75.38L146.68 75.38C146.66 75.39 146.63 75.39 146.6 75.38C146.58 75.37 146.56 75.35 146.55 75.33C146.53 75.3 146.52 75.26 146.52 75.23C146.51 75.18 146.51 75.13 146.52 75.08C146.51 75.03 146.51 74.98 146.52 74.93C146.52 74.9 146.53 74.87 146.55 74.84C146.56 74.82 146.58 74.8 146.6 74.79C146.62 74.78 146.65 74.78 146.67 74.79L147.17 74.79C147.35 74.79 147.53 74.77 147.72 74.73C147.85 74.71 147.98 74.66 148.1 74.58C148.2 74.52 148.28 74.44 148.33 74.34C148.38 74.23 148.41 74.12 148.4 74.01C148.41 73.9 148.38 73.8 148.33 73.71C148.29 73.63 148.22 73.55 148.14 73.5C148.05 73.44 147.95 73.4 147.85 73.37C147.73 73.34 147.6 73.33 147.48 73.33C147.29 73.33 147.1 73.35 146.92 73.4C146.78 73.44 146.64 73.49 146.51 73.55C146.39 73.61 146.3 73.66 146.22 73.71C146.18 73.74 146.12 73.76 146.07 73.77C146.05 73.78 146.03 73.78 146.02 73.77C146 73.76 145.99 73.74 145.98 73.72C145.96 73.7 145.95 73.67 145.95 73.63C145.95 73.59 145.95 73.54 145.95 73.5C145.94 73.42 145.94 73.34 145.95 73.26C145.96 73.21 145.99 73.16 146.03 73.12C146.1 73.06 146.17 73.01 146.25 72.98C146.37 72.92 146.49 72.87 146.61 72.83C146.76 72.79 146.91 72.75 147.06 72.73C147.22 72.7 147.39 72.68 147.55 72.68C147.78 72.68 148.01 72.71 148.24 72.76C148.43 72.81 148.61 72.89 148.77 73C148.91 73.1 149.03 73.24 149.11 73.39C149.2 73.57 149.24 73.76 149.23 73.95C149.24 74.07 149.22 74.19 149.17 74.3C149.13 74.42 149.08 74.52 149 74.62C148.92 74.71 148.82 74.8 148.72 74.87C148.6 74.94 148.48 75 148.35 75.04C148.48 75.06 148.61 75.1 148.74 75.16C148.86 75.22 148.98 75.3 149.08 75.4C149.19 75.5 149.27 75.62 149.33 75.76C149.39 75.9 149.42 76.05 149.42 76.21L149.45 76.17ZM152.72 77.59L152.11 79.27C152.09 79.3 152.07 79.33 152.05 79.35C152.02 79.37 151.99 79.39 151.96 79.39C151.83 79.43 151.7 79.45 151.57 79.44C151.5 79.45 151.43 79.45 151.36 79.44C151.32 79.43 151.28 79.42 151.24 79.4C151.21 79.38 151.19 79.35 151.19 79.31C151.19 79.27 151.2 79.23 151.22 79.19L151.85 77.6C151.81 77.59 151.78 77.56 151.76 77.54C151.73 77.51 151.72 77.47 151.71 77.44L150.07 73.07C150.05 73.02 150.03 72.96 150.03 72.9C150.03 72.89 150.03 72.87 150.04 72.85C150.05 72.83 150.06 72.82 150.07 72.81C150.11 72.78 150.15 72.76 150.2 72.76L150.45 72.76L150.69 72.76C150.73 72.76 150.78 72.77 150.82 72.79C150.86 72.8 150.88 72.82 150.9 72.85C150.92 72.88 150.93 72.91 150.95 72.95L152.25 76.61L153.52 72.93C153.52 72.88 153.55 72.84 153.59 72.81C153.63 72.78 153.67 72.76 153.72 72.76L153.97 72.76L154.2 72.76C154.25 72.77 154.3 72.78 154.34 72.81C154.35 72.82 154.36 72.84 154.37 72.86C154.38 72.87 154.38 72.89 154.38 72.91C154.38 72.96 154.37 73.01 154.35 73.06L152.72 77.59ZM159.63 75.11C159.63 75.46 159.58 75.82 159.47 76.15C159.37 76.45 159.22 76.73 159.01 76.96C158.81 77.19 158.56 77.38 158.28 77.5C157.66 77.74 156.97 77.74 156.34 77.5C156.07 77.38 155.84 77.19 155.66 76.95C155.48 76.68 155.34 76.38 155.27 76.06C155.18 75.64 155.14 75.2 155.14 74.77C155.14 74.39 155.16 74.01 155.21 73.63C155.24 73.31 155.29 72.99 155.37 72.68C155.43 72.43 155.51 72.2 155.62 71.97C155.7 71.81 155.81 71.65 155.93 71.52C156.02 71.41 156.12 71.32 156.23 71.24C156.34 71.17 156.45 71.1 156.57 71.05C156.7 70.99 156.84 70.94 156.98 70.9C157.15 70.85 157.33 70.81 157.5 70.78L159.14 70.51C159.19 70.5 159.24 70.5 159.28 70.51C159.3 70.51 159.32 70.51 159.33 70.52C159.35 70.52 159.36 70.53 159.37 70.54C159.39 70.58 159.41 70.63 159.41 70.67C159.41 70.73 159.41 70.81 159.41 70.91C159.41 70.97 159.41 71.02 159.41 71.08C159.41 71.12 159.39 71.16 159.37 71.2C159.36 71.23 159.33 71.25 159.3 71.27C159.25 71.29 159.21 71.3 159.16 71.31L157.64 71.57C157.5 71.58 157.37 71.61 157.24 71.65C157.13 71.67 157.03 71.71 156.93 71.75C156.85 71.78 156.77 71.82 156.69 71.87C156.62 71.92 156.55 71.98 156.49 72.05C156.41 72.13 156.35 72.22 156.3 72.31C156.24 72.43 156.19 72.55 156.16 72.67C156.12 72.82 156.08 72.97 156.06 73.12C156.04 73.28 156.01 73.44 155.99 73.62C156.1 73.51 156.22 73.4 156.35 73.3C156.47 73.21 156.6 73.12 156.74 73.05C156.89 72.99 157.04 72.93 157.19 72.9C157.35 72.86 157.52 72.85 157.68 72.85C157.98 72.84 158.27 72.9 158.55 73.01C158.79 73.12 159 73.28 159.15 73.48C159.32 73.7 159.45 73.94 159.52 74.21C159.6 74.51 159.64 74.83 159.64 75.15L159.63 75.11ZM158.73 75.18C158.73 74.96 158.71 74.75 158.66 74.54C158.63 74.35 158.56 74.17 158.46 74C158.37 73.85 158.24 73.72 158.08 73.63C157.9 73.53 157.7 73.49 157.5 73.49C157.37 73.49 157.23 73.51 157.1 73.55C156.97 73.58 156.85 73.64 156.74 73.71C156.61 73.79 156.49 73.88 156.38 73.98C156.26 74.08 156.14 74.21 156 74.36C156 74.41 156 74.47 156 74.54L156 74.76C156 75.09 156.02 75.41 156.07 75.73C156.11 75.97 156.18 76.2 156.3 76.42C156.39 76.6 156.54 76.75 156.71 76.84C156.91 76.94 157.13 76.99 157.35 76.99C157.56 76.99 157.76 76.94 157.94 76.86C158.12 76.77 158.27 76.65 158.39 76.49C158.52 76.32 158.6 76.13 158.66 75.92C158.72 75.68 158.75 75.43 158.75 75.18L158.73 75.18ZM165.15 75.12C165.15 75.47 165.1 75.82 165 76.15C164.91 76.45 164.75 76.73 164.55 76.96C164.35 77.19 164.1 77.37 163.82 77.49C163.49 77.62 163.15 77.69 162.8 77.68C162.46 77.69 162.13 77.63 161.81 77.51C161.54 77.41 161.3 77.24 161.11 77.03C160.92 76.8 160.78 76.54 160.7 76.25C160.6 75.91 160.56 75.57 160.56 75.22C160.56 74.87 160.6 74.52 160.7 74.19C160.8 73.89 160.95 73.61 161.15 73.37C161.36 73.15 161.61 72.97 161.89 72.85C162.21 72.72 162.56 72.65 162.91 72.66C163.24 72.65 163.58 72.71 163.89 72.83C164.16 72.93 164.4 73.1 164.59 73.32C164.79 73.54 164.93 73.81 165.01 74.09C165.11 74.43 165.16 74.77 165.15 75.12L165.15 75.12ZM164.25 75.18C164.25 74.94 164.23 74.71 164.18 74.48C164.14 74.27 164.06 74.07 163.95 73.89C163.84 73.73 163.69 73.59 163.5 73.5C163.29 73.4 163.06 73.35 162.83 73.36C162.61 73.35 162.39 73.4 162.19 73.49C162.01 73.57 161.85 73.7 161.74 73.86C161.62 74.04 161.53 74.23 161.48 74.44C161.42 74.67 161.39 74.91 161.39 75.16C161.39 75.39 161.42 75.63 161.46 75.86C161.5 76.07 161.58 76.26 161.69 76.44C161.81 76.61 161.96 76.74 162.14 76.83C162.35 76.93 162.59 76.98 162.82 76.98C163.04 76.98 163.26 76.93 163.46 76.84C163.64 76.76 163.79 76.63 163.91 76.47C164.03 76.3 164.12 76.11 164.16 75.9C164.22 75.66 164.25 75.42 164.24 75.18L164.25 75.18ZM170.13 76.15C170.14 76.37 170.09 76.59 170 76.79C169.9 76.98 169.76 77.14 169.59 77.26C169.38 77.4 169.16 77.5 168.92 77.55C168.61 77.62 168.29 77.66 167.98 77.65L167.66 77.65L167.35 77.65L167.05 77.65C166.96 77.65 166.86 77.65 166.77 77.63C166.71 77.63 166.65 77.61 166.6 77.59C166.55 77.57 166.5 77.53 166.46 77.49C166.43 77.45 166.4 77.4 166.38 77.35C166.37 77.29 166.36 77.23 166.37 77.18L166.37 73.25C166.36 73.13 166.4 73.02 166.46 72.92C166.54 72.84 166.64 72.8 166.75 72.79L167.04 72.77L167.34 72.77L167.67 72.77L168.01 72.77C168.3 72.76 168.58 72.79 168.86 72.85C169.08 72.89 169.28 72.97 169.47 73.09C169.62 73.18 169.74 73.31 169.82 73.47C169.9 73.64 169.94 73.81 169.94 73.99C169.94 74.23 169.87 74.46 169.73 74.66C169.57 74.85 169.36 74.98 169.12 75.05C169.41 75.09 169.68 75.24 169.88 75.45C170.05 75.67 170.14 75.94 170.13 76.22L170.13 76.15ZM169.16 74.01C169.17 73.9 169.14 73.8 169.1 73.71C169.06 73.62 168.99 73.54 168.9 73.49C168.79 73.42 168.66 73.37 168.54 73.35C168.36 73.31 168.18 73.3 168 73.3C167.84 73.3 167.69 73.3 167.55 73.3L167.21 73.33L167.21 74.75L168.07 74.75C168.35 74.76 168.63 74.7 168.87 74.55C168.96 74.49 169.04 74.41 169.08 74.31C169.13 74.21 169.16 74.1 169.15 73.99L169.16 74.01ZM169.31 76.14C169.31 76.01 169.29 75.89 169.24 75.78C169.19 75.67 169.11 75.59 169.01 75.52C168.89 75.45 168.75 75.4 168.61 75.37C168.42 75.33 168.23 75.32 168.04 75.32L167.22 75.32L167.22 76.94L167.43 76.96L167.64 76.96L167.86 76.96L168.06 76.96C168.25 76.97 168.44 76.95 168.62 76.9C168.76 76.87 168.89 76.82 169.01 76.73C169.11 76.67 169.19 76.57 169.24 76.47C169.28 76.36 169.31 76.25 169.31 76.14L169.31 76.14Z" fill="#FFFFFF" fill-opacity="1.000000" fill-rule="evenodd"/>
		<path id="Vector" d="M44.54 79.12L44.54 77.06C44.55 77 44.53 76.95 44.5 76.9C44.48 76.88 44.45 76.87 44.42 76.86C44.39 76.85 44.36 76.85 44.33 76.85L43.7 76.85L43.7 72.87C43.7 72.85 43.7 72.82 43.7 72.8C43.68 72.78 43.66 72.76 43.63 72.75C43.59 72.74 43.55 72.72 43.5 72.72L43.09 72.72C43.05 72.72 43.01 72.74 42.96 72.75C42.94 72.77 42.92 72.78 42.9 72.8C42.88 72.82 42.87 72.85 42.87 72.87L42.87 76.85L40.68 76.85L40.68 72.87C40.69 72.85 40.69 72.82 40.68 72.8C40.66 72.78 40.64 72.77 40.61 72.75C40.57 72.73 40.53 72.72 40.48 72.72L40.07 72.72C40.03 72.72 39.98 72.74 39.94 72.75C39.92 72.77 39.89 72.78 39.87 72.8C39.87 72.82 39.87 72.85 39.87 72.87L39.87 77.28C39.87 77.32 39.87 77.35 39.89 77.39C39.9 77.43 39.92 77.47 39.95 77.5C39.97 77.52 40 77.54 40.03 77.55C40.06 77.57 40.1 77.57 40.13 77.57L43.89 77.57L43.89 79.12C43.89 79.16 43.92 79.18 43.98 79.2C44.06 79.23 44.16 79.24 44.25 79.23C44.34 79.24 44.42 79.23 44.51 79.21C44.57 79.21 44.6 79.16 44.6 79.12L44.54 79.12ZM60.17 72.87L60.17 79.26C60.16 79.28 60.16 79.31 60.17 79.33C60.18 79.35 60.21 79.37 60.24 79.38C60.28 79.4 60.32 79.41 60.37 79.41L60.57 79.41L60.78 79.41C60.82 79.41 60.87 79.4 60.91 79.38C60.94 79.37 60.96 79.35 60.98 79.33C60.98 79.31 60.98 79.28 60.98 79.26L60.98 76.97C61.1 77.09 61.21 77.19 61.32 77.28C61.42 77.36 61.53 77.43 61.65 77.5C61.76 77.55 61.87 77.6 61.99 77.62C62.11 77.65 62.24 77.67 62.36 77.67C62.66 77.67 62.95 77.61 63.21 77.48C63.46 77.36 63.67 77.19 63.83 76.97C64.01 76.73 64.14 76.45 64.22 76.16C64.31 75.81 64.35 75.45 64.35 75.09C64.35 74.77 64.31 74.45 64.25 74.14C64.19 73.86 64.08 73.6 63.92 73.36C63.78 73.14 63.58 72.96 63.35 72.83C63.09 72.7 62.8 72.63 62.5 72.64C62.35 72.64 62.2 72.66 62.05 72.69C61.91 72.73 61.78 72.78 61.65 72.85C61.52 72.93 61.38 73.01 61.26 73.11C61.12 73.23 60.99 73.35 60.86 73.48L60.86 72.87C60.87 72.85 60.87 72.82 60.86 72.8C60.85 72.78 60.82 72.76 60.8 72.75C60.76 72.73 60.72 72.73 60.68 72.72L60.33 72.72C60.29 72.72 60.25 72.74 60.21 72.75C60.19 72.76 60.17 72.78 60.15 72.8C60.15 72.82 60.15 72.85 60.15 72.87L60.17 72.87ZM61.01 76.08L61.01 74.26C61.13 74.11 61.26 73.97 61.39 73.84C61.49 73.73 61.61 73.64 61.73 73.56C61.83 73.5 61.94 73.45 62.05 73.41C62.16 73.38 62.27 73.36 62.37 73.36C62.57 73.35 62.76 73.41 62.92 73.51C63.07 73.62 63.19 73.76 63.27 73.92C63.36 74.1 63.42 74.3 63.45 74.5C63.49 74.73 63.51 74.95 63.51 75.18C63.51 75.39 63.48 75.61 63.44 75.82C63.4 76.02 63.33 76.21 63.23 76.39C63.15 76.55 63.02 76.69 62.87 76.79C62.71 76.9 62.52 76.95 62.32 76.94C62.09 76.94 61.86 76.87 61.67 76.73C61.43 76.54 61.21 76.32 61.01 76.08ZM56.95 73.5L56.95 77.45C56.94 77.47 56.94 77.49 56.95 77.51C56.96 77.54 56.99 77.55 57.01 77.56C57.06 77.58 57.1 77.59 57.14 77.59C57.21 77.59 57.28 77.59 57.35 77.59C57.42 77.59 57.49 77.59 57.56 77.59C57.6 77.59 57.64 77.58 57.68 77.56C57.71 77.55 57.73 77.54 57.75 77.51C57.76 77.49 57.76 77.47 57.75 77.45L57.75 73.5L59.12 73.5C59.15 73.51 59.18 73.5 59.2 73.48C59.22 73.46 59.24 73.44 59.25 73.41C59.27 73.38 59.28 73.34 59.28 73.3C59.29 73.24 59.29 73.18 59.28 73.12C59.29 73.07 59.29 73.02 59.28 72.96C59.28 72.92 59.26 72.88 59.25 72.84C59.24 72.81 59.22 72.79 59.19 72.77C59.17 72.75 59.15 72.75 59.12 72.75L55.53 72.75C55.5 72.75 55.48 72.75 55.46 72.77C55.43 72.79 55.42 72.81 55.41 72.84C55.39 72.88 55.38 72.92 55.37 72.96C55.36 73.01 55.36 73.07 55.37 73.12C55.36 73.18 55.36 73.24 55.37 73.29C55.38 73.33 55.39 73.37 55.4 73.41C55.41 73.44 55.43 73.47 55.45 73.48C55.48 73.5 55.5 73.51 55.53 73.5L56.95 73.5ZM50.56 72.87L50.56 77.45C50.55 77.47 50.55 77.49 50.56 77.51C50.58 77.54 50.6 77.55 50.63 77.56C50.67 77.58 50.72 77.59 50.76 77.59C50.83 77.59 50.89 77.59 50.96 77.59C51.03 77.59 51.1 77.59 51.17 77.59C51.22 77.59 51.26 77.58 51.3 77.56C51.33 77.55 51.35 77.54 51.37 77.51C51.38 77.49 51.39 77.47 51.39 77.45L51.39 75.44L53.71 75.44L53.71 77.45C53.7 77.47 53.7 77.49 53.71 77.51C53.73 77.54 53.75 77.55 53.78 77.56C53.82 77.58 53.86 77.59 53.9 77.59C53.97 77.59 54.05 77.59 54.12 77.59C54.18 77.59 54.25 77.59 54.32 77.59C54.36 77.59 54.41 77.58 54.45 77.56C54.47 77.55 54.5 77.54 54.52 77.51C54.52 77.49 54.52 77.47 54.52 77.45L54.52 72.87C54.52 72.85 54.52 72.82 54.52 72.8C54.5 72.78 54.47 72.77 54.45 72.75C54.41 72.73 54.36 72.72 54.32 72.72L53.9 72.72C53.86 72.72 53.82 72.73 53.78 72.75C53.75 72.77 53.73 72.78 53.71 72.8C53.7 72.82 53.7 72.85 53.71 72.87L53.71 74.73L51.39 74.73L51.39 72.87C51.39 72.85 51.38 72.82 51.37 72.8C51.35 72.78 51.32 72.77 51.3 72.75C51.26 72.73 51.22 72.72 51.17 72.72L50.76 72.72C50.71 72.72 50.67 72.73 50.63 72.75C50.6 72.76 50.58 72.78 50.56 72.8C50.55 72.82 50.55 72.85 50.56 72.87ZM45.64 77.04C45.84 77.24 46.08 77.4 46.35 77.49C46.67 77.6 47 77.65 47.34 77.65C47.55 77.65 47.75 77.63 47.95 77.6C48.12 77.57 48.29 77.54 48.46 77.49C48.58 77.46 48.7 77.42 48.81 77.37C48.87 77.34 48.93 77.31 48.98 77.28C49 77.26 49.01 77.24 49.03 77.22C49.04 77.2 49.05 77.17 49.05 77.15L49.05 77.07L49.05 76.95C49.06 76.9 49.06 76.85 49.05 76.8C49.06 76.76 49.06 76.73 49.05 76.7C49.04 76.68 49.03 76.66 49.01 76.64C48.99 76.64 48.97 76.64 48.94 76.64C48.88 76.65 48.82 76.67 48.76 76.7C48.68 76.73 48.58 76.77 48.46 76.81C48.31 76.87 48.16 76.91 48.01 76.94C47.82 76.97 47.62 76.99 47.43 76.99C47.19 77 46.95 76.95 46.73 76.87C46.55 76.8 46.4 76.68 46.28 76.54C46.16 76.38 46.07 76.2 46.02 76.01C45.97 75.79 45.95 75.56 45.95 75.32L48.94 75.32C49.02 75.32 49.1 75.3 49.16 75.24C49.2 75.2 49.23 75.16 49.24 75.11C49.26 75.06 49.27 75.01 49.26 74.96L49.26 74.81C49.27 74.52 49.23 74.24 49.15 73.97C49.08 73.71 48.96 73.48 48.79 73.28C48.62 73.09 48.41 72.93 48.17 72.83C47.88 72.71 47.56 72.65 47.25 72.66C46.94 72.66 46.63 72.72 46.35 72.84C46.08 72.95 45.84 73.12 45.65 73.34C45.45 73.57 45.29 73.84 45.2 74.14C45.1 74.48 45.04 74.83 45.05 75.19C45.04 75.56 45.09 75.93 45.2 76.28C45.29 76.57 45.44 76.83 45.65 77.06L45.64 77.04ZM48.42 74.71L45.93 74.71C45.94 74.53 45.97 74.35 46.03 74.17C46.08 74.01 46.16 73.86 46.27 73.72C46.39 73.59 46.53 73.48 46.69 73.4C46.86 73.33 47.04 73.29 47.21 73.3C47.38 73.29 47.55 73.32 47.71 73.38C47.86 73.45 48 73.55 48.11 73.67C48.34 73.97 48.45 74.34 48.42 74.71Z" fill="#FFFFFF" fill-opacity="1.000000" fill-rule="evenodd"/>
		<path id="Vector" d="M95.73 74.83C95.72 74.86 95.71 74.89 95.7 74.92C95.7 74.97 95.7 75.02 95.7 75.06C95.7 75.11 95.7 75.16 95.7 75.21C95.71 75.25 95.72 75.28 95.73 75.31C95.75 75.33 95.77 75.35 95.79 75.37C95.81 75.38 95.84 75.38 95.87 75.37L96.38 75.37C96.59 75.37 96.79 75.39 97 75.43C97.14 75.45 97.28 75.51 97.41 75.58C97.51 75.63 97.59 75.72 97.65 75.82C97.71 75.92 97.73 76.03 97.73 76.14C97.73 76.27 97.71 76.39 97.65 76.51C97.6 76.61 97.52 76.7 97.43 76.77C97.32 76.84 97.21 76.9 97.09 76.93C96.94 76.96 96.79 76.98 96.64 76.98C96.43 76.99 96.23 76.96 96.03 76.91C95.79 76.84 95.56 76.74 95.35 76.6C95.3 76.56 95.25 76.54 95.19 76.53C95.17 76.53 95.15 76.53 95.14 76.53C95.12 76.55 95.11 76.57 95.1 76.59C95.09 76.62 95.08 76.65 95.07 76.68C95.07 76.72 95.07 76.77 95.07 76.81C95.07 76.87 95.07 76.93 95.07 76.97L95.1 77.08C95.1 77.11 95.11 77.14 95.13 77.16C95.15 77.2 95.18 77.22 95.21 77.25C95.26 77.29 95.33 77.33 95.39 77.37C95.49 77.42 95.6 77.46 95.71 77.49C95.85 77.53 95.99 77.57 96.13 77.59C96.3 77.62 96.46 77.63 96.63 77.63C96.92 77.63 97.2 77.6 97.48 77.53C97.7 77.47 97.91 77.37 98.1 77.23C98.27 77.11 98.4 76.96 98.5 76.78C98.59 76.59 98.64 76.38 98.64 76.16C98.64 76.01 98.6 75.85 98.54 75.71C98.48 75.58 98.4 75.46 98.29 75.35C98.19 75.26 98.08 75.17 97.95 75.11C97.83 75.05 97.69 75.01 97.56 75C97.69 74.96 97.81 74.9 97.93 74.83C98.04 74.75 98.13 74.67 98.21 74.57C98.29 74.48 98.35 74.37 98.39 74.26C98.43 74.14 98.45 74.02 98.45 73.9C98.45 73.71 98.41 73.52 98.33 73.35C98.24 73.19 98.13 73.06 97.98 72.95C97.82 72.84 97.64 72.76 97.45 72.72C97.23 72.66 97 72.63 96.77 72.64C96.45 72.64 96.13 72.69 95.82 72.79C95.7 72.82 95.58 72.87 95.46 72.93C95.39 72.97 95.31 73.02 95.25 73.07C95.21 73.11 95.18 73.16 95.16 73.22C95.15 73.29 95.14 73.37 95.14 73.45C95.14 73.5 95.14 73.54 95.14 73.59C95.14 73.62 95.15 73.65 95.17 73.68C95.18 73.7 95.19 73.71 95.21 73.73C95.22 73.73 95.24 73.73 95.26 73.73C95.31 73.72 95.37 73.7 95.41 73.66C95.49 73.62 95.58 73.57 95.7 73.51C95.83 73.45 95.97 73.4 96.11 73.36C96.29 73.31 96.48 73.28 96.67 73.29C96.79 73.28 96.92 73.3 97.04 73.33C97.14 73.35 97.24 73.39 97.33 73.46C97.41 73.51 97.48 73.58 97.52 73.67C97.57 73.76 97.6 73.86 97.59 73.96C97.6 74.08 97.57 74.19 97.52 74.29C97.47 74.39 97.39 74.48 97.29 74.54C97.17 74.61 97.04 74.66 96.91 74.69C96.73 74.73 96.54 74.74 96.36 74.74L95.86 74.74C95.84 74.73 95.81 74.73 95.79 74.74C95.77 74.75 95.75 74.77 95.74 74.79L95.73 74.83ZM73.84 77.45L73.84 73.05C73.85 72.97 73.83 72.88 73.78 72.82C73.75 72.79 73.72 72.77 73.69 72.76C73.66 72.75 73.63 72.75 73.59 72.75L70.23 72.75C70.2 72.75 70.16 72.75 70.13 72.76C70.1 72.78 70.07 72.79 70.04 72.82C69.99 72.88 69.97 72.97 69.98 73.05L69.98 77.45C69.97 77.47 69.97 77.49 69.98 77.51C69.99 77.54 70.02 77.55 70.04 77.56C70.08 77.58 70.13 77.59 70.17 77.59C70.24 77.59 70.31 77.59 70.38 77.59C70.44 77.59 70.51 77.59 70.58 77.59C70.63 77.59 70.67 77.58 70.71 77.56C70.74 77.55 70.76 77.54 70.78 77.51C70.79 77.49 70.8 77.47 70.8 77.45L70.8 73.46L72.98 73.46L72.98 77.45C72.98 77.47 72.99 77.49 73 77.51C73.02 77.54 73.04 77.55 73.07 77.56C73.11 77.58 73.16 77.59 73.2 77.59C73.27 77.59 73.34 77.59 73.41 77.59C73.48 77.59 73.54 77.59 73.61 77.59C73.65 77.59 73.7 77.58 73.74 77.56C73.77 77.55 73.79 77.54 73.8 77.51C73.82 77.49 73.83 77.47 73.83 77.45L73.84 77.45ZM137.44 74.12C137.43 74.41 137.54 74.7 137.74 74.92C137.95 75.13 138.23 75.27 138.52 75.31C138.34 75.39 138.18 75.51 138.05 75.66C137.9 75.83 137.78 76.02 137.7 76.22L137.33 77.08L137.21 77.36C137.2 77.39 137.19 77.43 137.18 77.47C137.18 77.48 137.19 77.49 137.19 77.5C137.2 77.52 137.2 77.53 137.21 77.54C137.23 77.56 137.26 77.58 137.29 77.58L137.41 77.58L137.58 77.58L137.8 77.58C137.85 77.58 137.9 77.57 137.95 77.55C137.98 77.54 138.01 77.52 138.04 77.49C138.06 77.45 138.08 77.42 138.09 77.38L138.46 76.48C138.52 76.33 138.59 76.18 138.68 76.04C138.75 75.92 138.83 75.82 138.93 75.73C139.02 75.65 139.13 75.59 139.25 75.56C139.41 75.52 139.57 75.5 139.74 75.51L140.22 75.51L140.22 77.43C140.22 77.45 140.22 77.48 140.22 77.5C140.24 77.52 140.26 77.54 140.29 77.55C140.34 77.56 140.38 77.57 140.42 77.58C140.49 77.58 140.56 77.58 140.63 77.58C140.7 77.58 140.77 77.58 140.84 77.58C140.88 77.57 140.93 77.56 140.97 77.55C140.99 77.54 141.02 77.52 141.03 77.5C141.04 77.48 141.04 77.45 141.03 77.43L141.03 73.11C141.04 73.02 141.01 72.94 140.96 72.87C140.93 72.84 140.89 72.81 140.86 72.79C140.82 72.77 140.77 72.76 140.73 72.76L140.45 72.73L140.12 72.71L139.79 72.71L139.51 72.71C139.2 72.71 138.9 72.74 138.61 72.81C138.37 72.86 138.15 72.96 137.95 73.1C137.78 73.21 137.64 73.36 137.55 73.54C137.45 73.73 137.41 73.93 137.41 74.14L137.44 74.12ZM138.34 74.46C138.3 74.35 138.27 74.24 138.28 74.13C138.27 74.02 138.29 73.91 138.33 73.8C138.38 73.7 138.45 73.61 138.53 73.54C138.64 73.46 138.77 73.41 138.9 73.38C139.09 73.33 139.28 73.31 139.48 73.32L139.83 73.32C139.96 73.32 140.08 73.33 140.21 73.35L140.21 74.9L139.52 74.9C139.31 74.91 139.11 74.89 138.91 74.85C138.78 74.82 138.66 74.77 138.55 74.69C138.46 74.63 138.39 74.55 138.34 74.45L138.34 74.46ZM132.05 72.87L132.05 77.45C132.05 77.47 132.05 77.49 132.05 77.51C132.06 77.53 132.07 77.54 132.08 77.54C132.09 77.55 132.1 77.56 132.12 77.56C132.15 77.58 132.19 77.59 132.23 77.59C132.29 77.59 132.35 77.59 132.41 77.59L132.58 77.59C132.62 77.59 132.65 77.58 132.69 77.56C132.71 77.55 132.74 77.54 132.76 77.52L132.83 77.45L134.77 74.79L135.05 74.4C135.14 74.27 135.23 74.14 135.31 74.01L135.28 74.41C135.28 74.55 135.28 74.68 135.28 74.81L135.28 77.45C135.28 77.47 135.29 77.49 135.3 77.51C135.32 77.53 135.34 77.55 135.37 77.56C135.42 77.57 135.46 77.58 135.5 77.58C135.57 77.59 135.64 77.59 135.71 77.58C135.78 77.59 135.85 77.59 135.91 77.58C135.96 77.58 136 77.57 136.04 77.56C136.07 77.55 136.09 77.53 136.11 77.51C136.11 77.49 136.11 77.47 136.11 77.45L136.11 72.88C136.11 72.85 136.11 72.83 136.11 72.81C136.09 72.78 136.07 72.77 136.04 72.76C136.01 72.74 135.97 72.73 135.93 72.73L135.75 72.73L135.57 72.73C135.53 72.73 135.5 72.74 135.46 72.75C135.43 72.76 135.4 72.78 135.38 72.8C135.36 72.82 135.33 72.84 135.32 72.87L133.35 75.56C133.25 75.67 133.17 75.79 133.09 75.92C133.01 76.04 132.93 76.16 132.85 76.29L132.88 75.91C132.88 75.78 132.88 75.65 132.88 75.52L132.88 72.87C132.88 72.84 132.87 72.82 132.85 72.8C132.83 72.77 132.81 72.76 132.79 72.75C132.68 72.72 132.56 72.71 132.45 72.72L132.25 72.72C132.21 72.72 132.16 72.73 132.12 72.75C132.09 72.75 132.06 72.77 132.05 72.8C132.05 72.82 132.05 72.84 132.05 72.86L132.05 72.87ZM126.48 72.87L126.48 77.44C126.47 77.46 126.47 77.49 126.48 77.51C126.49 77.53 126.52 77.55 126.55 77.56C126.59 77.57 126.63 77.58 126.68 77.58C126.74 77.59 126.81 77.59 126.88 77.58C126.95 77.59 127.02 77.59 127.09 77.58C127.13 77.58 127.17 77.57 127.21 77.56C127.24 77.55 127.26 77.53 127.28 77.51C127.29 77.49 127.29 77.46 127.28 77.44L127.28 75.44L129.61 75.44L129.61 77.45C129.6 77.47 129.6 77.49 129.61 77.51C129.62 77.54 129.65 77.55 129.67 77.56C129.71 77.58 129.75 77.59 129.8 77.59C129.87 77.59 129.94 77.59 130.01 77.59C130.08 77.59 130.14 77.59 130.21 77.59C130.26 77.59 130.3 77.58 130.34 77.56C130.37 77.55 130.39 77.54 130.41 77.51C130.42 77.49 130.42 77.47 130.41 77.45L130.41 72.87C130.42 72.85 130.42 72.82 130.41 72.8C130.39 72.78 130.37 72.77 130.34 72.75C130.3 72.73 130.26 72.72 130.21 72.72L129.8 72.72C129.75 72.72 129.71 72.73 129.67 72.75C129.65 72.77 129.63 72.78 129.61 72.8C129.6 72.82 129.6 72.85 129.61 72.87L129.61 74.73L127.28 74.73L127.28 72.87C127.29 72.85 127.29 72.82 127.28 72.8C127.26 72.78 127.24 72.77 127.21 72.75C127.17 72.73 127.13 72.72 127.09 72.72L126.66 72.72C126.62 72.72 126.57 72.73 126.53 72.75C126.51 72.76 126.48 72.78 126.46 72.8C126.46 72.82 126.46 72.85 126.46 72.87L126.48 72.87ZM121.78 75.11C121.59 75.23 121.44 75.39 121.33 75.58C121.22 75.79 121.17 76.02 121.17 76.25C121.17 76.45 121.21 76.65 121.29 76.84C121.36 77.01 121.47 77.17 121.61 77.29C121.75 77.41 121.92 77.5 122.11 77.56C122.32 77.63 122.54 77.66 122.76 77.66C123.03 77.66 123.3 77.6 123.54 77.48C123.8 77.36 124.02 77.19 124.21 76.98L124.21 77.43C124.21 77.45 124.22 77.47 124.22 77.48C124.23 77.5 124.24 77.51 124.25 77.52C124.28 77.55 124.32 77.56 124.37 77.57C124.44 77.58 124.51 77.58 124.58 77.57C124.65 77.58 124.72 77.58 124.78 77.57C124.83 77.56 124.86 77.55 124.9 77.52C124.91 77.51 124.92 77.5 124.93 77.48C124.94 77.47 124.94 77.45 124.94 77.43L124.94 74.36C124.94 74.11 124.91 73.86 124.84 73.62C124.78 73.42 124.68 73.23 124.53 73.08C124.37 72.93 124.18 72.82 123.97 72.75C123.7 72.67 123.41 72.64 123.13 72.64C122.96 72.64 122.78 72.66 122.61 72.69C122.45 72.72 122.29 72.76 122.13 72.81C122 72.86 121.87 72.91 121.74 72.98C121.66 73.02 121.58 73.07 121.51 73.13C121.47 73.17 121.43 73.22 121.42 73.27C121.41 73.34 121.41 73.41 121.42 73.47C121.41 73.52 121.41 73.57 121.42 73.61C121.42 73.65 121.43 73.68 121.45 73.71C121.46 73.74 121.48 73.76 121.5 73.77C121.53 73.78 121.55 73.78 121.58 73.77C121.64 73.76 121.71 73.74 121.76 73.7C121.86 73.64 121.96 73.58 122.07 73.54C122.22 73.47 122.37 73.41 122.52 73.37C122.7 73.32 122.89 73.29 123.08 73.29C123.24 73.29 123.41 73.31 123.57 73.37C123.69 73.4 123.8 73.47 123.89 73.57C123.98 73.66 124.04 73.78 124.07 73.91C124.11 74.05 124.12 74.2 124.12 74.36L124.12 74.71L123.49 74.71C123.17 74.71 122.85 74.74 122.53 74.81C122.27 74.86 122.03 74.96 121.81 75.09L121.78 75.11ZM123.38 75.33L124.1 75.33L124.1 76.3C123.93 76.5 123.73 76.68 123.51 76.82C123.32 76.93 123.11 76.99 122.89 76.98C122.66 77 122.44 76.92 122.26 76.77C122.18 76.7 122.12 76.61 122.08 76.52C122.05 76.42 122.03 76.31 122.03 76.21C122.03 76.08 122.06 75.96 122.11 75.84C122.17 75.73 122.25 75.63 122.36 75.56C122.49 75.48 122.63 75.42 122.78 75.39C122.98 75.35 123.18 75.33 123.38 75.33ZM116.49 73.16L116.49 77.14C116.48 77.2 116.49 77.25 116.5 77.31C116.52 77.36 116.55 77.41 116.59 77.45C116.62 77.5 116.67 77.53 116.72 77.55C116.77 77.58 116.83 77.59 116.89 77.59L117.17 77.62L117.47 77.62L117.77 77.62L118.09 77.62C118.41 77.62 118.73 77.59 119.03 77.52C119.27 77.46 119.5 77.36 119.7 77.23C119.88 77.11 120.02 76.94 120.11 76.75C120.21 76.55 120.26 76.33 120.25 76.11C120.26 75.83 120.17 75.56 119.99 75.34C119.8 75.12 119.53 74.98 119.24 74.93C119.48 74.87 119.69 74.73 119.85 74.54C119.99 74.35 120.06 74.12 120.05 73.88C120.06 73.7 120.02 73.52 119.94 73.36C119.86 73.2 119.73 73.07 119.58 72.98C119.4 72.86 119.19 72.78 118.98 72.74C118.7 72.68 118.41 72.66 118.13 72.66L117.78 72.66L117.46 72.66L117.15 72.66L116.87 72.69C116.76 72.69 116.66 72.74 116.58 72.82C116.51 72.91 116.48 73.03 116.49 73.14L116.49 73.16ZM117.3 74.74L117.3 73.33L117.64 73.3C117.77 73.3 117.91 73.3 118.09 73.3C118.26 73.29 118.44 73.31 118.62 73.34C118.75 73.37 118.87 73.41 118.98 73.48C119.07 73.53 119.14 73.61 119.19 73.7C119.23 73.8 119.25 73.9 119.25 74C119.25 74.11 119.23 74.22 119.18 74.32C119.13 74.41 119.06 74.5 118.97 74.56C118.73 74.71 118.45 74.77 118.17 74.75L117.3 74.74ZM117.3 75.3L118.12 75.3C118.31 75.3 118.5 75.32 118.69 75.35C118.83 75.38 118.96 75.43 119.09 75.51C119.19 75.57 119.26 75.66 119.31 75.76C119.36 75.87 119.39 76 119.38 76.12C119.39 76.24 119.36 76.37 119.31 76.48C119.26 76.59 119.18 76.68 119.09 76.75C118.97 76.83 118.84 76.89 118.7 76.92C118.51 76.96 118.32 76.98 118.13 76.98L117.93 76.98L117.71 76.98L117.5 76.98L117.3 76.95L117.3 75.33L117.3 75.3ZM114.07 73.85C114.18 74.03 114.25 74.23 114.29 74.43C114.34 74.66 114.37 74.9 114.37 75.13C114.37 75.38 114.34 75.62 114.28 75.86C114.24 76.07 114.15 76.26 114.03 76.43C113.91 76.59 113.76 76.72 113.58 76.8C113.37 76.89 113.15 76.94 112.92 76.94C112.69 76.94 112.47 76.89 112.26 76.8C112.08 76.71 111.93 76.58 111.81 76.41C111.7 76.24 111.62 76.04 111.58 75.83C111.54 75.6 111.52 75.37 111.52 75.13C111.51 74.89 111.54 74.64 111.6 74.41C111.65 74.2 111.74 74.01 111.86 73.84C111.97 73.68 112.13 73.55 112.31 73.46C112.51 73.37 112.73 73.33 112.95 73.33C113.18 73.32 113.41 73.37 113.62 73.47C113.81 73.56 113.96 73.7 114.07 73.87L114.07 73.85ZM110.81 74.14C110.71 74.48 110.66 74.83 110.66 75.18C110.66 75.52 110.7 75.87 110.8 76.21C110.88 76.49 111.02 76.76 111.22 76.98C111.41 77.2 111.65 77.37 111.92 77.47C112.23 77.59 112.56 77.65 112.9 77.64C113.25 77.65 113.6 77.58 113.92 77.45C114.2 77.33 114.45 77.15 114.65 76.92C114.86 76.68 115.01 76.41 115.1 76.11C115.2 75.78 115.25 75.43 115.25 75.08C115.25 74.73 115.21 74.39 115.11 74.05C115.03 73.76 114.88 73.5 114.69 73.28C114.5 73.06 114.26 72.89 113.99 72.79C113.68 72.67 113.34 72.61 113 72.62C112.65 72.61 112.31 72.67 111.98 72.81C111.7 72.92 111.45 73.11 111.25 73.33C111.05 73.57 110.9 73.85 110.8 74.14L110.81 74.14ZM105.51 72.85L105.51 79.24C105.5 79.26 105.5 79.28 105.51 79.3C105.52 79.33 105.55 79.35 105.57 79.36C105.61 79.37 105.66 79.38 105.7 79.39L105.91 79.39L106.12 79.39C106.16 79.38 106.2 79.37 106.25 79.36C106.27 79.35 106.3 79.33 106.31 79.3C106.32 79.28 106.32 79.26 106.31 79.24L106.31 76.95C106.44 77.07 106.55 77.17 106.66 77.25C106.76 77.34 106.87 77.41 106.99 77.47C107.09 77.53 107.21 77.57 107.33 77.6C107.45 77.63 107.58 77.64 107.7 77.64C108 77.65 108.29 77.58 108.55 77.46C108.8 77.34 109.01 77.17 109.17 76.95C109.35 76.71 109.48 76.43 109.55 76.14C109.64 75.79 109.69 75.43 109.68 75.06C109.69 74.75 109.65 74.43 109.58 74.12C109.53 73.84 109.42 73.58 109.26 73.34C109.11 73.12 108.92 72.94 108.69 72.81C108.43 72.68 108.13 72.61 107.84 72.62C107.55 72.62 107.26 72.69 107.01 72.83C106.87 72.91 106.74 72.99 106.62 73.09C106.47 73.21 106.34 73.33 106.22 73.46L106.22 72.85C106.22 72.83 106.22 72.8 106.22 72.77C106.2 72.75 106.17 72.74 106.15 72.73C106.11 72.71 106.07 72.7 106.04 72.7L105.69 72.7C105.64 72.7 105.6 72.71 105.56 72.73C105.54 72.74 105.52 72.75 105.51 72.77C105.5 72.8 105.5 72.83 105.51 72.85ZM106.35 76.05L106.35 74.23C106.47 74.09 106.59 73.95 106.73 73.81C106.83 73.71 106.95 73.62 107.07 73.54C107.17 73.47 107.28 73.42 107.39 73.38C107.5 73.35 107.6 73.34 107.71 73.34C107.91 73.33 108.1 73.38 108.26 73.49C108.41 73.6 108.53 73.74 108.61 73.9C108.7 74.08 108.76 74.28 108.79 74.48C108.83 74.7 108.84 74.93 108.84 75.16C108.84 75.37 108.82 75.58 108.78 75.79C108.74 75.99 108.67 76.19 108.57 76.37C108.48 76.53 108.36 76.67 108.21 76.77C108.04 76.87 107.85 76.93 107.66 76.92C107.43 76.92 107.2 76.84 107.01 76.7C106.77 76.51 106.54 76.3 106.35 76.05ZM99.87 72.85L99.87 77.43C99.86 77.45 99.86 77.47 99.87 77.49C99.88 77.51 99.9 77.53 99.93 77.54C99.97 77.56 100.01 77.56 100.05 77.57C100.11 77.57 100.17 77.57 100.23 77.57L100.39 77.57C100.43 77.56 100.47 77.56 100.51 77.54C100.53 77.53 100.56 77.51 100.58 77.5L100.64 77.42L102.58 74.77L102.86 74.38C102.96 74.25 103.04 74.12 103.12 73.98L103.1 74.39C103.1 74.52 103.1 74.66 103.1 74.79L103.1 77.42C103.1 77.45 103.11 77.47 103.12 77.49C103.14 77.51 103.16 77.53 103.19 77.54C103.23 77.55 103.28 77.56 103.32 77.56C103.39 77.57 103.46 77.57 103.52 77.56C103.59 77.57 103.66 77.57 103.73 77.56C103.77 77.56 103.82 77.55 103.86 77.54C103.88 77.53 103.91 77.51 103.92 77.49C103.93 77.47 103.93 77.44 103.92 77.42L103.92 72.88C103.93 72.85 103.92 72.83 103.91 72.8C103.89 72.78 103.87 72.77 103.85 72.76C103.81 72.74 103.77 72.73 103.73 72.73L103.55 72.73L103.38 72.73C103.34 72.73 103.3 72.74 103.26 72.75C103.23 72.76 103.2 72.78 103.18 72.8L103.12 72.87L101.15 75.56C101.06 75.67 100.97 75.79 100.9 75.92C100.81 76.04 100.73 76.16 100.66 76.29L100.66 75.91C100.66 75.77 100.66 75.64 100.66 75.52L100.66 72.87C100.66 72.84 100.65 72.82 100.63 72.8C100.61 72.77 100.59 72.76 100.56 72.75C100.45 72.72 100.34 72.71 100.23 72.72L100.03 72.72C99.98 72.72 99.94 72.73 99.9 72.75C99.86 72.75 99.84 72.77 99.83 72.8C99.82 72.82 99.82 72.84 99.83 72.86L99.87 72.85ZM93.03 73.65C93.25 73.95 93.36 74.32 93.32 74.69L90.84 74.69C90.84 74.5 90.87 74.32 90.93 74.15C90.99 73.99 91.07 73.83 91.18 73.7C91.28 73.57 91.42 73.46 91.57 73.39C91.74 73.31 91.93 73.27 92.12 73.28C92.28 73.27 92.45 73.3 92.61 73.36C92.76 73.43 92.9 73.53 93.01 73.65L93.03 73.65ZM90.11 74.1C90.01 74.44 89.95 74.8 89.96 75.16C89.95 75.53 90 75.89 90.1 76.25C90.19 76.53 90.35 76.8 90.55 77.02C90.75 77.22 91 77.38 91.27 77.47C91.58 77.58 91.92 77.64 92.26 77.63C92.46 77.63 92.66 77.61 92.87 77.58C93.06 77.55 93.23 77.51 93.37 77.47C93.5 77.44 93.61 77.4 93.73 77.35C93.79 77.32 93.84 77.29 93.9 77.26C93.91 77.24 93.93 77.22 93.94 77.2C93.94 77.18 93.94 77.15 93.94 77.13L93.94 77.05L93.94 76.78C93.94 76.74 93.93 76.71 93.91 76.68C93.91 76.66 93.89 76.64 93.87 76.63C93.85 76.62 93.83 76.62 93.81 76.63C93.75 76.63 93.68 76.65 93.63 76.68C93.53 76.73 93.42 76.76 93.32 76.8C93.17 76.85 93.02 76.89 92.87 76.92C92.68 76.96 92.49 76.97 92.29 76.97C92.05 76.98 91.81 76.94 91.59 76.85C91.42 76.78 91.26 76.66 91.14 76.52C91.02 76.36 90.93 76.19 90.89 76C90.83 75.77 90.81 75.54 90.81 75.31L93.82 75.31C93.91 75.31 93.99 75.28 94.05 75.22C94.08 75.19 94.11 75.14 94.13 75.09C94.15 75.05 94.15 74.99 94.15 74.94L94.15 74.79C94.15 74.51 94.11 74.22 94.03 73.95C93.96 73.7 93.84 73.46 93.68 73.26C93.5 73.07 93.29 72.91 93.05 72.81C92.77 72.69 92.46 72.63 92.15 72.64C91.84 72.64 91.54 72.7 91.25 72.82C90.99 72.93 90.75 73.1 90.56 73.32C90.36 73.55 90.2 73.82 90.11 74.12L90.11 74.1ZM87.12 73.5L87.12 77.45C87.12 77.47 87.12 77.49 87.12 77.51C87.14 77.54 87.16 77.55 87.19 77.56C87.23 77.58 87.28 77.59 87.32 77.59C87.39 77.59 87.46 77.59 87.52 77.59C87.59 77.59 87.67 77.59 87.74 77.59C87.78 77.59 87.82 77.58 87.86 77.56C87.89 77.55 87.91 77.54 87.93 77.51C87.94 77.49 87.94 77.47 87.93 77.45L87.93 73.5L89.28 73.5C89.3 73.51 89.33 73.5 89.35 73.48C89.38 73.46 89.39 73.44 89.41 73.41C89.42 73.38 89.43 73.34 89.44 73.3C89.44 73.25 89.44 73.19 89.44 73.12C89.44 73.06 89.44 73.01 89.44 72.96C89.43 72.92 89.42 72.88 89.4 72.84C89.39 72.81 89.37 72.79 89.35 72.77C89.33 72.75 89.3 72.75 89.28 72.75L85.68 72.75C85.66 72.75 85.63 72.75 85.62 72.77C85.59 72.79 85.57 72.81 85.56 72.84C85.54 72.88 85.53 72.92 85.53 72.96C85.52 73.01 85.52 73.07 85.53 73.12C85.52 73.18 85.52 73.24 85.53 73.29C85.53 73.34 85.54 73.38 85.56 73.41C85.57 73.44 85.59 73.47 85.61 73.48C85.63 73.5 85.66 73.51 85.68 73.5L87.12 73.5ZM80.71 74.17C80.61 74.5 80.56 74.85 80.57 75.2C80.56 75.55 80.61 75.9 80.7 76.23C80.78 76.52 80.93 76.78 81.12 77.01C81.31 77.23 81.55 77.39 81.82 77.5C82.13 77.61 82.47 77.67 82.8 77.67C83.15 77.67 83.5 77.61 83.82 77.47C84.1 77.35 84.35 77.17 84.55 76.94C84.76 76.71 84.91 76.43 85 76.13C85.11 75.8 85.16 75.45 85.15 75.1C85.16 74.76 85.11 74.41 85.01 74.07C84.93 73.79 84.78 73.52 84.59 73.3C84.4 73.08 84.16 72.91 83.89 72.81C83.58 72.69 83.24 72.63 82.91 72.64C82.56 72.63 82.21 72.7 81.89 72.83C81.6 72.95 81.35 73.13 81.15 73.36C80.95 73.59 80.8 73.87 80.7 74.17L80.71 74.17ZM81.44 75.14C81.44 74.9 81.47 74.65 81.52 74.42C81.57 74.21 81.66 74.02 81.78 73.84C81.9 73.68 82.05 73.55 82.23 73.47C82.43 73.38 82.65 73.33 82.87 73.34C83.11 73.33 83.34 73.38 83.55 73.48C83.73 73.57 83.89 73.71 84 73.88C84.11 74.05 84.19 74.25 84.23 74.45C84.28 74.68 84.3 74.92 84.3 75.16C84.3 75.4 84.27 75.65 84.21 75.88C84.17 76.09 84.08 76.28 83.96 76.46C83.84 76.61 83.69 76.74 83.51 76.82C83.31 76.92 83.09 76.96 82.87 76.96C82.64 76.97 82.41 76.91 82.2 76.81C82.01 76.72 81.86 76.59 81.75 76.42C81.63 76.24 81.56 76.05 81.52 75.84C81.47 75.61 81.45 75.38 81.45 75.14L81.44 75.14ZM75.41 72.87L75.41 79.26C75.4 79.28 75.4 79.31 75.41 79.33C75.42 79.35 75.45 79.37 75.47 79.38C75.52 79.4 75.56 79.41 75.6 79.41L75.81 79.41L76.02 79.41C76.06 79.41 76.11 79.4 76.15 79.38C76.18 79.37 76.2 79.35 76.21 79.33C76.22 79.31 76.22 79.28 76.21 79.26L76.21 76.97C76.33 77.09 76.45 77.19 76.56 77.28C76.66 77.36 76.77 77.43 76.89 77.5C76.99 77.55 77.11 77.6 77.22 77.62C77.35 77.65 77.47 77.67 77.6 77.67C77.89 77.67 78.18 77.61 78.45 77.48C78.69 77.36 78.91 77.19 79.07 76.97C79.25 76.73 79.38 76.45 79.45 76.16C79.54 75.81 79.59 75.45 79.58 75.09C79.58 74.77 79.55 74.45 79.48 74.14C79.42 73.86 79.31 73.6 79.15 73.36C79.01 73.14 78.81 72.96 78.58 72.83C78.32 72.7 78.03 72.63 77.73 72.64C77.58 72.64 77.43 72.66 77.29 72.69C77.14 72.73 77.01 72.78 76.88 72.85C76.74 72.93 76.61 73.01 76.49 73.11C76.35 73.23 76.22 73.35 76.09 73.48L76.09 72.87C76.1 72.85 76.1 72.82 76.09 72.8C76.07 72.78 76.05 72.76 76.03 72.75C75.99 72.73 75.95 72.73 75.92 72.72L75.56 72.72C75.52 72.73 75.48 72.74 75.44 72.75C75.42 72.76 75.4 72.78 75.38 72.8C75.38 72.82 75.38 72.85 75.38 72.87L75.41 72.87ZM76.25 76.08L76.25 74.26C76.37 74.11 76.5 73.97 76.63 73.84C76.73 73.73 76.85 73.64 76.97 73.56C77.07 73.5 77.18 73.44 77.29 73.41C77.4 73.38 77.5 73.36 77.61 73.36C77.81 73.35 78 73.41 78.16 73.51C78.31 73.62 78.43 73.76 78.51 73.92C78.6 74.1 78.66 74.3 78.69 74.5C78.73 74.73 78.75 74.95 78.75 75.18C78.75 75.39 78.72 75.61 78.68 75.82C78.64 76.02 78.57 76.21 78.47 76.39C78.38 76.55 78.26 76.69 78.1 76.79C77.94 76.9 77.76 76.95 77.56 76.94C77.33 76.94 77.1 76.87 76.91 76.73C76.66 76.54 76.44 76.32 76.25 76.08L76.25 76.08Z" fill="#FFFFFF" fill-opacity="1.000000" fill-rule="evenodd"/>
	</g>
</svg>
