<svg width="127.000000" height="66.000000" viewBox="0 0 127 66" fill="none" xmlns="http://www.w3.org/2000/svg" xmlns:xlink="http://www.w3.org/1999/xlink">
	<desc>
			Created with Pixso.
	</desc>
	<defs>
		<clipPath id="clip3_6491">
			<rect id="logo-header-color 1" rx="0.000000" width="126.000000" height="65.000000" transform="translate(0.500000 0.500000)" fill="white" fill-opacity="0"/>
		</clipPath>
	</defs>
	<rect id="logo-header-color 1" rx="0.000000" width="126.000000" height="65.000000" transform="translate(0.500000 0.500000)" fill="#FFFFFF" fill-opacity="0"/>
	<g clip-path="url(#clip3_6491)">
		<mask id="mask3_6481" mask-type="alpha" maskUnits="userSpaceOnUse" x="0.000000" y="0.000000" width="127.000000" height="66.000000">
			<path id="Vector" d="M0 0L127 0L127 66L0 66L0 0Z" fill="#000000" fill-opacity="1.000000" fill-rule="evenodd"/>
		</mask>
		<g mask="url(#mask3_6481)">
			<path id="Vector" d="M102.9 39.95L102.91 32.99C100.38 34.15 94.09 35.24 94.15 30.74C94.24 25.16 102.03 28.24 102.76 28.36L102.76 21.53C101.77 20.75 98.38 20.33 96.82 20.32C90.46 20.32 85.51 23.39 85.44 30.74C85.33 43.55 100.79 41.61 102.89 39.95L102.9 39.95ZM84.29 39.83L84.29 32.99C81.81 34.11 75.46 35.29 75.53 30.74C75.56 28.67 76.72 27.67 78.68 27.45C81.22 27.18 82.2 27.95 84.15 28.37L84.15 21.53C83.17 20.73 79.68 20.31 78.09 20.32C71.76 20.38 66.79 23.47 66.82 30.86C66.86 38.25 72.03 41.09 78.32 41.16C79.43 41.18 80.54 41.08 81.62 40.86C82.2 40.73 84.01 40.39 84.3 39.84L84.29 39.83ZM65.37 40.66L57.09 40.66L57.26 34.08C56.78 34.58 56.33 35.17 55.85 35.78C54.64 37.28 53.09 39.29 51.89 40.66L45.57 40.66L45.57 20.83L53.85 20.84L53.67 27.4C54.39 26.71 59.21 20.83 59.23 20.83L65.36 20.83L65.36 40.66L65.37 40.66ZM24.07 40.66L32.34 40.66L32.34 34.29C32.89 34.35 32.77 34.5 33.43 35.7C33.88 36.54 36.3 40.66 36.3 40.66L45.13 40.66C44.78 39.77 39.71 31.07 39.6 30.66C39.6 30.66 44 22.38 44.56 20.83L35.77 20.83L33.6 25.82C33.31 26.49 33.14 27.26 32.37 27.3L32.37 20.83L24.08 20.83L24.07 40.66Z" fill="#333333" fill-opacity="1.000000" fill-rule="evenodd"/>
			<path id="Vector" d="M58.76 6.48C67.81 7.39 77.41 9.13 86.31 10.79C100.83 13.47 113.85 18.51 121.06 25.4C124.68 28.85 126.87 32.8 126.99 37.17C127.11 41.54 125.16 46.22 120.73 51.11C115.46 56.93 106.77 60.69 96.61 62.98C86.43 65.26 74.7 66.09 63.26 65.99C47.3 65.84 30.79 62.03 20.08 56.88C13.53 53.74 9.06 49.56 6.59 44.91C4.12 40.25 3.67 35.15 5.09 30.21C7.92 20.33 18.15 11.16 34.41 7.15C41.17 5.47 49.72 5.57 58.76 6.48ZM58.64 7.62C49.64 6.71 41.26 6.63 34.69 8.25C18.69 12.21 8.88 21.16 6.2 30.52C4.86 35.19 5.28 39.99 7.61 44.38C9.94 48.77 14.2 52.79 20.58 55.86C31.12 60.92 47.45 64.7 63.27 64.84C74.65 64.95 86.29 64.12 96.35 61.86C106.43 59.6 114.84 55.91 119.87 50.35C124.18 45.59 125.95 41.19 125.84 37.2C125.73 33.22 123.73 29.53 120.26 26.22C113.3 19.57 100.54 14.57 86.1 11.91C77.19 10.25 67.64 8.52 58.64 7.62Z" fill="#43CEE0" fill-opacity="1.000000" fill-rule="evenodd"/>
			<path id="Vector" d="M9.99 34.83C11.08 40.05 14.75 45.01 21.51 48.84C33.8 55.81 44.04 55.8 56.74 55.79C57.25 55.79 57.76 55.79 58.28 55.79C78.71 55.79 93.64 52.46 103.4 47.48C113.18 42.49 117.67 35.91 117.52 29.4C117.36 22.87 112.53 16.13 102.99 10.84C93.47 5.55 79.36 1.78 60.91 1.18C38.25 0.45 21.66 8.69 14.14 18.92C10.39 24.03 8.9 29.61 9.99 34.83ZM13.21 18.25C21.01 7.64 38.02 -0.7 60.95 0.04C79.52 0.65 93.83 4.44 103.56 9.84C113.27 15.23 118.5 22.27 118.67 29.37C118.84 36.5 113.91 43.4 103.93 48.5C93.95 53.59 78.81 56.93 58.28 56.93C57.74 56.93 57.21 56.93 56.69 56.93C44.01 56.95 33.5 56.96 20.93 49.83C13.95 45.88 10.03 40.67 8.86 35.07C7.69 29.46 9.3 23.56 13.21 18.25Z" fill="#60EAFC" fill-opacity="1.000000" fill-rule="evenodd"/>
			<path id="Vector" d="M108 7.08C114.87 9.6 119.95 14.48 122.23 22.93C123.98 29.44 123.36 35.42 120.51 40.67C117.68 45.92 112.65 50.39 105.67 53.99C92.03 61.01 72.87 63.62 54.63 62.19C36.4 60.77 18.95 55.31 8.77 46.06C6.05 43.59 3.59 40.29 1.98 36.74C0.36 33.2 -0.44 29.35 0.24 25.77C0.92 22.17 3.07 18.9 7.24 16.56C11.39 14.22 17.5 12.8 26.12 12.8C34.63 12.8 44.28 11.35 54.15 9.67C55.82 9.39 57.49 9.1 59.17 8.81C67.39 7.39 75.64 5.96 83.34 5.25C92.61 4.4 101.17 4.57 108 7.08ZM54.34 10.8C44.48 12.47 34.74 13.94 26.12 13.94C17.61 13.95 11.72 15.35 7.81 17.55C3.93 19.74 1.99 22.72 1.37 25.98C0.76 29.26 1.48 32.86 3.03 36.27C4.58 39.68 6.94 42.85 9.55 45.22C19.46 54.22 36.61 59.64 54.72 61.06C72.83 62.47 91.75 59.87 105.13 52.98C111.97 49.45 116.8 45.12 119.5 40.13C122.19 35.16 122.8 29.49 121.11 23.23C118.93 15.14 114.13 10.54 107.6 8.15C101.02 5.73 92.67 5.54 83.45 6.39C75.8 7.1 67.6 8.51 59.38 9.93C57.7 10.22 56.02 10.51 54.34 10.8Z" fill="#14A9BD" fill-opacity="1.000000" fill-rule="evenodd"/>
			<path id="Vector" d="M90.38 45.7C90.38 45.83 90.35 45.96 90.29 46.08C90.23 46.18 90.15 46.27 90.05 46.34C89.94 46.43 89.81 46.49 89.68 46.52C89.51 46.56 89.34 46.59 89.16 46.58C89.06 46.58 88.96 46.58 88.86 46.56C88.78 46.55 88.69 46.53 88.61 46.5C88.54 46.48 88.48 46.46 88.42 46.42C88.37 46.4 88.34 46.38 88.3 46.36C88.28 46.34 88.27 46.32 88.25 46.3C88.25 46.29 88.24 46.27 88.24 46.25C88.24 46.24 88.24 46.21 88.22 46.19C88.21 46.16 88.22 46.13 88.22 46.09C88.22 46.07 88.22 46.04 88.22 46.01C88.23 45.99 88.23 45.98 88.24 45.96C88.24 45.95 88.25 45.93 88.26 45.93C88.27 45.92 88.28 45.92 88.29 45.93C88.33 45.93 88.36 45.95 88.39 45.97C88.52 46.05 88.66 46.11 88.8 46.15C88.92 46.18 89.04 46.2 89.17 46.19C89.26 46.19 89.35 46.18 89.44 46.16C89.51 46.14 89.59 46.11 89.65 46.07C89.71 46.03 89.75 45.97 89.78 45.91C89.82 45.84 89.83 45.77 89.83 45.69C89.83 45.62 89.82 45.56 89.78 45.5C89.75 45.44 89.7 45.39 89.64 45.35C89.56 45.31 89.48 45.28 89.39 45.26C89.26 45.24 89.14 45.23 89.02 45.23L88.71 45.23C88.69 45.23 88.67 45.23 88.66 45.23C88.64 45.22 88.63 45.21 88.62 45.19C88.61 45.18 88.61 45.15 88.61 45.13C88.6 45.1 88.6 45.07 88.61 45.04C88.6 45.02 88.6 44.99 88.61 44.96C88.61 44.94 88.61 44.92 88.62 44.9C88.63 44.89 88.64 44.88 88.65 44.87C88.67 44.86 88.68 44.86 88.7 44.87L89 44.87C89.11 44.87 89.22 44.86 89.33 44.84C89.41 44.82 89.49 44.79 89.56 44.75C89.62 44.71 89.67 44.66 89.7 44.6C89.73 44.54 89.75 44.47 89.75 44.4C89.75 44.34 89.73 44.28 89.7 44.22C89.68 44.17 89.64 44.13 89.59 44.1C89.54 44.06 89.48 44.04 89.41 44.02C89.34 44 89.26 44 89.19 44C89.07 43.99 88.96 44.01 88.85 44.04C88.77 44.06 88.68 44.09 88.6 44.13C88.53 44.17 88.47 44.19 88.43 44.22C88.4 44.24 88.37 44.26 88.33 44.26C88.32 44.26 88.31 44.26 88.3 44.26C88.29 44.25 88.28 44.24 88.28 44.23C88.27 44.22 88.26 44.2 88.26 44.18C88.26 44.15 88.26 44.12 88.26 44.1C88.26 44.05 88.26 44 88.26 43.96C88.27 43.92 88.29 43.89 88.31 43.87C88.35 43.83 88.4 43.81 88.45 43.78C88.51 43.75 88.59 43.72 88.66 43.7C88.75 43.67 88.84 43.65 88.93 43.63C89.03 43.62 89.13 43.61 89.23 43.61C89.37 43.6 89.51 43.62 89.65 43.65C89.76 43.68 89.87 43.73 89.97 43.8C90.05 43.86 90.12 43.94 90.18 44.03C90.23 44.14 90.25 44.25 90.25 44.37C90.25 44.44 90.24 44.51 90.21 44.58C90.19 44.65 90.15 44.71 90.11 44.77C90.06 44.83 90 44.88 89.94 44.92C89.87 44.96 89.79 45 89.71 45.02C89.79 45.03 89.87 45.06 89.95 45.09C90.02 45.13 90.1 45.18 90.16 45.24C90.22 45.3 90.27 45.37 90.31 45.45C90.34 45.54 90.36 45.63 90.36 45.72L90.38 45.7ZM92.36 46.55L91.99 47.56C91.98 47.58 91.97 47.59 91.95 47.61C91.93 47.62 91.92 47.63 91.9 47.63C91.82 47.66 91.74 47.67 91.66 47.66C91.62 47.66 91.58 47.66 91.54 47.66C91.51 47.66 91.48 47.65 91.46 47.64C91.44 47.62 91.43 47.61 91.43 47.59C91.43 47.56 91.44 47.54 91.45 47.51L91.83 46.56C91.81 46.55 91.79 46.54 91.78 46.52C91.76 46.5 91.75 46.48 91.74 46.46L90.75 43.84C90.74 43.81 90.73 43.77 90.73 43.74C90.73 43.73 90.73 43.72 90.74 43.71C90.74 43.7 90.75 43.69 90.75 43.68C90.78 43.66 90.8 43.65 90.83 43.65L90.98 43.65L91.13 43.65C91.16 43.65 91.18 43.66 91.21 43.67C91.23 43.68 91.24 43.69 91.25 43.71C91.27 43.72 91.28 43.75 91.28 43.77L92.07 45.97L92.84 43.76C92.84 43.73 92.86 43.7 92.88 43.68C92.91 43.67 92.93 43.66 92.96 43.65L93.11 43.65L93.25 43.65C93.28 43.66 93.31 43.67 93.34 43.68C93.34 43.69 93.35 43.7 93.35 43.71C93.36 43.72 93.36 43.73 93.36 43.74C93.36 43.77 93.35 43.81 93.34 43.83L92.36 46.55ZM96.53 45.06C96.54 45.28 96.5 45.49 96.44 45.69C96.38 45.87 96.29 46.03 96.16 46.18C96.04 46.31 95.89 46.42 95.72 46.5C95.34 46.64 94.92 46.64 94.55 46.5C94.38 46.42 94.24 46.31 94.14 46.17C94.02 46.01 93.94 45.83 93.9 45.63C93.85 45.38 93.82 45.12 93.82 44.86C93.82 44.63 93.83 44.4 93.86 44.17C93.88 43.98 93.91 43.79 93.96 43.61C93.99 43.46 94.05 43.32 94.11 43.18C94.16 43.08 94.22 42.99 94.3 42.91C94.35 42.85 94.41 42.79 94.48 42.74C94.55 42.7 94.61 42.66 94.68 42.63C94.76 42.59 94.85 42.56 94.93 42.54C95.04 42.51 95.14 42.48 95.25 42.46L96.24 42.3C96.27 42.3 96.3 42.3 96.33 42.3C96.34 42.3 96.35 42.3 96.35 42.31C96.36 42.31 96.37 42.32 96.38 42.32C96.39 42.35 96.4 42.37 96.4 42.4C96.4 42.43 96.4 42.48 96.4 42.54C96.4 42.58 96.4 42.61 96.4 42.65C96.4 42.67 96.39 42.69 96.38 42.72C96.37 42.73 96.35 42.75 96.34 42.76C96.31 42.77 96.28 42.78 96.25 42.78L95.33 42.94C95.25 42.95 95.17 42.96 95.09 42.99C95.03 43 94.96 43.02 94.9 43.05C94.85 43.07 94.8 43.09 94.76 43.12C94.72 43.15 94.67 43.19 94.63 43.23C94.59 43.28 94.55 43.33 94.52 43.39C94.49 43.45 94.46 43.53 94.44 43.6C94.41 43.69 94.39 43.78 94.38 43.87C94.36 43.96 94.35 44.06 94.33 44.17C94.4 44.1 94.47 44.04 94.55 43.98C94.63 43.92 94.71 43.87 94.79 43.83C94.88 43.79 94.97 43.76 95.06 43.74C95.16 43.72 95.26 43.71 95.36 43.71C95.54 43.7 95.72 43.74 95.88 43.81C96.03 43.87 96.15 43.96 96.25 44.09C96.35 44.22 96.42 44.36 96.47 44.52C96.52 44.71 96.54 44.9 96.54 45.09L96.53 45.06ZM95.99 45.11C95.99 44.98 95.98 44.85 95.95 44.72C95.93 44.61 95.89 44.5 95.83 44.4C95.77 44.31 95.69 44.23 95.6 44.18C95.49 44.12 95.37 44.09 95.25 44.09C95.17 44.09 95.08 44.1 95.01 44.12C94.93 44.15 94.86 44.18 94.79 44.22C94.71 44.27 94.64 44.32 94.57 44.38C94.5 44.45 94.42 44.52 94.34 44.61C94.34 44.64 94.34 44.68 94.34 44.72L94.34 44.86C94.34 45.05 94.35 45.24 94.38 45.43C94.41 45.58 94.45 45.72 94.52 45.85C94.58 45.96 94.67 46.05 94.77 46.1C94.89 46.16 95.02 46.19 95.16 46.19C95.28 46.19 95.4 46.16 95.51 46.11C95.62 46.06 95.71 45.99 95.79 45.89C95.86 45.79 95.92 45.67 95.95 45.55C95.99 45.41 96.01 45.26 96 45.11L95.99 45.11ZM99.87 45.07C99.87 45.28 99.85 45.49 99.78 45.69C99.73 45.87 99.63 46.03 99.51 46.18C99.39 46.31 99.24 46.42 99.07 46.49C98.87 46.57 98.66 46.61 98.45 46.61C98.25 46.61 98.05 46.58 97.86 46.51C97.69 46.44 97.55 46.34 97.43 46.21C97.32 46.08 97.23 45.92 97.18 45.75C97.12 45.55 97.1 45.34 97.1 45.13C97.1 44.92 97.12 44.71 97.19 44.51C97.24 44.33 97.33 44.16 97.46 44.02C97.58 43.89 97.73 43.78 97.9 43.71C98.1 43.63 98.31 43.59 98.52 43.59C98.72 43.59 98.92 43.62 99.11 43.69C99.28 43.76 99.42 43.86 99.54 43.99C99.65 44.12 99.74 44.28 99.79 44.45C99.85 44.65 99.88 44.86 99.88 45.07L99.87 45.07ZM99.33 45.1C99.33 44.96 99.32 44.82 99.29 44.68C99.26 44.56 99.22 44.44 99.15 44.33C99.08 44.23 98.99 44.15 98.88 44.1C98.75 44.04 98.61 44.01 98.47 44.01C98.34 44.01 98.2 44.04 98.08 44.09C97.97 44.14 97.88 44.22 97.81 44.32C97.74 44.42 97.68 44.54 97.66 44.66C97.62 44.8 97.6 44.95 97.6 45.09C97.6 45.23 97.62 45.38 97.64 45.51C97.67 45.64 97.72 45.76 97.78 45.86C97.85 45.96 97.95 46.04 98.05 46.09C98.18 46.16 98.32 46.19 98.47 46.18C98.6 46.19 98.73 46.16 98.85 46.1C98.96 46.05 99.05 45.98 99.12 45.88C99.2 45.78 99.25 45.66 99.28 45.54C99.31 45.4 99.33 45.25 99.33 45.1L99.33 45.1ZM102.89 45.69C102.89 45.82 102.86 45.95 102.81 46.07C102.75 46.19 102.66 46.28 102.56 46.36C102.43 46.44 102.3 46.5 102.15 46.53C101.97 46.57 101.78 46.59 101.59 46.59L101.39 46.59L101.2 46.59L101.03 46.59C100.97 46.59 100.91 46.59 100.85 46.57C100.82 46.57 100.78 46.57 100.75 46.55C100.72 46.54 100.69 46.52 100.67 46.49C100.65 46.47 100.63 46.44 100.62 46.4C100.61 46.37 100.61 46.34 100.61 46.3L100.61 43.94C100.61 43.88 100.63 43.81 100.67 43.75C100.72 43.7 100.78 43.68 100.84 43.67L101.01 43.66L101.2 43.66L101.4 43.66L101.6 43.66C101.78 43.66 101.95 43.67 102.12 43.71C102.25 43.73 102.37 43.78 102.48 43.85C102.58 43.91 102.65 43.99 102.7 44.08C102.75 44.18 102.77 44.29 102.77 44.39C102.77 44.54 102.73 44.68 102.64 44.79C102.55 44.91 102.42 44.99 102.28 45.03C102.45 45.05 102.61 45.14 102.73 45.27C102.84 45.4 102.9 45.56 102.89 45.73L102.89 45.69ZM102.3 44.4C102.3 44.34 102.29 44.28 102.26 44.22C102.24 44.17 102.19 44.12 102.14 44.09C102.07 44.05 102 44.02 101.92 44.01C101.81 43.99 101.7 43.98 101.6 43.98C101.5 43.98 101.41 43.98 101.32 43.98L101.12 44L101.12 44.85L101.64 44.85C101.81 44.86 101.98 44.82 102.13 44.73C102.18 44.69 102.22 44.64 102.25 44.58C102.28 44.52 102.3 44.46 102.29 44.39L102.3 44.4ZM102.39 45.68C102.39 45.61 102.38 45.53 102.35 45.47C102.32 45.4 102.27 45.35 102.21 45.31C102.14 45.27 102.05 45.24 101.97 45.22C101.85 45.2 101.74 45.19 101.62 45.19L101.13 45.19L101.13 46.16L101.25 46.18L101.38 46.18L101.51 46.18L101.63 46.18C101.75 46.18 101.86 46.17 101.97 46.14C102.06 46.12 102.14 46.09 102.21 46.04C102.27 46 102.32 45.94 102.35 45.88C102.37 45.82 102.39 45.75 102.39 45.68L102.39 45.68Z" fill="#333333" fill-opacity="1.000000" fill-rule="evenodd"/>
			<path id="Vector" d="M26.93 47.47L26.93 46.23C26.94 46.2 26.93 46.17 26.91 46.14C26.9 46.13 26.88 46.12 26.86 46.11C26.85 46.11 26.83 46.11 26.81 46.11L26.42 46.11L26.42 43.72C26.43 43.71 26.43 43.69 26.42 43.68C26.41 43.67 26.4 43.66 26.39 43.65C26.36 43.64 26.33 43.63 26.31 43.63L26.06 43.63C26.03 43.63 26.01 43.64 25.98 43.65C25.97 43.66 25.95 43.67 25.94 43.68C25.93 43.69 25.93 43.71 25.93 43.72L25.93 46.11L24.6 46.11L24.6 43.72C24.61 43.71 24.61 43.69 24.6 43.68C24.59 43.67 24.58 43.66 24.56 43.65C24.54 43.64 24.51 43.63 24.48 43.63L24.23 43.63C24.2 43.63 24.18 43.64 24.15 43.65C24.14 43.66 24.12 43.67 24.11 43.68C24.11 43.69 24.11 43.71 24.11 43.72L24.11 46.36C24.11 46.39 24.11 46.41 24.12 46.43C24.13 46.46 24.14 46.48 24.16 46.5C24.17 46.51 24.19 46.52 24.21 46.53C24.23 46.54 24.25 46.54 24.27 46.54L26.54 46.54L26.54 47.47C26.54 47.49 26.56 47.51 26.59 47.52C26.65 47.53 26.7 47.54 26.76 47.54C26.81 47.54 26.86 47.53 26.92 47.52C26.95 47.52 26.97 47.49 26.97 47.47L26.93 47.47ZM36.38 43.72L36.38 47.55C36.38 47.57 36.38 47.58 36.38 47.59C36.39 47.61 36.41 47.62 36.43 47.63C36.45 47.64 36.48 47.64 36.5 47.65L36.63 47.65L36.75 47.65C36.78 47.64 36.81 47.64 36.83 47.63C36.85 47.62 36.86 47.61 36.87 47.59C36.88 47.58 36.88 47.57 36.87 47.55L36.87 46.18C36.95 46.25 37.02 46.31 37.08 46.36C37.14 46.41 37.21 46.46 37.28 46.5C37.35 46.53 37.42 46.56 37.49 46.57C37.56 46.59 37.64 46.6 37.71 46.6C37.89 46.6 38.07 46.56 38.23 46.49C38.38 46.42 38.5 46.31 38.6 46.18C38.71 46.04 38.79 45.87 38.83 45.69C38.89 45.48 38.92 45.27 38.91 45.05C38.91 44.86 38.89 44.67 38.85 44.48C38.82 44.32 38.75 44.16 38.66 44.01C38.57 43.88 38.45 43.78 38.31 43.7C38.15 43.62 37.98 43.58 37.8 43.58C37.71 43.58 37.61 43.59 37.53 43.61C37.44 43.64 37.36 43.67 37.28 43.71C37.2 43.75 37.12 43.81 37.05 43.87C36.96 43.94 36.88 44.01 36.81 44.09L36.81 43.72C36.81 43.71 36.81 43.69 36.81 43.68C36.79 43.66 36.78 43.65 36.77 43.65C36.74 43.64 36.72 43.63 36.7 43.63L36.49 43.63C36.46 43.63 36.44 43.64 36.41 43.65C36.4 43.65 36.39 43.66 36.38 43.68C36.37 43.69 36.37 43.71 36.38 43.72L36.38 43.72ZM36.9 45.64L36.9 44.55C36.97 44.46 37.04 44.38 37.12 44.3C37.19 44.24 37.26 44.18 37.33 44.14C37.39 44.1 37.46 44.07 37.53 44.04C37.59 44.02 37.65 44.01 37.72 44.01C37.84 44.01 37.95 44.04 38.05 44.11C38.14 44.17 38.21 44.25 38.26 44.35C38.32 44.46 38.35 44.58 38.37 44.7C38.39 44.83 38.4 44.97 38.4 45.11C38.4 45.23 38.39 45.36 38.37 45.49C38.34 45.61 38.3 45.72 38.24 45.83C38.19 45.93 38.11 46.01 38.02 46.07C37.92 46.14 37.81 46.17 37.69 46.16C37.55 46.16 37.41 46.12 37.3 46.03C37.15 45.92 37.01 45.79 36.9 45.64ZM34.44 44.1L34.44 46.47C34.43 46.48 34.43 46.49 34.44 46.51C34.45 46.52 34.46 46.53 34.48 46.54C34.5 46.55 34.53 46.55 34.56 46.55C34.6 46.55 34.64 46.55 34.68 46.55C34.72 46.55 34.76 46.55 34.81 46.55C34.83 46.55 34.86 46.54 34.88 46.54C34.9 46.53 34.91 46.52 34.92 46.51C34.93 46.49 34.93 46.48 34.92 46.47L34.92 44.1L35.75 44.1C35.77 44.1 35.78 44.1 35.8 44.09C35.81 44.08 35.82 44.06 35.83 44.05C35.84 44.02 35.85 44 35.85 43.98C35.85 43.94 35.85 43.91 35.85 43.87C35.85 43.84 35.85 43.81 35.85 43.78C35.85 43.75 35.84 43.73 35.83 43.7C35.82 43.69 35.81 43.67 35.8 43.66C35.78 43.65 35.77 43.65 35.75 43.65L33.58 43.65C33.56 43.65 33.55 43.65 33.54 43.66C33.52 43.67 33.51 43.69 33.5 43.7C33.49 43.73 33.49 43.75 33.48 43.77C33.48 43.8 33.48 43.84 33.48 43.87C33.48 43.9 33.48 43.94 33.48 43.97C33.49 44 33.49 44.02 33.5 44.05C33.51 44.06 33.52 44.08 33.53 44.09C33.55 44.1 33.56 44.1 33.58 44.1L34.44 44.1ZM30.57 43.72L30.57 46.47C30.57 46.48 30.57 46.49 30.57 46.51C30.58 46.52 30.6 46.53 30.62 46.54C30.64 46.55 30.67 46.55 30.7 46.55C30.74 46.55 30.78 46.55 30.82 46.55C30.86 46.55 30.9 46.55 30.95 46.55C30.97 46.55 31 46.54 31.02 46.54C31.04 46.53 31.05 46.52 31.06 46.51C31.07 46.49 31.08 46.48 31.08 46.47L31.08 45.26L32.48 45.26L32.48 46.47C32.48 46.48 32.48 46.49 32.48 46.51C32.49 46.52 32.51 46.53 32.52 46.54C32.55 46.54 32.57 46.55 32.6 46.55C32.64 46.55 32.68 46.55 32.73 46.55C32.77 46.55 32.81 46.55 32.85 46.55C32.87 46.55 32.9 46.55 32.93 46.54C32.94 46.53 32.96 46.52 32.97 46.51C32.97 46.49 32.97 46.48 32.97 46.47L32.97 43.72C32.97 43.71 32.97 43.69 32.97 43.68C32.95 43.67 32.94 43.66 32.93 43.65C32.9 43.64 32.87 43.63 32.85 43.63L32.6 43.63C32.57 43.63 32.55 43.64 32.52 43.65C32.51 43.66 32.49 43.67 32.48 43.68C32.48 43.69 32.48 43.71 32.48 43.72L32.48 44.84L31.08 44.84L31.08 43.72C31.08 43.71 31.07 43.69 31.06 43.68C31.05 43.67 31.04 43.66 31.02 43.65C31 43.64 30.97 43.63 30.95 43.63L30.7 43.63C30.67 43.63 30.64 43.64 30.62 43.65C30.6 43.66 30.59 43.67 30.57 43.68C30.57 43.69 30.57 43.71 30.57 43.72ZM27.6 46.22C27.72 46.34 27.87 46.44 28.03 46.49C28.22 46.56 28.42 46.59 28.63 46.59C28.75 46.59 28.88 46.58 29 46.56C29.1 46.54 29.2 46.52 29.3 46.49C29.38 46.47 29.45 46.45 29.52 46.42C29.55 46.4 29.59 46.39 29.62 46.36C29.63 46.35 29.64 46.34 29.65 46.33C29.65 46.32 29.66 46.3 29.66 46.29L29.66 46.24L29.66 46.17C29.66 46.14 29.66 46.11 29.66 46.08C29.67 46.06 29.67 46.04 29.66 46.02C29.66 46 29.65 45.99 29.64 45.98C29.63 45.98 29.61 45.98 29.6 45.98C29.56 45.99 29.52 46 29.49 46.02C29.44 46.04 29.38 46.06 29.3 46.09C29.22 46.12 29.12 46.14 29.03 46.16C28.92 46.18 28.8 46.19 28.68 46.19C28.54 46.2 28.39 46.17 28.26 46.12C28.15 46.08 28.06 46.01 27.99 45.92C27.91 45.83 27.86 45.72 27.83 45.61C27.8 45.47 27.78 45.33 27.79 45.19L29.59 45.19C29.64 45.19 29.69 45.17 29.73 45.14C29.75 45.12 29.77 45.09 29.78 45.06C29.79 45.04 29.79 45 29.79 44.97L29.79 44.88C29.79 44.71 29.77 44.54 29.72 44.38C29.68 44.23 29.61 44.09 29.51 43.97C29.4 43.85 29.27 43.76 29.13 43.7C28.95 43.62 28.76 43.59 28.57 43.59C28.38 43.59 28.2 43.63 28.03 43.7C27.87 43.77 27.72 43.87 27.61 44C27.48 44.14 27.39 44.3 27.33 44.48C27.27 44.68 27.24 44.9 27.24 45.11C27.24 45.33 27.27 45.55 27.33 45.77C27.39 45.94 27.48 46.1 27.6 46.23L27.6 46.22ZM29.28 44.82L27.77 44.82C27.78 44.71 27.8 44.61 27.83 44.5C27.87 44.4 27.92 44.31 27.98 44.23C28.05 44.15 28.14 44.08 28.24 44.04C28.34 44 28.44 43.97 28.55 43.98C28.65 43.97 28.76 43.99 28.85 44.03C28.94 44.07 29.03 44.13 29.1 44.2C29.23 44.38 29.3 44.6 29.28 44.82Z" fill="#333333" fill-opacity="1.000000" fill-rule="evenodd"/>
			<path id="Vector" d="M57.89 44.89C57.88 44.91 57.88 44.93 57.87 44.95C57.87 44.98 57.87 45.01 57.87 45.04C57.87 45.07 57.87 45.1 57.87 45.12C57.88 45.15 57.88 45.17 57.89 45.19C57.9 45.2 57.91 45.21 57.93 45.22C57.94 45.22 57.96 45.22 57.98 45.22L58.29 45.22C58.41 45.22 58.53 45.23 58.66 45.25C58.75 45.27 58.83 45.3 58.91 45.34C58.97 45.38 59.02 45.43 59.05 45.49C59.09 45.55 59.1 45.62 59.1 45.68C59.1 45.76 59.09 45.83 59.05 45.9C59.02 45.96 58.98 46.02 58.92 46.06C58.86 46.1 58.79 46.14 58.71 46.15C58.62 46.18 58.53 46.19 58.44 46.19C58.32 46.19 58.19 46.17 58.07 46.14C57.93 46.1 57.79 46.04 57.66 45.96C57.63 45.94 57.6 45.92 57.57 45.92C57.55 45.91 57.54 45.91 57.53 45.92C57.52 45.93 57.52 45.94 57.51 45.95C57.5 45.97 57.5 45.99 57.49 46C57.49 46.03 57.49 46.06 57.49 46.09C57.49 46.12 57.49 46.15 57.49 46.18L57.51 46.25C57.51 46.26 57.52 46.28 57.53 46.3C57.54 46.32 57.56 46.33 57.58 46.35C57.61 46.37 57.65 46.4 57.69 46.42C57.75 46.45 57.81 46.47 57.88 46.49C57.96 46.52 58.05 46.54 58.14 46.55C58.24 46.57 58.34 46.58 58.44 46.58C58.61 46.58 58.78 46.56 58.95 46.51C59.08 46.48 59.21 46.42 59.33 46.34C59.43 46.27 59.51 46.17 59.56 46.07C59.62 45.95 59.65 45.82 59.65 45.69C59.65 45.6 59.63 45.51 59.59 45.43C59.56 45.35 59.51 45.27 59.44 45.21C59.38 45.15 59.31 45.1 59.23 45.07C59.16 45.03 59.08 45.01 59 45C59.08 44.97 59.15 44.94 59.22 44.89C59.29 44.85 59.34 44.8 59.39 44.74C59.44 44.68 59.47 44.62 59.5 44.55C59.52 44.48 59.54 44.41 59.53 44.34C59.54 44.22 59.51 44.11 59.46 44.01C59.41 43.91 59.34 43.83 59.26 43.77C59.16 43.7 59.05 43.65 58.93 43.63C58.8 43.59 58.66 43.58 58.52 43.58C58.33 43.58 58.13 43.61 57.95 43.67C57.87 43.69 57.8 43.72 57.73 43.76C57.68 43.78 57.64 43.81 57.6 43.84C57.58 43.87 57.56 43.9 57.55 43.93C57.54 43.97 57.53 44.02 57.54 44.07C57.53 44.1 57.53 44.12 57.54 44.15C57.54 44.17 57.54 44.19 57.55 44.21C57.56 44.22 57.57 44.23 57.58 44.24C57.59 44.24 57.6 44.24 57.61 44.24C57.64 44.23 57.67 44.22 57.7 44.19C57.74 44.17 57.8 44.14 57.87 44.1C57.96 44.07 58.04 44.04 58.12 44.01C58.23 43.98 58.35 43.97 58.46 43.97C58.53 43.97 58.61 43.98 58.68 43.99C58.75 44.01 58.81 44.03 58.86 44.07C58.91 44.1 58.95 44.15 58.98 44.2C59.01 44.25 59.02 44.31 59.02 44.37C59.02 44.44 59.01 44.51 58.98 44.57C58.94 44.63 58.9 44.69 58.84 44.72C58.76 44.76 58.69 44.79 58.6 44.81C58.49 44.83 58.38 44.84 58.27 44.84L57.97 44.84C57.96 44.84 57.94 44.84 57.93 44.84C57.91 44.85 57.9 44.86 57.9 44.87L57.89 44.89ZM44.66 46.47L44.66 43.83C44.66 43.78 44.65 43.73 44.62 43.69C44.6 43.67 44.58 43.66 44.56 43.66C44.55 43.65 44.52 43.64 44.5 43.65L42.47 43.65C42.45 43.65 42.43 43.65 42.41 43.66C42.39 43.66 42.37 43.67 42.36 43.69C42.33 43.73 42.31 43.78 42.32 43.83L42.32 46.47C42.31 46.48 42.31 46.49 42.32 46.51C42.33 46.52 42.34 46.53 42.36 46.54C42.38 46.55 42.41 46.55 42.44 46.55C42.48 46.55 42.52 46.55 42.56 46.55C42.6 46.55 42.64 46.55 42.68 46.55C42.71 46.55 42.74 46.54 42.76 46.54C42.78 46.53 42.79 46.52 42.8 46.51C42.81 46.49 42.82 46.48 42.82 46.47L42.82 44.07L44.13 44.07L44.13 46.47C44.13 46.48 44.14 46.49 44.15 46.51C44.16 46.52 44.17 46.53 44.19 46.54C44.21 46.54 44.24 46.55 44.27 46.55C44.31 46.55 44.35 46.55 44.39 46.55C44.43 46.55 44.47 46.55 44.51 46.55C44.54 46.55 44.57 46.54 44.59 46.54C44.61 46.53 44.62 46.52 44.63 46.51C44.64 46.49 44.65 46.48 44.65 46.47L44.66 46.47ZM83.12 44.47C83.11 44.65 83.17 44.82 83.3 44.95C83.43 45.08 83.59 45.16 83.77 45.19C83.66 45.23 83.56 45.31 83.48 45.4C83.39 45.5 83.32 45.61 83.27 45.73L83.05 46.25L82.98 46.41C82.97 46.43 82.96 46.46 82.96 46.48C82.96 46.49 82.96 46.49 82.97 46.5C82.97 46.51 82.97 46.51 82.98 46.52C82.99 46.53 83.01 46.54 83.02 46.55L83.1 46.55L83.2 46.55L83.33 46.55C83.36 46.55 83.39 46.54 83.42 46.53C83.45 46.52 83.46 46.51 83.48 46.49C83.49 46.47 83.5 46.45 83.51 46.43L83.74 45.89C83.77 45.79 83.81 45.7 83.87 45.62C83.91 45.55 83.96 45.49 84.02 45.44C84.07 45.39 84.14 45.35 84.21 45.33C84.31 45.31 84.41 45.3 84.51 45.3L84.8 45.3L84.8 46.46C84.8 46.47 84.8 46.48 84.8 46.5C84.81 46.51 84.82 46.52 84.84 46.53C84.87 46.54 84.89 46.54 84.92 46.54C84.96 46.55 85 46.55 85.04 46.54C85.09 46.55 85.13 46.55 85.17 46.54C85.2 46.54 85.23 46.54 85.25 46.53C85.27 46.52 85.28 46.51 85.29 46.5C85.29 46.48 85.29 46.47 85.29 46.46L85.29 43.86C85.29 43.81 85.28 43.76 85.24 43.72C85.23 43.7 85.21 43.68 85.18 43.67C85.16 43.66 85.13 43.65 85.11 43.65L84.94 43.64L84.74 43.62L84.54 43.62L84.37 43.62C84.18 43.62 84 43.64 83.82 43.68C83.68 43.72 83.55 43.78 83.43 43.86C83.32 43.92 83.24 44.02 83.18 44.12C83.12 44.24 83.1 44.36 83.1 44.48L83.12 44.47ZM83.66 44.67C83.63 44.61 83.62 44.54 83.62 44.47C83.62 44.41 83.63 44.34 83.66 44.28C83.68 44.22 83.72 44.17 83.78 44.12C83.84 44.08 83.92 44.04 84 44.03C84.11 44 84.23 43.99 84.35 43.99L84.56 43.99C84.64 43.99 84.71 44 84.79 44.01L84.79 44.94L84.37 44.94C84.25 44.94 84.13 44.93 84.01 44.91C83.93 44.89 83.86 44.86 83.79 44.81C83.74 44.78 83.69 44.73 83.66 44.67L83.66 44.67ZM79.86 43.72L79.86 46.47C79.85 46.48 79.85 46.49 79.86 46.51C79.86 46.51 79.87 46.52 79.87 46.52C79.88 46.53 79.89 46.53 79.9 46.54C79.92 46.54 79.94 46.55 79.96 46.55C80 46.55 80.04 46.55 80.08 46.55L80.18 46.55C80.2 46.55 80.22 46.54 80.24 46.54C80.26 46.53 80.27 46.52 80.29 46.51L80.33 46.47L81.5 44.87L81.67 44.64C81.73 44.56 81.78 44.48 81.83 44.4L81.81 44.64C81.81 44.73 81.81 44.81 81.81 44.89L81.81 46.47C81.81 46.48 81.81 46.49 81.82 46.5C81.83 46.52 81.85 46.53 81.87 46.53C81.89 46.54 81.92 46.55 81.95 46.55C81.99 46.55 82.03 46.55 82.07 46.55C82.11 46.55 82.15 46.55 82.19 46.55C82.22 46.55 82.24 46.54 82.27 46.53C82.29 46.53 82.3 46.52 82.31 46.5C82.31 46.49 82.31 46.48 82.31 46.47L82.31 43.72C82.31 43.71 82.31 43.7 82.31 43.68C82.3 43.67 82.29 43.66 82.27 43.65C82.25 43.64 82.23 43.64 82.2 43.64L82.09 43.64L81.99 43.64C81.96 43.64 81.94 43.64 81.92 43.65C81.9 43.66 81.88 43.66 81.87 43.68C81.86 43.69 81.84 43.7 81.83 43.72L80.64 45.33C80.59 45.4 80.53 45.47 80.49 45.55C80.44 45.62 80.39 45.7 80.34 45.77L80.36 45.54C80.36 45.46 80.36 45.39 80.36 45.31L80.36 43.72C80.36 43.7 80.35 43.69 80.34 43.68C80.33 43.66 80.32 43.65 80.3 43.65C80.24 43.63 80.17 43.62 80.1 43.63L79.98 43.63C79.95 43.63 79.92 43.64 79.9 43.65C79.88 43.65 79.86 43.66 79.86 43.68C79.85 43.69 79.85 43.7 79.86 43.72L79.86 43.72ZM76.49 43.72L76.49 46.46C76.48 46.48 76.48 46.49 76.49 46.5C76.5 46.52 76.51 46.53 76.53 46.53C76.55 46.54 76.58 46.55 76.61 46.55C76.65 46.55 76.69 46.55 76.73 46.55C76.77 46.55 76.81 46.55 76.86 46.55C76.88 46.55 76.91 46.54 76.93 46.53C76.95 46.53 76.96 46.52 76.97 46.5C76.98 46.49 76.98 46.48 76.97 46.46L76.97 45.26L78.38 45.26L78.38 46.47C78.37 46.48 78.37 46.49 78.38 46.51C78.39 46.52 78.4 46.53 78.42 46.54C78.44 46.54 78.47 46.55 78.49 46.55C78.54 46.55 78.58 46.55 78.62 46.55C78.66 46.55 78.7 46.55 78.74 46.55C78.77 46.55 78.8 46.55 78.82 46.54C78.84 46.53 78.85 46.52 78.86 46.51C78.87 46.49 78.87 46.48 78.86 46.47L78.86 43.72C78.87 43.71 78.87 43.69 78.86 43.68C78.85 43.67 78.84 43.66 78.82 43.65C78.8 43.64 78.77 43.63 78.74 43.63L78.49 43.63C78.47 43.63 78.44 43.64 78.42 43.65C78.4 43.66 78.39 43.67 78.38 43.68C78.37 43.69 78.37 43.71 78.38 43.72L78.38 44.84L76.97 44.84L76.97 43.72C76.98 43.71 76.98 43.69 76.97 43.68C76.96 43.67 76.95 43.66 76.93 43.65C76.91 43.64 76.88 43.63 76.86 43.63L76.6 43.63C76.57 43.63 76.54 43.64 76.52 43.65C76.5 43.66 76.49 43.67 76.48 43.68C76.47 43.69 76.47 43.71 76.48 43.72L76.49 43.72ZM73.64 45.06C73.53 45.13 73.44 45.23 73.37 45.34C73.31 45.47 73.27 45.61 73.28 45.75C73.28 45.87 73.3 45.99 73.35 46.1C73.39 46.21 73.46 46.3 73.54 46.37C73.63 46.45 73.73 46.5 73.84 46.54C73.97 46.57 74.11 46.59 74.24 46.59C74.4 46.59 74.56 46.56 74.71 46.49C74.86 46.41 75 46.31 75.12 46.19L75.12 46.46C75.12 46.47 75.12 46.48 75.12 46.49C75.13 46.5 75.13 46.5 75.14 46.51C75.16 46.53 75.18 46.54 75.21 46.54C75.25 46.54 75.3 46.54 75.34 46.54C75.38 46.54 75.42 46.54 75.46 46.54C75.49 46.54 75.51 46.53 75.53 46.51C75.54 46.51 75.55 46.5 75.55 46.49C75.55 46.48 75.56 46.47 75.55 46.46L75.55 44.62C75.56 44.47 75.54 44.31 75.5 44.17C75.46 44.05 75.4 43.94 75.31 43.85C75.21 43.76 75.1 43.69 74.97 43.65C74.81 43.6 74.63 43.58 74.46 43.58C74.36 43.58 74.25 43.59 74.15 43.61C74.05 43.63 73.95 43.66 73.86 43.69C73.78 43.71 73.7 43.75 73.62 43.79C73.57 43.81 73.53 43.84 73.48 43.88C73.46 43.9 73.44 43.93 73.43 43.96C73.42 44 73.42 44.04 73.43 44.08C73.42 44.11 73.42 44.14 73.43 44.17C73.43 44.19 73.44 44.21 73.45 44.23C73.45 44.24 73.46 44.25 73.48 44.26C73.49 44.27 73.51 44.27 73.52 44.26C73.56 44.26 73.6 44.24 73.63 44.22C73.69 44.18 73.76 44.15 73.82 44.12C73.91 44.08 74 44.05 74.09 44.02C74.2 43.99 74.32 43.97 74.43 43.97C74.53 43.97 74.63 43.99 74.73 44.02C74.8 44.04 74.87 44.08 74.92 44.14C74.98 44.2 75.01 44.27 75.03 44.34C75.05 44.43 75.06 44.52 75.06 44.61L75.06 44.83L74.68 44.83C74.49 44.82 74.29 44.84 74.1 44.88C73.94 44.91 73.8 44.97 73.66 45.05L73.64 45.06ZM74.61 45.2L75.05 45.2L75.05 45.78C74.94 45.9 74.82 46 74.69 46.09C74.58 46.16 74.45 46.19 74.32 46.19C74.18 46.2 74.04 46.15 73.94 46.06C73.89 46.02 73.85 45.97 73.83 45.91C73.81 45.85 73.8 45.79 73.8 45.72C73.8 45.65 73.81 45.57 73.85 45.5C73.88 45.43 73.93 45.38 74 45.34C74.07 45.29 74.16 45.25 74.25 45.23C74.37 45.21 74.49 45.2 74.61 45.2ZM70.44 43.9L70.44 46.28C70.44 46.32 70.44 46.35 70.45 46.38C70.46 46.42 70.48 46.45 70.5 46.47C70.53 46.5 70.56 46.52 70.59 46.53C70.62 46.54 70.65 46.55 70.69 46.55L70.86 46.57L71.04 46.57L71.22 46.57L71.42 46.57C71.61 46.57 71.8 46.55 71.98 46.51C72.13 46.48 72.27 46.42 72.39 46.33C72.5 46.26 72.58 46.16 72.64 46.05C72.7 45.93 72.72 45.8 72.72 45.66C72.73 45.5 72.67 45.33 72.57 45.2C72.45 45.07 72.28 44.99 72.11 44.96C72.25 44.92 72.38 44.84 72.48 44.72C72.56 44.61 72.6 44.47 72.6 44.33C72.6 44.22 72.58 44.11 72.53 44.01C72.48 43.92 72.41 43.84 72.32 43.78C72.21 43.71 72.08 43.67 71.95 43.64C71.78 43.61 71.61 43.59 71.44 43.6L71.23 43.6L71.03 43.6L70.85 43.6L70.67 43.61C70.61 43.61 70.55 43.64 70.5 43.69C70.46 43.75 70.44 43.81 70.44 43.88L70.44 43.9ZM70.94 44.84L70.94 43.99L71.14 43.98C71.22 43.98 71.31 43.98 71.41 43.98C71.52 43.97 71.63 43.98 71.73 44C71.81 44.02 71.89 44.05 71.95 44.09C72.01 44.12 72.05 44.16 72.08 44.22C72.1 44.28 72.12 44.34 72.12 44.4C72.12 44.46 72.1 44.53 72.07 44.59C72.04 44.65 72 44.7 71.95 44.73C71.8 44.82 71.63 44.86 71.46 44.85L70.94 44.84ZM70.94 45.18L71.43 45.18C71.55 45.18 71.66 45.19 71.78 45.21C71.86 45.23 71.94 45.26 72.02 45.3C72.08 45.34 72.12 45.39 72.15 45.46C72.18 45.52 72.2 45.6 72.2 45.67C72.2 45.74 72.18 45.82 72.15 45.89C72.12 45.95 72.08 46.01 72.02 46.05C71.95 46.1 71.87 46.13 71.78 46.15C71.67 46.17 71.56 46.19 71.44 46.18L71.32 46.18L71.19 46.18L71.06 46.18L70.94 46.17L70.94 45.2L70.94 45.18ZM68.98 44.31C69.05 44.42 69.09 44.53 69.12 44.66C69.15 44.8 69.16 44.94 69.16 45.08C69.16 45.23 69.15 45.37 69.11 45.51C69.08 45.64 69.03 45.75 68.96 45.86C68.89 45.95 68.79 46.03 68.69 46.08C68.56 46.13 68.43 46.16 68.29 46.16C68.15 46.16 68.01 46.13 67.89 46.08C67.78 46.03 67.69 45.95 67.62 45.84C67.55 45.74 67.5 45.62 67.48 45.5C67.45 45.36 67.44 45.22 67.44 45.08C67.44 44.93 67.45 44.78 67.49 44.64C67.52 44.52 67.57 44.4 67.65 44.3C67.72 44.2 67.81 44.13 67.92 44.07C68.04 44.02 68.17 43.99 68.31 44C68.45 43.99 68.59 44.02 68.71 44.08C68.82 44.14 68.92 44.22 68.99 44.32L68.98 44.31ZM67.01 44.49C66.95 44.69 66.92 44.89 66.92 45.1C66.92 45.31 66.95 45.52 67 45.72C67.05 45.89 67.14 46.05 67.26 46.19C67.37 46.32 67.52 46.42 67.68 46.48C67.87 46.55 68.07 46.59 68.28 46.58C68.49 46.59 68.7 46.55 68.89 46.47C69.06 46.4 69.21 46.29 69.34 46.15C69.46 46.01 69.55 45.84 69.61 45.66C69.67 45.46 69.7 45.26 69.7 45.05C69.7 44.84 69.67 44.63 69.61 44.43C69.56 44.26 69.48 44.1 69.36 43.96C69.24 43.83 69.1 43.73 68.94 43.67C68.75 43.6 68.54 43.56 68.34 43.57C68.13 43.56 67.92 43.6 67.72 43.68C67.55 43.75 67.4 43.86 67.28 44C67.16 44.14 67.06 44.31 67.01 44.49L67.01 44.49ZM63.8 43.71L63.8 47.54C63.8 47.55 63.8 47.57 63.8 47.58C63.81 47.6 63.83 47.61 63.84 47.61C63.87 47.62 63.9 47.63 63.92 47.63L64.05 47.63L64.17 47.63C64.2 47.63 64.23 47.62 64.25 47.61C64.27 47.61 64.28 47.6 64.29 47.58C64.3 47.57 64.3 47.55 64.29 47.54L64.29 46.17C64.37 46.24 64.44 46.3 64.5 46.35C64.56 46.4 64.63 46.44 64.7 46.48C64.76 46.52 64.83 46.54 64.9 46.56C64.98 46.58 65.06 46.58 65.13 46.58C65.31 46.59 65.49 46.55 65.65 46.47C65.79 46.4 65.92 46.3 66.02 46.17C66.13 46.02 66.21 45.86 66.25 45.68C66.31 45.47 66.33 45.25 66.33 45.04C66.33 44.85 66.31 44.66 66.27 44.47C66.23 44.3 66.17 44.14 66.07 44C65.99 43.87 65.87 43.76 65.73 43.68C65.57 43.6 65.39 43.56 65.22 43.57C65.04 43.57 64.87 43.61 64.71 43.7C64.63 43.74 64.55 43.79 64.47 43.85C64.39 43.92 64.31 44 64.23 44.07L64.23 43.71C64.24 43.69 64.24 43.68 64.23 43.66C64.22 43.65 64.21 43.64 64.19 43.63C64.17 43.63 64.15 43.62 64.12 43.62L63.91 43.62C63.89 43.62 63.86 43.63 63.84 43.64C63.82 43.64 63.81 43.65 63.8 43.66C63.8 43.68 63.8 43.69 63.8 43.71ZM64.31 45.63L64.31 44.54C64.39 44.45 64.46 44.37 64.54 44.29C64.61 44.23 64.68 44.17 64.75 44.12C64.81 44.08 64.88 44.05 64.94 44.03C65.01 44.01 65.07 44 65.14 44C65.26 44 65.37 44.03 65.47 44.09C65.56 44.16 65.63 44.24 65.68 44.34C65.73 44.45 65.77 44.57 65.79 44.69C65.81 44.82 65.82 44.96 65.82 45.09C65.82 45.22 65.81 45.35 65.78 45.47C65.76 45.59 65.72 45.71 65.66 45.82C65.6 45.92 65.53 46 65.44 46.06C65.34 46.12 65.22 46.15 65.11 46.15C64.97 46.15 64.83 46.1 64.71 46.02C64.57 45.91 64.43 45.78 64.31 45.63ZM60.4 43.71L60.4 46.45C60.39 46.47 60.39 46.48 60.4 46.49C60.4 46.51 60.42 46.52 60.43 46.52C60.45 46.53 60.48 46.54 60.5 46.54C60.54 46.54 60.58 46.54 60.61 46.54L60.71 46.54C60.73 46.54 60.76 46.53 60.78 46.52C60.8 46.52 60.81 46.51 60.82 46.5L60.86 46.45L62.03 44.86L62.21 44.63C62.26 44.55 62.31 44.47 62.36 44.39L62.35 44.63C62.35 44.71 62.35 44.79 62.35 44.87L62.35 46.45C62.35 46.47 62.35 46.48 62.36 46.49C62.37 46.5 62.39 46.51 62.4 46.52C62.43 46.53 62.46 46.53 62.48 46.54C62.52 46.54 62.56 46.54 62.61 46.54C62.65 46.54 62.69 46.54 62.73 46.54C62.76 46.53 62.78 46.53 62.81 46.52C62.82 46.51 62.84 46.5 62.85 46.49C62.85 46.48 62.85 46.46 62.85 46.45L62.85 43.72C62.85 43.71 62.84 43.69 62.84 43.68C62.83 43.67 62.82 43.66 62.8 43.65C62.78 43.64 62.75 43.64 62.73 43.64L62.62 43.64L62.52 43.64C62.49 43.64 62.47 43.64 62.45 43.65C62.43 43.66 62.41 43.66 62.4 43.68L62.36 43.72L61.17 45.33C61.11 45.4 61.06 45.47 61.02 45.55C60.97 45.62 60.92 45.7 60.87 45.77L60.87 45.54C60.87 45.46 60.87 45.38 60.87 45.31L60.87 43.72C60.87 43.7 60.86 43.69 60.85 43.68C60.84 43.66 60.83 43.65 60.81 43.65C60.75 43.63 60.68 43.62 60.61 43.63L60.49 43.63C60.46 43.63 60.44 43.64 60.41 43.65C60.39 43.65 60.38 43.66 60.37 43.68C60.37 43.69 60.37 43.7 60.37 43.72L60.4 43.71ZM56.26 44.19C56.39 44.37 56.46 44.59 56.44 44.81L54.93 44.81C54.93 44.7 54.95 44.59 54.99 44.49C55.02 44.39 55.07 44.3 55.14 44.22C55.2 44.14 55.28 44.08 55.38 44.03C55.48 43.98 55.59 43.96 55.71 43.96C55.81 43.96 55.91 43.98 56 44.01C56.1 44.05 56.18 44.11 56.25 44.19L56.26 44.19ZM54.49 44.46C54.43 44.66 54.4 44.88 54.4 45.09C54.4 45.31 54.43 45.53 54.49 45.75C54.54 45.92 54.64 46.08 54.76 46.21C54.88 46.33 55.03 46.42 55.19 46.48C55.38 46.55 55.59 46.58 55.79 46.58C55.91 46.58 56.04 46.57 56.16 46.55C56.27 46.53 56.38 46.51 56.47 46.48C56.54 46.46 56.61 46.44 56.68 46.41C56.72 46.39 56.75 46.37 56.78 46.35C56.79 46.34 56.8 46.33 56.81 46.32C56.81 46.3 56.81 46.29 56.81 46.28L56.81 46.23L56.81 46.07C56.81 46.04 56.8 46.02 56.79 46.01C56.79 45.99 56.78 45.98 56.77 45.97C56.76 45.97 56.74 45.97 56.73 45.97C56.69 45.98 56.65 45.99 56.62 46.01C56.56 46.03 56.5 46.06 56.43 46.08C56.35 46.11 56.26 46.13 56.16 46.15C56.05 46.17 55.93 46.18 55.81 46.18C55.67 46.18 55.52 46.16 55.39 46.11C55.28 46.06 55.19 46 55.12 45.91C55.04 45.82 54.99 45.71 54.96 45.59C54.93 45.46 54.92 45.32 54.92 45.18L56.74 45.18C56.79 45.18 56.84 45.16 56.87 45.13C56.9 45.11 56.91 45.08 56.92 45.05C56.93 45.03 56.94 44.99 56.93 44.96L56.93 44.87C56.94 44.7 56.91 44.53 56.87 44.37C56.82 44.22 56.75 44.08 56.65 43.96C56.55 43.84 56.42 43.75 56.27 43.69C56.1 43.61 55.91 43.58 55.73 43.58C55.54 43.58 55.36 43.62 55.18 43.69C55.02 43.76 54.88 43.86 54.77 43.99C54.64 44.13 54.55 44.29 54.49 44.47L54.49 44.46ZM52.69 44.1L52.69 46.47C52.68 46.48 52.68 46.49 52.69 46.51C52.7 46.52 52.71 46.53 52.73 46.54C52.75 46.55 52.78 46.55 52.81 46.55C52.85 46.55 52.89 46.55 52.93 46.55C52.97 46.55 53.01 46.55 53.06 46.55C53.08 46.55 53.11 46.54 53.13 46.54C53.15 46.53 53.16 46.52 53.17 46.51C53.18 46.49 53.18 46.48 53.17 46.47L53.17 44.1L53.99 44.1C54.01 44.1 54.02 44.1 54.04 44.09C54.05 44.08 54.06 44.06 54.07 44.05C54.08 44.02 54.08 44 54.09 43.98C54.09 43.95 54.09 43.91 54.09 43.87C54.09 43.83 54.09 43.8 54.09 43.78C54.08 43.75 54.08 43.73 54.07 43.7C54.06 43.69 54.05 43.67 54.03 43.66C54.02 43.65 54.01 43.65 53.99 43.65L51.82 43.65C51.8 43.65 51.79 43.65 51.77 43.66C51.76 43.67 51.75 43.69 51.74 43.7C51.73 43.72 51.72 43.75 51.72 43.77C51.72 43.81 51.72 43.84 51.72 43.87C51.72 43.9 51.72 43.94 51.72 43.97C51.72 44 51.73 44.02 51.74 44.05C51.75 44.06 51.76 44.08 51.77 44.09C51.78 44.1 51.8 44.1 51.82 44.1L52.69 44.1ZM48.81 44.5C48.75 44.7 48.72 44.91 48.72 45.12C48.72 45.33 48.75 45.54 48.8 45.74C48.85 45.91 48.94 46.07 49.06 46.2C49.17 46.33 49.32 46.43 49.48 46.5C49.67 46.57 49.87 46.6 50.07 46.6C50.29 46.6 50.5 46.56 50.69 46.48C50.86 46.41 51.01 46.3 51.13 46.16C51.26 46.02 51.35 45.86 51.41 45.68C51.47 45.48 51.5 45.27 51.5 45.06C51.5 44.85 51.47 44.64 51.41 44.44C51.36 44.27 51.27 44.11 51.16 43.98C51.04 43.85 50.9 43.75 50.73 43.68C50.54 43.61 50.34 43.58 50.14 43.58C49.93 43.58 49.72 43.62 49.52 43.7C49.35 43.77 49.2 43.87 49.08 44.01C48.95 44.15 48.86 44.32 48.81 44.5L48.81 44.5ZM49.25 45.08C49.25 44.94 49.27 44.79 49.3 44.65C49.33 44.53 49.38 44.41 49.46 44.3C49.53 44.21 49.62 44.13 49.73 44.08C49.85 44.02 49.98 44 50.12 44C50.26 44 50.4 44.03 50.53 44.09C50.64 44.14 50.73 44.22 50.8 44.32C50.86 44.43 50.91 44.55 50.94 44.67C50.97 44.81 50.98 44.95 50.98 45.09C50.98 45.24 50.96 45.39 50.93 45.53C50.9 45.65 50.85 45.77 50.78 45.87C50.7 45.97 50.61 46.04 50.5 46.09C50.38 46.15 50.25 46.18 50.12 46.17C49.98 46.18 49.83 46.15 49.71 46.08C49.6 46.03 49.5 45.95 49.44 45.85C49.37 45.74 49.32 45.63 49.3 45.5C49.27 45.36 49.26 45.22 49.26 45.08L49.25 45.08ZM45.6 43.72L45.6 47.55C45.6 47.57 45.6 47.58 45.6 47.59C45.61 47.61 45.63 47.62 45.64 47.63C45.67 47.64 45.69 47.64 45.72 47.65L45.85 47.65L45.97 47.65C46 47.64 46.02 47.64 46.05 47.63C46.07 47.62 46.08 47.61 46.09 47.59C46.09 47.58 46.09 47.57 46.09 47.55L46.09 46.18C46.16 46.25 46.23 46.31 46.3 46.36C46.36 46.41 46.42 46.46 46.5 46.5C46.56 46.53 46.63 46.56 46.7 46.57C46.77 46.59 46.85 46.6 46.93 46.6C47.1 46.6 47.28 46.56 47.44 46.49C47.59 46.42 47.72 46.31 47.82 46.18C47.92 46.04 48 45.87 48.05 45.69C48.1 45.48 48.13 45.27 48.13 45.05C48.13 44.86 48.11 44.67 48.06 44.48C48.03 44.32 47.96 44.16 47.87 44.01C47.78 43.88 47.66 43.77 47.52 43.7C47.36 43.62 47.19 43.58 47.01 43.58C46.92 43.58 46.83 43.59 46.74 43.61C46.65 43.64 46.57 43.67 46.49 43.71C46.41 43.75 46.33 43.81 46.26 43.87C46.17 43.94 46.09 44.01 46.01 44.09L46.01 43.72C46.02 43.71 46.02 43.69 46.01 43.68C46 43.66 45.99 43.65 45.98 43.65C45.95 43.64 45.93 43.63 45.91 43.63L45.69 43.63C45.67 43.63 45.65 43.64 45.62 43.65C45.61 43.65 45.6 43.66 45.59 43.68C45.58 43.69 45.58 43.71 45.59 43.72L45.6 43.72ZM46.11 45.64L46.11 44.55C46.18 44.46 46.26 44.38 46.34 44.3C46.4 44.24 46.47 44.18 46.55 44.14C46.61 44.1 46.67 44.06 46.74 44.04C46.8 44.02 46.87 44.01 46.94 44.01C47.05 44.01 47.17 44.04 47.27 44.11C47.36 44.17 47.43 44.25 47.48 44.35C47.53 44.46 47.57 44.58 47.59 44.7C47.61 44.83 47.62 44.97 47.62 45.11C47.62 45.23 47.61 45.36 47.58 45.49C47.56 45.61 47.51 45.72 47.45 45.83C47.4 45.93 47.32 46.01 47.23 46.07C47.14 46.14 47.02 46.17 46.91 46.16C46.76 46.16 46.62 46.12 46.51 46.03C46.36 45.92 46.23 45.79 46.11 45.64L46.11 45.64Z" fill="#333333" fill-opacity="1.000000" fill-rule="evenodd"/>
		</g>
	</g>
</svg>
