<svg width="16.500732" height="9.000977" viewBox="0 0 16.5007 9.00098" fill="none" xmlns="http://www.w3.org/2000/svg" xmlns:xlink="http://www.w3.org/1999/xlink">
	<desc>
			Created with Pixso.
	</desc>
	<defs/>
	<path id="Vector" d="M16.28 1.28L8.78 8.78C8.71 8.85 8.62 8.9 8.53 8.94C8.44 8.98 8.34 9 8.25 9C8.15 9 8.05 8.98 7.96 8.94C7.87 8.9 7.78 8.85 7.71 8.78L0.21 1.28C0.07 1.14 0 0.94 0 0.75C0 0.55 0.07 0.36 0.21 0.21C0.36 0.07 0.55 0 0.75 0C0.94 0 1.14 0.07 1.28 0.21L8.25 7.18L15.21 0.21C15.28 0.14 15.37 0.09 15.46 0.05C15.55 0.01 15.65 0 15.75 0C15.84 0 15.94 0.01 16.03 0.05C16.12 0.09 16.21 0.14 16.28 0.21C16.35 0.28 16.4 0.37 16.44 0.46C16.48 0.55 16.5 0.65 16.5 0.75C16.5 0.84 16.48 0.94 16.44 1.03C16.4 1.12 16.35 1.21 16.28 1.28Z" fill="#323434" fill-opacity="1.000000" fill-rule="nonzero"/>
</svg>
