<svg width="12.000488" height="10.000549" viewBox="0 0 12.0005 10.0005" fill="none" xmlns="http://www.w3.org/2000/svg" xmlns:xlink="http://www.w3.org/1999/xlink">
	<desc>
			Created with Pixso.
	</desc>
	<defs/>
	<path id="Vector" d="M11.85 5.35L7.35 9.85C7.26 9.94 7.13 10 7 10C6.86 10 6.73 9.94 6.64 9.85C6.55 9.76 6.49 9.63 6.49 9.5C6.49 9.36 6.55 9.24 6.64 9.14L10.29 5.5L0.5 5.5C0.36 5.5 0.24 5.44 0.14 5.35C0.05 5.26 0 5.13 0 5C0 4.86 0.05 4.74 0.14 4.64C0.24 4.55 0.36 4.5 0.5 4.5L10.29 4.5L6.64 0.85C6.55 0.76 6.49 0.63 6.49 0.5C6.49 0.36 6.55 0.24 6.64 0.14C6.73 0.05 6.86 0 7 0C7.13 0 7.26 0.05 7.35 0.14L11.85 4.64C11.9 4.69 11.93 4.74 11.96 4.8C11.98 4.86 12 4.93 12 5C12 5.06 11.98 5.13 11.96 5.19C11.93 5.25 11.9 5.3 11.85 5.35Z" fill="#14A9BD" fill-opacity="1.000000" fill-rule="nonzero"/>
</svg>
