<svg width="12.000488" height="10.000549" viewBox="0 0 12.0005 10.0005" fill="none" xmlns="http://www.w3.org/2000/svg" xmlns:xlink="http://www.w3.org/1999/xlink">
	<desc>
			Created with Pixso.
	</desc>
	<defs/>
	<path id="Vector" d="M12 5C12 5.13 11.94 5.26 11.85 5.35C11.76 5.44 11.63 5.5 11.5 5.5L1.7 5.5L5.35 9.14C5.4 9.19 5.43 9.24 5.46 9.3C5.48 9.36 5.5 9.43 5.5 9.5C5.5 9.56 5.48 9.63 5.46 9.69C5.43 9.75 5.4 9.8 5.35 9.85C5.3 9.9 5.25 9.93 5.19 9.96C5.13 9.98 5.06 10 5 10C4.93 10 4.86 9.98 4.8 9.96C4.74 9.93 4.69 9.9 4.64 9.85L0.14 5.35C0.1 5.3 0.06 5.25 0.03 5.19C0.01 5.13 0 5.06 0 5C0 4.93 0.01 4.86 0.03 4.8C0.06 4.74 0.1 4.69 0.14 4.64L4.64 0.14C4.74 0.05 4.86 0 5 0C5.13 0 5.26 0.05 5.35 0.14C5.44 0.24 5.5 0.36 5.5 0.5C5.5 0.63 5.44 0.76 5.35 0.85L1.7 4.5L11.5 4.5C11.63 4.5 11.76 4.55 11.85 4.64C11.94 4.74 12 4.86 12 5Z" fill="#262828" fill-opacity="0.300000" fill-rule="nonzero"/>
</svg>
