<svg width="19.500000" height="19.500000" viewBox="0 0 19.5 19.5" fill="none" xmlns="http://www.w3.org/2000/svg" xmlns:xlink="http://www.w3.org/1999/xlink">
	<desc>
			Created with Pixso.
	</desc>
	<defs/>
	<path id="Vector" d="M14.03 6.96C14.1 7.03 14.15 7.12 14.19 7.21C14.23 7.3 14.25 7.4 14.25 7.5C14.25 7.59 14.23 7.69 14.19 7.78C14.15 7.87 14.1 7.96 14.03 8.03L8.78 13.28C8.71 13.35 8.62 13.4 8.53 13.44C8.44 13.48 8.34 13.5 8.25 13.5C8.15 13.5 8.05 13.48 7.96 13.44C7.87 13.4 7.78 13.35 7.71 13.28L5.46 11.03C5.32 10.88 5.24 10.69 5.24 10.5C5.24 10.3 5.32 10.11 5.46 9.96C5.61 9.82 5.8 9.74 6 9.74C6.19 9.74 6.38 9.82 6.53 9.96L8.25 11.68L12.96 6.96C13.03 6.89 13.12 6.84 13.21 6.8C13.3 6.76 13.4 6.74 13.5 6.74C13.59 6.74 13.69 6.76 13.78 6.8C13.87 6.84 13.96 6.89 14.03 6.96ZM19.5 9.75C19.5 11.67 18.92 13.56 17.85 15.16C16.78 16.77 15.26 18.01 13.48 18.75C11.69 19.49 9.73 19.68 7.84 19.31C5.95 18.93 4.21 18 2.85 16.64C1.49 15.28 0.56 13.54 0.18 11.65C-0.19 9.76 0 7.8 0.74 6.01C1.48 4.23 2.72 2.71 4.33 1.64C5.93 0.57 7.82 0 9.75 0C12.33 0 14.81 1.03 16.64 2.85C18.46 4.68 19.49 7.16 19.5 9.75ZM18 9.75C18 8.11 17.51 6.52 16.6 5.16C15.7 3.8 14.41 2.75 12.9 2.12C11.39 1.5 9.74 1.34 8.14 1.65C6.54 1.97 5.07 2.76 3.91 3.91C2.76 5.07 1.97 6.54 1.65 8.14C1.34 9.74 1.5 11.39 2.12 12.9C2.75 14.41 3.8 15.7 5.16 16.6C6.52 17.51 8.11 18 9.75 18C11.93 17.99 14.03 17.12 15.58 15.58C17.12 14.03 17.99 11.93 18 9.75Z" fill="#14A9BD" fill-opacity="1.000000" fill-rule="nonzero"/>
</svg>
