<svg width="4.000000" height="8.000000" viewBox="0 0 4 8" fill="none" xmlns="http://www.w3.org/2000/svg" xmlns:xlink="http://www.w3.org/1999/xlink">
	<desc>
			Created with Pixso.
	</desc>
	<defs/>
	<path id="Vector" d="M3.9 4.25L0.56 7.89C0.53 7.92 0.5 7.95 0.46 7.97C0.41 7.99 0.37 8 0.33 8C0.28 8 0.24 7.99 0.2 7.97C0.16 7.95 0.12 7.92 0.09 7.89C0.06 7.85 0.04 7.81 0.02 7.77C0 7.73 0 7.68 0 7.63C0 7.58 0 7.54 0.02 7.49C0.04 7.45 0.06 7.41 0.09 7.37L3.19 4L0.09 0.62C0.03 0.55 0 0.46 0 0.36C0 0.26 0.03 0.17 0.09 0.1C0.16 0.03 0.24 0 0.33 0C0.42 0 0.5 0.03 0.56 0.1L3.9 3.74C3.93 3.77 3.95 3.81 3.97 3.86C3.99 3.9 4 3.95 4 4C4 4.04 3.99 4.09 3.97 4.13C3.95 4.18 3.93 4.22 3.9 4.25Z" fill="#232323" fill-opacity="0.700000" fill-rule="nonzero"/>
</svg>
