<svg width="15.000977" height="15.000732" viewBox="0 0 15.001 15.0007" fill="none" xmlns="http://www.w3.org/2000/svg" xmlns:xlink="http://www.w3.org/1999/xlink">
	<desc>
			Created with Pixso.
	</desc>
	<defs/>
	<path id="Vector" d="M14.78 13.71C14.85 13.78 14.9 13.87 14.94 13.96C14.98 14.05 15 14.15 15 14.25C15 14.34 14.98 14.44 14.94 14.53C14.9 14.62 14.85 14.71 14.78 14.78C14.71 14.85 14.62 14.9 14.53 14.94C14.44 14.98 14.34 15 14.25 15C14.15 15 14.05 14.98 13.96 14.94C13.87 14.9 13.78 14.85 13.71 14.78L7.5 8.56L1.28 14.78C1.14 14.92 0.94 15 0.75 15C0.55 15 0.36 14.92 0.21 14.78C0.07 14.64 0 14.44 0 14.25C0 14.05 0.07 13.86 0.21 13.71L6.43 7.5L0.21 1.28C0.07 1.14 0 0.94 0 0.75C0 0.55 0.07 0.36 0.21 0.21C0.36 0.07 0.55 0 0.75 0C0.94 0 1.14 0.07 1.28 0.21L7.5 6.44L13.71 0.21C13.86 0.07 14.05 0 14.25 0C14.44 0 14.64 0.07 14.78 0.21C14.92 0.36 15 0.55 15 0.75C15 0.94 14.92 1.14 14.78 1.28L8.56 7.5L14.78 13.71Z" fill="#262828" fill-opacity="0.600000" fill-rule="nonzero"/>
</svg>
