<svg width="32.000000" height="32.000000" viewBox="0 0 32 32" fill="none" xmlns="http://www.w3.org/2000/svg" xmlns:xlink="http://www.w3.org/1999/xlink">
	<desc>
			Created with Pixso.
	</desc>
	<defs/>
	<path id="Rectangle 1" d="M0 16C0 7.16 7.16 0 16 0C24.83 0 32 7.16 32 16C32 24.83 24.83 32 16 32C7.16 32 0 24.83 0 16Z" fill="#FFFFFF" fill-opacity="0.100000" fill-rule="nonzero"/>
	<path id="Vector" d="M13.33 16C13.33 14.52 14.52 13.33 16 13.33C17.47 13.33 18.66 14.52 18.66 16C18.66 17.47 17.47 18.66 16 18.66C14.52 18.66 13.33 17.47 13.33 16ZM11.89 16C11.89 18.26 13.73 20.1 16 20.1C18.26 20.1 20.1 18.26 20.1 16C20.1 13.73 18.26 11.89 16 11.89C13.73 11.89 11.89 13.73 11.89 16ZM19.31 11.72C19.31 11.91 19.36 12.1 19.47 12.26C19.57 12.42 19.72 12.54 19.9 12.61C20.07 12.68 20.27 12.7 20.45 12.67C20.64 12.63 20.81 12.54 20.94 12.4C21.08 12.27 21.17 12.1 21.21 11.91C21.24 11.73 21.23 11.53 21.15 11.36C21.08 11.18 20.96 11.03 20.8 10.93C20.64 10.82 20.46 10.76 20.27 10.76L20.27 10.76C20.01 10.76 19.77 10.87 19.59 11.05C19.41 11.23 19.31 11.47 19.31 11.72ZM12.76 22.51C11.98 22.47 11.56 22.34 11.28 22.23C10.9 22.09 10.64 21.91 10.36 21.63C10.08 21.35 9.9 21.09 9.76 20.71C9.65 20.43 9.52 20.01 9.48 19.23C9.44 18.38 9.44 18.13 9.44 16C9.44 13.86 9.45 13.61 9.48 12.76C9.52 11.98 9.65 11.56 9.76 11.28C9.9 10.9 10.08 10.64 10.36 10.36C10.64 10.08 10.9 9.9 11.28 9.76C11.56 9.65 11.98 9.52 12.76 9.48C13.61 9.44 13.86 9.44 16 9.44C18.13 9.44 18.38 9.44 19.23 9.48C20.01 9.52 20.43 9.65 20.71 9.76C21.09 9.9 21.35 10.08 21.63 10.36C21.91 10.64 22.09 10.9 22.23 11.28C22.34 11.56 22.47 11.98 22.51 12.76C22.55 13.61 22.55 13.86 22.55 16C22.55 18.13 22.55 18.38 22.51 19.23C22.47 20.01 22.34 20.43 22.23 20.71C22.09 21.09 21.91 21.35 21.63 21.63C21.35 21.91 21.09 22.09 20.71 22.23C20.43 22.34 20.01 22.47 19.23 22.51C18.38 22.55 18.13 22.55 16 22.55C13.86 22.55 13.61 22.55 12.76 22.51ZM12.7 8.04C11.85 8.08 11.26 8.22 10.76 8.41C10.23 8.62 9.78 8.89 9.34 9.34C8.89 9.78 8.62 10.23 8.41 10.75C8.22 11.26 8.08 11.85 8.04 12.7C8 13.55 8 13.82 8 16C8 18.17 8 18.44 8.04 19.29C8.08 20.14 8.22 20.73 8.41 21.24C8.62 21.76 8.89 22.21 9.34 22.65C9.78 23.1 10.23 23.37 10.76 23.58C11.26 23.77 11.85 23.91 12.7 23.95C13.55 23.99 13.82 24 16 24C18.17 24 18.44 23.99 19.29 23.95C20.14 23.91 20.73 23.77 21.24 23.58C21.76 23.37 22.21 23.1 22.65 22.65C23.1 22.21 23.37 21.76 23.58 21.24C23.77 20.73 23.91 20.14 23.95 19.29C23.99 18.44 23.99 18.17 23.99 16C23.99 13.82 23.99 13.55 23.95 12.7C23.91 11.85 23.77 11.26 23.58 10.75C23.37 10.23 23.1 9.78 22.65 9.34C22.21 8.89 21.76 8.62 21.24 8.41C20.73 8.22 20.14 8.08 19.29 8.04C18.44 8 18.17 8 16 8C13.82 8 13.55 8 12.7 8.04Z" fill="#FFFFFF" fill-opacity="1.000000" fill-rule="nonzero"/>
	<path id="Vector" d="M13.33 16C13.33 14.52 14.52 13.33 16 13.33C17.47 13.33 18.66 14.52 18.66 16C18.66 17.47 17.47 18.66 16 18.66C14.52 18.66 13.33 17.47 13.33 16ZM11.89 16C11.89 18.26 13.73 20.1 16 20.1C18.26 20.1 20.1 18.26 20.1 16C20.1 13.73 18.26 11.89 16 11.89C13.73 11.89 11.89 13.73 11.89 16ZM19.31 11.72C19.31 11.91 19.36 12.1 19.47 12.26C19.57 12.42 19.72 12.54 19.9 12.61C20.07 12.68 20.27 12.7 20.45 12.67C20.64 12.63 20.81 12.54 20.94 12.4C21.08 12.27 21.17 12.1 21.21 11.91C21.24 11.73 21.23 11.53 21.15 11.36C21.08 11.18 20.96 11.03 20.8 10.93C20.64 10.82 20.46 10.76 20.27 10.76L20.27 10.76C20.01 10.76 19.77 10.87 19.59 11.05C19.41 11.23 19.31 11.47 19.31 11.72ZM12.76 22.51C11.98 22.47 11.56 22.34 11.28 22.23C10.9 22.09 10.64 21.91 10.36 21.63C10.08 21.35 9.9 21.09 9.76 20.71C9.65 20.43 9.52 20.01 9.48 19.23C9.44 18.38 9.44 18.13 9.44 16C9.44 13.86 9.45 13.61 9.48 12.76C9.52 11.98 9.65 11.56 9.76 11.28C9.9 10.9 10.08 10.64 10.36 10.36C10.64 10.08 10.9 9.9 11.28 9.76C11.56 9.65 11.98 9.52 12.76 9.48C13.61 9.44 13.86 9.44 16 9.44C18.13 9.44 18.38 9.44 19.23 9.48C20.01 9.52 20.43 9.65 20.71 9.76C21.09 9.9 21.35 10.08 21.63 10.36C21.91 10.64 22.09 10.9 22.23 11.28C22.34 11.56 22.47 11.98 22.51 12.76C22.55 13.61 22.55 13.86 22.55 16C22.55 18.13 22.55 18.38 22.51 19.23C22.47 20.01 22.34 20.43 22.23 20.71C22.09 21.09 21.91 21.35 21.63 21.63C21.35 21.91 21.09 22.09 20.71 22.23C20.43 22.34 20.01 22.47 19.23 22.51C18.38 22.55 18.13 22.55 16 22.55C13.86 22.55 13.61 22.55 12.76 22.51ZM12.7 8.04C11.85 8.08 11.26 8.22 10.76 8.41C10.23 8.62 9.78 8.89 9.34 9.34C8.89 9.78 8.62 10.23 8.41 10.75C8.22 11.26 8.08 11.85 8.04 12.7C8 13.55 8 13.82 8 16C8 18.17 8 18.44 8.04 19.29C8.08 20.14 8.22 20.73 8.41 21.24C8.62 21.76 8.89 22.21 9.34 22.65C9.78 23.1 10.23 23.37 10.76 23.58C11.26 23.77 11.85 23.91 12.7 23.95C13.55 23.99 13.82 24 16 24C18.17 24 18.44 23.99 19.29 23.95C20.14 23.91 20.73 23.77 21.24 23.58C21.76 23.37 22.21 23.1 22.65 22.65C23.1 22.21 23.37 21.76 23.58 21.24C23.77 20.73 23.91 20.14 23.95 19.29C23.99 18.44 23.99 18.17 23.99 16C23.99 13.82 23.99 13.55 23.95 12.7C23.91 11.85 23.77 11.26 23.58 10.75C23.37 10.23 23.1 9.78 22.65 9.34C22.21 8.89 21.76 8.62 21.24 8.41C20.73 8.22 20.14 8.08 19.29 8.04C18.44 8 18.17 8 16 8C13.82 8 13.55 8 12.7 8.04Z" fill="#FFFFFF" fill-opacity="1.000000" fill-rule="nonzero"/>
</svg>
