<svg width="80.000000" height="40.000000" viewBox="0 0 80 40" fill="none" xmlns="http://www.w3.org/2000/svg" xmlns:xlink="http://www.w3.org/1999/xlink">
	<desc>
			Created with Pixso.
	</desc>
	<defs>
		<clipPath id="clip193_6496">
			<rect id="noun-dentist-6721284 1" rx="0.000000" width="23.000000" height="23.000000" transform="translate(48.500000 8.500000)" fill="white" fill-opacity="0"/>
		</clipPath>
	</defs>
	<circle id="Ellipse 1" cx="20.000000" cy="20.000000" r="20.000000" fill="#14A9BD" fill-opacity="0.200000"/>
	<circle id="Ellipse 1" cx="20.000000" cy="20.000000" r="19.500000" stroke="#FFFFFF" stroke-opacity="1.000000" stroke-width="1.000000"/>
	<circle id="Ellipse 2" cx="40.000000" cy="20.000000" r="20.000000" fill="#9FDBE3" fill-opacity="1.000000"/>
	<circle id="Ellipse 2" cx="40.000000" cy="20.000000" r="19.500000" stroke="#FFFFFF" stroke-opacity="1.000000" stroke-width="1.000000"/>
	<circle id="Ellipse 3" cx="60.000000" cy="20.000000" r="20.000000" fill="#5AC2D0" fill-opacity="1.000000"/>
	<circle id="Ellipse 3" cx="60.000000" cy="20.000000" r="19.500000" stroke="#FFFFFF" stroke-opacity="1.000000" stroke-width="1.000000"/>
	<rect id="noun-dentist-6721284 1" rx="0.000000" width="23.000000" height="23.000000" transform="translate(48.500000 8.500000)" fill="#FFFFFF" fill-opacity="0"/>
	<g clip-path="url(#clip193_6496)">
		<path id="Vector" d="M54.9 26.05C54.69 26.01 54.17 25.84 53.82 25.41L53.54 28.47L60.37 28.47L59.18 26.72C58.01 26.55 55.4 26.18 54.9 26.05Z" fill="#FFFFFF" fill-opacity="1.000000" fill-rule="nonzero"/>
		<path id="Vector" d="M61.83 12.86C61.83 14.22 60.73 15.32 59.37 15.32C58.01 15.32 56.91 14.22 56.91 12.86C56.91 11.5 58.01 10.4 59.37 10.4C60.73 10.4 61.83 11.5 61.83 12.86Z" fill="#FFFFFF" fill-opacity="1.000000" fill-rule="nonzero"/>
		<path id="Vector" d="M61.88 28.47C61.88 28.47 60.37 25.84 62.66 24.58C63.91 23.89 64.64 23.48 65.5 23.51C67.64 23.57 70 28.41 70 28.41L61.88 28.47Z" fill="#FFFFFF" fill-opacity="1.000000" fill-rule="nonzero"/>
		<path id="Vector" d="M53.89 24.28C53.8 25.28 54.56 25.6 54.99 25.71C55.55 25.84 59.28 26.38 59.69 26.42C61.34 26.44 61.1 24.95 61.01 24.8L61.79 24.09C61.88 24.11 61.98 24.11 62.09 24.11C63.41 24.11 64.47 23.05 64.47 21.73C64.47 20.42 63.41 19.36 62.09 19.36C60.77 19.36 59.72 20.42 59.72 21.73C59.72 22.79 60.41 23.68 61.36 24L60.8 24.52C60.54 24.24 60.17 24.11 60.11 24.09C60.06 24.09 56.72 23.53 56.72 23.53C56.63 23.5 56.54 23.46 56.57 23.33C56.59 23.2 56.98 19.51 56.98 19.51C57 19.29 57.34 19.32 57.32 19.53C57.32 19.53 56.98 22.9 56.93 23.2C57.08 23.23 57.82 23.35 58.55 23.48C58.75 23.05 59.03 22.66 59.39 22.34C59.35 22.17 59.33 21.97 59.33 21.78C59.33 20.37 60.39 19.23 61.75 19.06C61.68 17.18 60.26 15.88 58.29 15.73C56.33 15.58 54.81 16.83 54.49 18.54L53.89 24.28ZM63.28 23.25C62.8 23.57 62.18 23.48 61.9 23.07C61.6 22.64 61.75 22.04 62.22 21.71C62.7 21.39 63.32 21.48 63.6 21.89C63.91 22.32 63.75 22.92 63.28 23.25Z" fill="#FFFFFF" fill-opacity="1.000000" fill-rule="nonzero"/>
	</g>
</svg>
