<svg width="80.000000" height="40.000000" viewBox="0 0 80 40" fill="none" xmlns="http://www.w3.org/2000/svg" xmlns:xlink="http://www.w3.org/1999/xlink">
	<desc>
			Created with Pixso.
	</desc>
	<defs>
		<clipPath id="clip8_2449">
			<rect id="noun-dentist-7251177 1" rx="0.000000" width="23.000000" height="23.000000" transform="translate(48.500000 8.500000)" fill="white" fill-opacity="0"/>
		</clipPath>
	</defs>
	<circle id="Ellipse 1" cx="20.000000" cy="20.000000" r="20.000000" fill="#14A9BD" fill-opacity="0.200000"/>
	<circle id="Ellipse 1" cx="20.000000" cy="20.000000" r="19.500000" stroke="#FFFFFF" stroke-opacity="1.000000" stroke-width="1.000000"/>
	<circle id="Ellipse 2" cx="40.000000" cy="20.000000" r="20.000000" fill="#9FDBE3" fill-opacity="1.000000"/>
	<circle id="Ellipse 2" cx="40.000000" cy="20.000000" r="19.500000" stroke="#FFFFFF" stroke-opacity="1.000000" stroke-width="1.000000"/>
	<circle id="Ellipse 3" cx="60.000000" cy="20.000000" r="20.000000" fill="#5AC2D0" fill-opacity="1.000000"/>
	<circle id="Ellipse 3" cx="60.000000" cy="20.000000" r="19.500000" stroke="#FFFFFF" stroke-opacity="1.000000" stroke-width="1.000000"/>
	<rect id="noun-dentist-7251177 1" rx="0.000000" width="23.000000" height="23.000000" transform="translate(48.500000 8.500000)" fill="#FFFFFF" fill-opacity="0"/>
	<g clip-path="url(#clip8_2449)">
		<path id="Vector" d="M64.06 12.15C62.99 11.75 61.78 12.15 60.75 13.12C59.78 14.02 58.32 14.02 57.35 13.12C56.31 12.15 55.1 11.75 54.04 12.15C52.15 12.86 51.44 15.83 52.46 18.79C52.8 19.77 53.28 20.63 53.84 21.31C54.04 21.55 54.17 21.83 54.21 22.13L54.7 25.59C54.83 26.46 55.57 27.11 56.44 27.11C56.88 27.11 57.28 26.95 57.59 26.68C57.9 26.41 58.12 26.03 58.18 25.59L58.62 22.48C58.65 22.33 58.77 22.21 58.92 22.18L58.93 22.18C59.13 22.15 59.31 22.29 59.34 22.49L59.78 25.59C59.91 26.46 60.65 27.11 61.52 27.11C61.96 27.11 62.37 26.95 62.67 26.68C62.69 26.66 62.7 26.65 62.72 26.64C62.34 26.1 62.13 25.45 62.13 24.77L62.13 22.38L64.75 20.63C65.1 20.09 65.4 19.47 65.63 18.79C66.65 15.83 65.94 12.86 64.06 12.15L64.06 12.15ZM57.2 15.11C57.06 15.25 56.84 15.25 56.7 15.11L56.1 14.52C55.9 14.31 55.63 14.2 55.34 14.2C54.74 14.2 54.26 14.69 54.26 15.29L54.26 15.88C54.26 16.08 54.1 16.24 53.9 16.24C53.71 16.24 53.55 16.08 53.55 15.88L53.55 15.29C53.55 14.29 54.35 13.49 55.34 13.49C55.82 13.49 56.27 13.67 56.61 14.01L57.2 14.61C57.34 14.75 57.34 14.98 57.2 15.11L57.2 15.11Z" fill="#FFFFFF" fill-opacity="1.000000" fill-rule="nonzero"/>
		<path id="Vector" d="M65.33 20.89L62.66 22.67L62.66 24.77C62.66 25.68 63.11 26.52 63.87 27.02L65.33 28L66.79 27.02C67.54 26.52 68 25.68 68 24.77L68 22.67L65.33 20.89ZM66.85 23.78L65.43 25.55C65.37 25.63 65.27 25.68 65.17 25.69L65.15 25.69C65.06 25.69 64.97 25.65 64.9 25.58L64.01 24.69C63.87 24.55 63.87 24.33 64.01 24.19C64.15 24.05 64.37 24.05 64.51 24.19L65.12 24.8L66.3 23.33C66.42 23.18 66.64 23.15 66.8 23.28C66.95 23.4 66.97 23.62 66.85 23.78Z" fill="#FFFFFF" fill-opacity="1.000000" fill-rule="nonzero"/>
	</g>
</svg>
