<svg width="80.000000" height="40.000000" viewBox="0 0 80 40" fill="none" xmlns="http://www.w3.org/2000/svg" xmlns:xlink="http://www.w3.org/1999/xlink">
	<desc>
			Created with Pixso.
	</desc>
	<defs>
		<clipPath id="clip8_2460">
			<rect id="noun-consultation-7201947 1" rx="0.000000" width="23.000000" height="23.000000" transform="translate(48.500000 8.500000)" fill="white" fill-opacity="0"/>
		</clipPath>
	</defs>
	<circle id="Ellipse 1" cx="20.000000" cy="20.000000" r="20.000000" fill="#14A9BD" fill-opacity="0.200000"/>
	<circle id="Ellipse 1" cx="20.000000" cy="20.000000" r="19.500000" stroke="#FFFFFF" stroke-opacity="1.000000" stroke-width="1.000000"/>
	<circle id="Ellipse 2" cx="40.000000" cy="20.000000" r="20.000000" fill="#9FDBE3" fill-opacity="1.000000"/>
	<circle id="Ellipse 2" cx="40.000000" cy="20.000000" r="19.500000" stroke="#FFFFFF" stroke-opacity="1.000000" stroke-width="1.000000"/>
	<circle id="Ellipse 3" cx="60.000000" cy="20.000000" r="20.000000" fill="#5AC2D0" fill-opacity="1.000000"/>
	<circle id="Ellipse 3" cx="60.000000" cy="20.000000" r="19.500000" stroke="#FFFFFF" stroke-opacity="1.000000" stroke-width="1.000000"/>
	<rect id="noun-consultation-7201947 1" rx="0.000000" width="23.000000" height="23.000000" transform="translate(48.500000 8.500000)" fill="#FFFFFF" fill-opacity="0"/>
	<g clip-path="url(#clip8_2460)">
		<path id="Vector" d="M70 19.96C70 21.98 68.37 23.74 66.03 24.51C65.93 24.55 65.87 24.66 65.89 24.78L66.4 26.83L66.41 26.83C66.42 26.88 66.4 26.94 66.36 26.97C66.32 27 66.26 27 66.22 26.97L62.92 24.92C61.13 24.85 59.53 24.26 58.39 23.35C59.63 23.14 60.81 22.63 61.84 21.85C63.02 20.94 63.89 19.59 63.89 17.99C63.87 16.87 63.47 15.8 62.75 14.99C62.93 14.98 63.11 14.98 63.3 14.98C67 14.98 70 17.21 70 19.96ZM56.69 13C52.99 13 50 15.24 50 17.99C50 20.01 51.62 21.76 53.96 22.54C54.06 22.58 54.12 22.69 54.1 22.81L53.59 24.86L53.58 24.86C53.57 24.91 53.59 24.97 53.63 25C53.67 25.03 53.73 25.03 53.77 25L57.07 22.96C60.59 22.81 63.4 20.64 63.4 17.98C63.4 15.23 60.4 13 56.7 13L56.69 13ZM60.1 16.62C59.77 16.62 59.48 16.83 59.35 17.16C59.23 17.49 59.3 17.86 59.53 18.11C59.76 18.36 60.11 18.43 60.41 18.3C60.72 18.16 60.91 17.85 60.91 17.49C60.91 17.01 60.55 16.62 60.1 16.62ZM56.69 16.62C57.02 16.62 57.32 16.83 57.44 17.16C57.57 17.49 57.5 17.86 57.27 18.11C57.04 18.36 56.69 18.43 56.38 18.3C56.08 18.16 55.88 17.85 55.88 17.49C55.88 17.01 56.24 16.62 56.69 16.62ZM53.28 16.62C53.61 16.62 53.91 16.83 54.03 17.16C54.16 17.49 54.09 17.86 53.86 18.11C53.63 18.36 53.28 18.43 52.97 18.3C52.67 18.16 52.47 17.85 52.47 17.49C52.47 17.26 52.56 17.04 52.71 16.88C52.86 16.71 53.07 16.62 53.28 16.62Z" fill="#FFFFFF" fill-opacity="1.000000" fill-rule="evenodd"/>
	</g>
</svg>
