<svg width="88.000000" height="48.000000" viewBox="0 0 88 48" fill="none" xmlns="http://www.w3.org/2000/svg" xmlns:xlink="http://www.w3.org/1999/xlink">
	<desc>
			Created with Pixso.
	</desc>
	<defs>
		<clipPath id="clip156_7020">
			<rect id="wind-fill 1" rx="0.000000" width="31.000000" height="31.000000" transform="translate(48.500000 8.500000)" fill="white" fill-opacity="0"/>
		</clipPath>
	</defs>
	<circle id="Ellipse 1" cx="24.000000" cy="24.000000" r="24.000000" fill="#14A9BD" fill-opacity="0.200000"/>
	<circle id="Ellipse 1" cx="24.000000" cy="24.000000" r="23.500000" stroke="#FFFFFF" stroke-opacity="1.000000" stroke-width="1.000000"/>
	<circle id="Ellipse 2" cx="44.000000" cy="24.000000" r="24.000000" fill="#9FDBE3" fill-opacity="1.000000"/>
	<circle id="Ellipse 2" cx="44.000000" cy="24.000000" r="23.500000" stroke="#FFFFFF" stroke-opacity="1.000000" stroke-width="1.000000"/>
	<circle id="Ellipse 3" cx="64.000000" cy="24.000000" r="24.000000" fill="#5AC2D0" fill-opacity="1.000000"/>
	<circle id="Ellipse 3" cx="64.000000" cy="24.000000" r="23.500000" stroke="#FFFFFF" stroke-opacity="1.000000" stroke-width="1.000000"/>
	<rect id="wind-fill 1" rx="0.000000" width="31.000000" height="31.000000" transform="translate(48.500000 8.500000)" fill="#FFFFFF" fill-opacity="0"/>
	<g clip-path="url(#clip156_7020)">
		<path id="Vector" d="M63 21L51 21C50.86 21 50.72 20.97 50.6 20.91C50.47 20.86 50.36 20.78 50.26 20.68C50.17 20.58 50.1 20.46 50.05 20.33C50 20.2 49.99 20.07 50 19.93C50.02 19.67 50.14 19.43 50.33 19.26C50.52 19.09 50.77 18.99 51.03 19L62 19C62.13 19 62.27 18.97 62.39 18.91C62.52 18.86 62.63 18.78 62.73 18.68C62.82 18.58 62.89 18.46 62.94 18.33C62.99 18.2 63 18.07 63 17.93C62.97 17.67 62.85 17.43 62.66 17.26C62.47 17.09 62.22 16.99 61.96 17L59.53 17C59.46 17 59.39 16.98 59.32 16.95C59.26 16.92 59.2 16.88 59.15 16.82C59.1 16.77 59.07 16.71 59.05 16.64C59.03 16.57 59.02 16.49 59.03 16.42C59.14 15.66 59.47 14.95 59.97 14.37C60.47 13.79 61.13 13.37 61.86 13.16C62.6 12.94 63.38 12.94 64.12 13.16C64.85 13.37 65.51 13.8 66.01 14.37C66.51 14.95 66.84 15.67 66.95 16.42C67.06 17.18 66.95 17.96 66.63 18.65C66.31 19.35 65.8 19.94 65.16 20.36C64.51 20.77 63.76 20.99 63 21ZM77.99 20.71C77.91 19.72 77.48 18.8 76.77 18.12C76.06 17.43 75.13 17.03 74.14 17C73.15 16.96 72.19 17.29 71.43 17.92C70.67 18.56 70.18 19.45 70.04 20.42C70.03 20.49 70.03 20.57 70.05 20.64C70.07 20.71 70.11 20.77 70.16 20.82C70.2 20.88 70.26 20.92 70.33 20.95C70.39 20.98 70.46 21 70.54 21L72.97 21C73.23 20.99 73.47 21.09 73.66 21.26C73.86 21.43 73.98 21.67 74 21.93C74.01 22.07 73.99 22.2 73.94 22.33C73.9 22.46 73.82 22.58 73.73 22.68C73.64 22.78 73.52 22.86 73.4 22.91C73.27 22.97 73.14 23 73 23L52.03 23C51.77 22.99 51.52 23.09 51.33 23.26C51.14 23.43 51.02 23.67 51 23.93C50.99 24.07 51 24.2 51.05 24.33C51.1 24.46 51.17 24.58 51.26 24.68C51.36 24.78 51.47 24.86 51.6 24.91C51.72 24.97 51.86 25 52 25L74 25C74.54 25 75.09 24.88 75.59 24.66C76.1 24.44 76.55 24.12 76.92 23.72C77.3 23.32 77.58 22.84 77.77 22.33C77.95 21.81 78.02 21.26 77.99 20.71ZM67 27L53.03 27C52.77 26.99 52.52 27.09 52.33 27.26C52.14 27.43 52.02 27.67 52 27.93C51.99 28.07 52 28.2 52.05 28.33C52.1 28.46 52.17 28.58 52.26 28.68C52.36 28.78 52.47 28.86 52.6 28.91C52.72 28.97 52.86 29 53 29L65.96 29C66.22 28.99 66.47 29.09 66.66 29.26C66.85 29.43 66.97 29.67 66.99 29.93C67 30.07 66.98 30.2 66.94 30.33C66.89 30.46 66.82 30.58 66.72 30.68C66.63 30.78 66.52 30.86 66.39 30.91C66.27 30.97 66.13 31 65.99 31L63.53 31C63.46 30.99 63.39 31.01 63.32 31.04C63.26 31.07 63.2 31.11 63.15 31.17C63.1 31.22 63.07 31.28 63.05 31.35C63.03 31.42 63.02 31.5 63.03 31.57C63.14 32.33 63.47 33.04 63.97 33.62C64.47 34.2 65.13 34.62 65.86 34.83C66.6 35.05 67.38 35.05 68.12 34.83C68.85 34.62 69.51 34.19 70.01 33.62C70.51 33.04 70.84 32.32 70.95 31.57C71.06 30.81 70.95 30.03 70.63 29.34C70.31 28.64 69.8 28.05 69.16 27.63C68.51 27.22 67.76 27 67 27Z" fill="#FFFFFF" fill-opacity="1.000000" fill-rule="nonzero"/>
	</g>
</svg>
