<svg width="88.000000" height="48.000000" viewBox="0 0 88 48" fill="none" xmlns="http://www.w3.org/2000/svg" xmlns:xlink="http://www.w3.org/1999/xlink">
	<desc>
			Created with Pixso.
	</desc>
	<defs>
		<clipPath id="clip8_4088">
			<rect id="hand-soap-fill 1" rx="0.000000" width="31.000000" height="31.000000" transform="translate(48.500000 8.500000)" fill="white" fill-opacity="0"/>
		</clipPath>
	</defs>
	<circle id="Ellipse 1" cx="24.000000" cy="24.000000" r="24.000000" fill="#14A9BD" fill-opacity="0.200000"/>
	<circle id="Ellipse 1" cx="24.000000" cy="24.000000" r="23.500000" stroke="#FFFFFF" stroke-opacity="1.000000" stroke-width="1.000000"/>
	<circle id="Ellipse 2" cx="44.000000" cy="24.000000" r="24.000000" fill="#9FDBE3" fill-opacity="1.000000"/>
	<circle id="Ellipse 2" cx="44.000000" cy="24.000000" r="23.500000" stroke="#FFFFFF" stroke-opacity="1.000000" stroke-width="1.000000"/>
	<circle id="Ellipse 3" cx="64.000000" cy="24.000000" r="24.000000" fill="#5AC2D0" fill-opacity="1.000000"/>
	<circle id="Ellipse 3" cx="64.000000" cy="24.000000" r="23.500000" stroke="#FFFFFF" stroke-opacity="1.000000" stroke-width="1.000000"/>
	<rect id="hand-soap-fill 1" rx="0.000000" width="31.000000" height="31.000000" transform="translate(48.500000 8.500000)" fill="#FFFFFF" fill-opacity="0"/>
	<g clip-path="url(#clip8_4088)">
		<path id="Vector" d="M71 20.1L71 19C71 17.93 70.57 16.92 69.82 16.17C69.07 15.42 68.06 15 67 15L65 15L65 12L69 12C69.26 12 69.51 12.1 69.7 12.29C69.89 12.48 70 12.73 70 13C70 13.26 70.1 13.51 70.29 13.7C70.48 13.89 70.73 14 71 14C71.26 14 71.51 13.89 71.7 13.7C71.89 13.51 72 13.26 72 13C72 12.2 71.68 11.44 71.12 10.87C70.55 10.31 69.79 10 69 10L61 10C60.73 10 60.48 10.1 60.29 10.29C60.1 10.48 60 10.73 60 11C60 11.26 60.1 11.51 60.29 11.7C60.48 11.89 60.73 12 61 12L63 12L63 15L61 15C59.93 15 58.92 15.42 58.17 16.17C57.42 16.92 57 17.93 57 19L57 20.1C55.87 20.33 54.85 20.94 54.12 21.83C53.4 22.73 53 23.84 53 25L53 35C53 35.53 53.21 36.03 53.58 36.41C53.96 36.78 54.46 37 55 37L73 37C73.53 37 74.03 36.78 74.41 36.41C74.78 36.03 75 35.53 75 35L75 25C74.99 23.84 74.59 22.73 73.87 21.83C73.14 20.94 72.12 20.33 71 20.1ZM61 17L67 17C67.53 17 68.03 17.21 68.41 17.58C68.78 17.96 69 18.46 69 19L69 20L59 20L59 19C59 18.46 59.21 17.96 59.58 17.58C59.96 17.21 60.46 17 61 17Z" fill="#FFFFFF" fill-opacity="1.000000" fill-rule="nonzero"/>
	</g>
</svg>
