<svg width="88.000000" height="48.000000" viewBox="0 0 88 48" fill="none" xmlns="http://www.w3.org/2000/svg" xmlns:xlink="http://www.w3.org/1999/xlink">
	<desc>
			Created with Pixso.
	</desc>
	<defs>
		<clipPath id="clip8_4098">
			<rect id="noun-dentist-drill-2179934 1" rx="0.000000" width="31.000000" height="31.000000" transform="translate(48.500000 8.500000)" fill="white" fill-opacity="0"/>
		</clipPath>
	</defs>
	<circle id="Ellipse 1" cx="24.000000" cy="24.000000" r="24.000000" fill="#14A9BD" fill-opacity="0.200000"/>
	<circle id="Ellipse 1" cx="24.000000" cy="24.000000" r="23.500000" stroke="#FFFFFF" stroke-opacity="1.000000" stroke-width="1.000000"/>
	<circle id="Ellipse 2" cx="44.000000" cy="24.000000" r="24.000000" fill="#9FDBE3" fill-opacity="1.000000"/>
	<circle id="Ellipse 2" cx="44.000000" cy="24.000000" r="23.500000" stroke="#FFFFFF" stroke-opacity="1.000000" stroke-width="1.000000"/>
	<circle id="Ellipse 3" cx="64.000000" cy="24.000000" r="24.000000" fill="#5AC2D0" fill-opacity="1.000000"/>
	<circle id="Ellipse 3" cx="64.000000" cy="24.000000" r="23.500000" stroke="#FFFFFF" stroke-opacity="1.000000" stroke-width="1.000000"/>
	<rect id="noun-dentist-drill-2179934 1" rx="0.000000" width="31.000000" height="31.000000" transform="translate(48.500000 8.500000)" fill="#FFFFFF" fill-opacity="0"/>
	<g clip-path="url(#clip8_4098)">
		<path id="Vector" d="M77.22 15.25L73 14.55C72.92 14.53 72.84 14.61 72.84 14.71C72.89 14.94 72.92 15.2 72.92 15.43C72.92 15.68 72.89 15.91 72.84 16.14C72.82 16.22 72.89 16.3 73 16.3L77.22 15.6C77.35 15.55 77.35 15.27 77.22 15.25Z" fill="#FFFFFF" fill-opacity="1.000000" fill-rule="nonzero"/>
		<path id="Vector" d="M68.95 12L64.29 12C63.96 12 63.68 12.28 63.68 12.61L63.68 18.19C63.68 18.52 63.96 18.8 64.29 18.8L68.95 18.8C70.77 18.8 72.23 17.35 72.23 15.53L72.23 15.25C72.23 13.48 70.74 12 68.95 12Z" fill="#FFFFFF" fill-opacity="1.000000" fill-rule="nonzero"/>
		<path id="Vector" d="M68 26.64C67.82 26.64 67.39 26.59 67.39 26.18L66.85 20.06C66.8 19.91 66.67 19.8 66.49 19.8L65.5 19.8C65.32 19.8 65.19 19.93 65.16 20.08L64.5 26.18C64.5 26.48 64.16 26.64 64.01 26.64C63.83 26.64 63.68 26.77 63.68 26.95L63.68 33.65C63.68 34.83 64.73 35.8 66.01 35.8C67.29 35.8 68.34 34.83 68.34 33.65L68.34 26.95C68.34 26.77 68.18 26.64 68 26.64Z" fill="#FFFFFF" fill-opacity="1.000000" fill-rule="nonzero"/>
		<path id="Vector" d="M59.61 27.59C59.58 27.46 59.48 27.38 59.38 27.38L58.81 27.38C58.68 27.38 58.56 27.28 58.56 27.12L58.56 19.29C58.56 19.19 58.45 19.09 58.35 19.11C58.05 19.16 57.71 19.16 57.41 19.11C57.3 19.09 57.2 19.19 57.2 19.29L57.2 27.12C57.2 27.25 57.1 27.38 56.94 27.38L56.38 27.38C56.25 27.38 56.15 27.48 56.15 27.59L55.54 32.68C55.33 34.29 56.38 35.8 57.89 35.8C59.27 35.8 60.27 34.52 60.27 33.09C60.27 32.96 60.27 32.83 60.25 32.71L59.61 27.59Z" fill="#FFFFFF" fill-opacity="1.000000" fill-rule="nonzero"/>
		<path id="Vector" d="M59.99 12.79C58.63 11.61 56.58 11.76 55.43 13.15C54.28 14.5 54.43 16.55 55.79 17.73C57.15 18.88 59.2 18.73 60.37 17.37C61.52 15.99 61.35 13.94 59.99 12.79ZM60.04 16.24C59.99 16.35 59.83 16.32 59.83 16.22C59.71 15.37 59.2 14.45 58.33 13.74C58.02 13.48 57.71 13.27 57.38 13.1C57.3 13.04 57.3 12.92 57.4 12.89C58.09 12.71 58.86 12.89 59.45 13.38C60.32 14.12 60.53 15.3 60.04 16.24Z" fill="#FFFFFF" fill-opacity="1.000000" fill-rule="nonzero"/>
	</g>
</svg>
