<svg width="46.000000" height="46.000000" viewBox="0 0 46 46" fill="none" xmlns="http://www.w3.org/2000/svg" xmlns:xlink="http://www.w3.org/1999/xlink">
	<desc>
			Created with Pixso.
	</desc>
	<defs>
		<clipPath id="clip8_5239">
			<rect id="play-fill 1" rx="0.000000" width="15.000000" height="15.000000" transform="translate(15.500000 15.500000)" fill="white" fill-opacity="0"/>
		</clipPath>
		<clipPath id="clip8_5240">
			<rect id="Button" rx="22.000000" width="44.000000" height="44.000000" transform="translate(1.000000 1.000000)" fill="white" fill-opacity="0"/>
		</clipPath>
	</defs>
	<g clip-path="url(#clip8_5240)">
		<rect id="play-fill 1" rx="0.000000" width="15.000000" height="15.000000" transform="translate(15.500000 15.500000)" fill="#FFFFFF" fill-opacity="0"/>
		<g clip-path="url(#clip8_5239)">
			<path id="Vector" d="M30 23C30 23.16 29.95 23.33 29.87 23.48C29.79 23.63 29.67 23.75 29.52 23.84L20.52 29.35C20.36 29.44 20.19 29.49 20.01 29.5C19.83 29.5 19.66 29.45 19.5 29.37C19.35 29.28 19.22 29.16 19.13 29C19.04 28.85 19 28.68 19 28.5L19 17.49C19 17.31 19.04 17.14 19.13 16.99C19.22 16.83 19.35 16.71 19.5 16.62C19.66 16.54 19.83 16.49 20.01 16.5C20.19 16.5 20.36 16.55 20.52 16.64L29.52 22.15C29.67 22.24 29.79 22.36 29.87 22.51C29.95 22.66 30 22.83 30 23Z" fill="#14A9BD" fill-opacity="1.000000" fill-rule="nonzero"/>
		</g>
	</g>
	<rect id="Button" rx="22.000000" width="44.000000" height="44.000000" transform="translate(1.000000 1.000000)" stroke="#14A9BD" stroke-opacity="1.000000" stroke-width="2.000000"/>
</svg>
