<svg width="48.000000" height="48.000000" viewBox="0 0 48 48" fill="none" xmlns="http://www.w3.org/2000/svg" xmlns:xlink="http://www.w3.org/1999/xlink">
	<desc>
			Created with Pixso.
	</desc>
	<defs/>
	<path id="Vector" d="M15.36 0L32.63 0C41.12 0 48 6.87 48 15.35L48 32.64C48 41.12 41.12 48 32.63 48L15.36 48C6.87 48 0 41.12 0 32.64L0 15.35C0 6.87 6.87 0 15.36 0Z" fill="#FFFFFF" fill-opacity="1.000000" fill-rule="evenodd"/>
	<path id="Vector" d="M23.99 5.75C21.11 5.75 18.29 6.61 15.89 8.21C13.49 9.82 11.61 12.1 10.51 14.76C9.41 17.43 9.12 20.36 9.68 23.19C10.24 26.03 11.63 28.63 13.67 30.67C16.31 33.31 22.54 37.13 22.9 41.14C22.96 41.75 23.39 42.23 23.99 42.23C24.6 42.23 25.03 41.75 25.09 41.14C25.45 37.13 31.67 33.31 34.31 30.67C36.36 28.63 37.75 26.03 38.31 23.19C38.87 20.36 38.58 17.43 37.48 14.76C36.37 12.1 34.5 9.82 32.1 8.21C29.7 6.61 26.88 5.75 23.99 5.75Z" fill="#FF4433" fill-opacity="1.000000" fill-rule="nonzero"/>
	<path id="Vector" d="M24 25.45C25.35 25.45 26.65 24.92 27.61 23.96C28.56 23 29.1 21.7 29.1 20.35C29.1 18.99 28.56 17.69 27.61 16.74C26.65 15.78 25.35 15.24 24 15.24C22.64 15.24 21.34 15.78 20.38 16.74C19.43 17.69 18.89 18.99 18.89 20.35C18.89 21.7 19.43 23 20.38 23.96C21.34 24.92 22.64 25.45 24 25.45Z" fill="#FFFFFF" fill-opacity="1.000000" fill-rule="nonzero"/>
	<path id="Vector" d="M32.63 0.95L15.36 0.95C11.54 0.95 7.87 2.47 5.17 5.17C2.47 7.87 0.95 11.54 0.95 15.35L0.95 32.64C0.95 36.45 2.47 40.12 5.17 42.82C7.87 45.52 11.54 47.04 15.36 47.04L32.63 47.04C36.45 47.04 40.12 45.52 42.82 42.82C45.52 40.12 47.04 36.45 47.04 32.64L47.04 15.35C47.04 11.54 45.52 7.87 42.82 5.17C40.12 2.47 36.45 0.95 32.63 0.95ZM15.36 0C11.28 0 7.37 1.61 4.49 4.49C1.61 7.37 0 11.28 0 15.35L0 32.64C0 36.71 1.61 40.62 4.49 43.5C7.37 46.38 11.28 48 15.36 48L32.63 48C36.71 48 40.62 46.38 43.5 43.5C46.38 40.62 48 36.71 48 32.64L48 15.35C48 11.28 46.38 7.37 43.5 4.49C40.62 1.61 36.71 0 32.63 0L15.36 0Z" fill="#000000" fill-opacity="0.120000" fill-rule="evenodd"/>
</svg>
