<svg width="19.521240" height="19.521240" viewBox="0 0 19.5212 19.5212" fill="none" xmlns="http://www.w3.org/2000/svg" xmlns:xlink="http://www.w3.org/1999/xlink">
	<desc>
			Created with Pixso.
	</desc>
	<defs/>
	<path id="Vector" d="M19.3 18.24L14.6 13.54C15.96 11.91 16.64 9.81 16.5 7.69C16.35 5.57 15.39 3.59 13.82 2.16C12.26 0.72 10.19 -0.05 8.07 0C5.94 0.05 3.92 0.91 2.41 2.41C0.91 3.92 0.05 5.94 0 8.07C-0.05 10.19 0.72 12.26 2.16 13.82C3.59 15.39 5.57 16.35 7.69 16.5C9.81 16.64 11.91 15.96 13.54 14.6L18.24 19.3C18.3 19.37 18.39 19.42 18.48 19.46C18.57 19.5 18.67 19.52 18.77 19.52C18.86 19.52 18.96 19.5 19.05 19.46C19.14 19.42 19.23 19.37 19.3 19.3C19.37 19.23 19.42 19.14 19.46 19.05C19.5 18.96 19.52 18.86 19.52 18.77C19.52 18.67 19.5 18.57 19.46 18.48C19.42 18.39 19.37 18.3 19.3 18.24ZM1.52 8.27C1.52 6.93 1.91 5.63 2.65 4.52C3.39 3.41 4.45 2.54 5.68 2.03C6.92 1.52 8.27 1.38 9.58 1.65C10.89 1.91 12.09 2.55 13.04 3.49C13.98 4.44 14.63 5.64 14.89 6.95C15.15 8.26 15.01 9.62 14.5 10.85C13.99 12.08 13.13 13.14 12.02 13.88C10.91 14.62 9.6 15.02 8.27 15.02C6.48 15.01 4.76 14.3 3.5 13.04C2.23 11.77 1.52 10.06 1.52 8.27Z" fill="#323434" fill-opacity="1.000000" fill-rule="nonzero"/>
</svg>
