<svg width="532.000000" height="219.000000" viewBox="0 0 532 219" fill="none" xmlns="http://www.w3.org/2000/svg" xmlns:xlink="http://www.w3.org/1999/xlink">
	<desc>
			Created with Pixso.
	</desc>
	<defs>
		<clipPath id="clip151_6098">
			<rect id="Frame" rx="0.000000" width="531.000000" height="218.000000" transform="translate(0.500000 0.500000)" fill="white" fill-opacity="0"/>
		</clipPath>
	</defs>
	<rect id="Frame" rx="0.000000" width="531.000000" height="218.000000" transform="translate(0.500000 0.500000)" fill="#FFFFFF" fill-opacity="0"/>
	<g clip-path="url(#clip151_6098)">
		<path id="tooth-28" d="M512.76 90.25C525.43 93.45 524.1 144.43 519.67 141.15C519.67 141.15 512.58 134.06 506.1 130.33C504.42 129.36 508.77 113.22 496.35 99.83C494.67 98.06 508.5 89.19 512.76 90.25Z" fill="#9FDBE3" fill-opacity="1.000000" fill-rule="nonzero"/>
		<path id="tooth-27" d="M491.3 102.76C504.07 105.59 504.24 156.58 499.63 153.47C499.63 153.47 492.27 146.64 485.8 143.1C484.12 142.21 487.93 125.9 475.16 112.95C473.39 111.09 487.04 101.78 491.3 102.76Z" fill="#9FDBE3" fill-opacity="1.000000" fill-rule="nonzero"/>
		<path id="tooth-26" d="M465.41 111.89C471.97 111.98 484.82 128.2 482.08 157.02C481.46 163.94 479.33 176.53 471.61 171.65C471.61 171.65 466.2 158.44 455.21 153.03C452.37 151.61 449.36 148.95 448.74 145.85L446.88 124.48C443.95 114.73 458.58 111.89 465.41 111.89Z" fill="#9FDBE3" fill-opacity="1.000000" fill-rule="nonzero"/>
		<path id="tooth-25" d="M434.46 118.36C442.35 117.65 447.23 137.6 446.25 161.54C445.99 168.63 444.39 181.49 436.06 176.97C436.06 176.97 412.83 160.92 412.83 153.03L412.83 133.17C412.92 125.46 416.55 120.05 434.46 118.36Z" fill="#9FDBE3" fill-opacity="1.000000" fill-rule="nonzero"/>
		<path id="tooth-24" d="M395.54 200.2C400.86 199.58 408.13 183.53 409.1 166.33C409.28 163.94 409.46 130.86 409.46 130.86C408.84 123.5 403.78 122.88 399.88 123.59L373.37 128.56C367.16 129.71 364.59 132.37 364.77 139.73L364.86 164.02C364.86 167.92 366.1 171.74 368.32 175.02C375.76 186.01 388 201.62 395.54 200.2Z" fill="#9FDBE3" fill-opacity="1.000000" fill-rule="nonzero"/>
		<path id="tooth-23" d="M342.69 201.53C347.92 201.53 356.97 184.06 360.07 166.95C360.51 164.56 360.96 160.65 360.87 158.17L360.25 136C359.98 132.19 356.61 129.27 352.62 129.53L326.47 131.39C320.35 131.84 316.09 136.98 316.18 143.1L316.18 162.43C316.18 168.19 317.25 173.95 319.64 179.19C324.6 190.27 333.91 202.06 342.69 201.53Z" fill="#9FDBE3" fill-opacity="1.000000" fill-rule="nonzero"/>
		<path id="tooth-22" d="M290.56 196.56C302.88 196.56 312.9 170.58 312.9 158.44L312.9 142.92C312.9 136.89 307.93 132.02 301.73 132.02L279.38 132.02C273.18 132.02 268.21 136.89 268.21 142.92L268.21 157.91C268.21 169.96 278.23 196.56 290.56 196.56Z" fill="#9FDBE3" fill-opacity="1.000000" fill-rule="nonzero"/>
		<path id="tooth-21" d="M241.43 196.56C229.11 196.56 219.09 170.58 219.09 158.44L219.09 142.92C219.09 136.89 224.06 132.02 230.26 132.02L252.61 132.02C258.81 132.02 263.78 136.89 263.78 142.92L263.78 157.91C263.78 169.96 253.76 196.56 241.43 196.56Z" fill="#9FDBE3" fill-opacity="1.000000" fill-rule="nonzero"/>
		<path id="tooth-20" d="M189.3 201.53C184.07 201.53 175.02 184.06 171.92 166.95C171.48 164.56 171.03 160.65 171.12 158.17L171.74 136C172.01 132.19 175.38 129.27 179.37 129.53L205.52 131.39C211.64 131.84 215.9 136.98 215.81 143.1L215.81 162.43C215.81 168.19 214.75 173.95 212.35 179.19C207.39 190.27 198.08 202.06 189.3 201.53Z" fill="#9FDBE3" fill-opacity="1.000000" fill-rule="nonzero"/>
		<path id="tooth-19" d="M136.45 200.2C131.13 199.58 123.86 183.53 122.89 166.33C122.71 163.94 122.53 130.86 122.53 130.86C123.15 123.5 128.21 122.88 132.11 123.59L158.62 128.56C164.83 129.71 167.4 132.37 167.22 139.73L167.13 164.02C167.13 167.92 165.89 171.74 163.67 175.02C156.23 186.01 143.99 201.62 136.45 200.2Z" fill="#9FDBE3" fill-opacity="1.000000" fill-rule="nonzero"/>
		<path id="tooth-18" d="M97.53 118.36C89.64 117.65 84.76 137.6 85.74 161.54C86 168.63 87.6 181.49 95.93 176.97C95.93 176.97 119.16 160.92 119.16 153.03L119.16 133.17C119.16 125.46 115.44 120.05 97.53 118.36Z" fill="#9FDBE3" fill-opacity="1.000000" fill-rule="nonzero"/>
		<path id="tooth-17" d="M66.58 111.89C60.02 111.98 47.17 128.2 49.91 157.02C50.53 163.94 52.66 176.53 60.38 171.65C60.38 171.65 65.79 158.44 76.78 153.03C79.62 151.61 82.63 148.95 83.25 145.85L85.11 124.48C88.04 114.73 73.5 111.89 66.58 111.89Z" fill="#9FDBE3" fill-opacity="1.000000" fill-rule="nonzero"/>
		<path id="tooth-16" d="M40.69 102.76C27.92 105.59 27.75 156.58 32.36 153.47C32.36 153.47 39.72 146.64 46.19 143.1C47.88 142.21 44.06 125.9 56.83 112.95C58.6 111.09 45.04 101.78 40.69 102.76Z" fill="#9FDBE3" fill-opacity="1.000000" fill-rule="nonzero"/>
		<path id="tooth-15" d="M19.24 90.25C6.56 93.45 7.89 144.43 12.32 141.15C12.32 141.15 19.41 134.06 25.89 130.33C27.57 129.36 23.23 113.22 35.64 99.83C37.32 98.06 23.49 89.19 19.24 90.25Z" fill="#9FDBE3" fill-opacity="1.000000" fill-rule="nonzero"/>
		<path id="tooth-14" d="M518.78 37.41C521.98 36.79 527.3 28.19 527.83 20.65C527.83 20.65 528.98 13.65 528.98 7.62C528.98 -5.15 512.84 5.67 512.67 12.85C512.58 17.55 511.87 30.94 511.87 30.94C511.16 37.32 516.39 37.85 518.78 37.41Z" fill="#9FDBE3" fill-opacity="1.000000" fill-rule="nonzero"/>
		<path id="tooth-13" d="M496 50.62C499.99 49.91 506.46 39.36 507.08 30.14C507.08 30.14 508.41 21.54 508.41 14.27C508.41 -1.34 488.55 11.88 488.28 20.65C488.11 26.42 487.31 42.82 487.31 42.82C486.6 50.53 493.07 51.15 496 50.62Z" fill="#9FDBE3" fill-opacity="1.000000" fill-rule="nonzero"/>
		<path id="tooth-12" d="M468.07 63.83C473.03 62.95 481.19 50.53 481.99 39.63C481.99 39.63 483.67 29.52 483.67 20.83C483.67 2.39 458.85 17.99 458.49 28.46C458.31 35.28 457.25 54.61 457.25 54.61C456.36 63.66 464.43 64.54 468.07 63.83Z" fill="#9FDBE3" fill-opacity="1.000000" fill-rule="nonzero"/>
		<path id="tooth-11" d="M434.73 78.37C440.31 77.31 449.54 62.77 450.33 49.91C450.33 49.91 452.28 37.94 452.28 27.84C452.28 6.11 424.35 24.47 424 36.79C423.73 44.86 422.58 67.56 422.58 67.56C421.52 78.2 430.65 79.17 434.73 78.37Z" fill="#9FDBE3" fill-opacity="1.000000" fill-rule="nonzero"/>
		<path id="tooth-10" d="M403.16 88.39C411.23 88.39 416.91 73.32 416.91 63.66C416.91 63.66 418.41 32.27 417.26 21.54C415.75 8.24 388.53 25.44 385.78 45.66C384.63 54.52 385.52 70.57 385.52 70.57C386.58 86.35 396.6 88.39 403.16 88.39Z" fill="#9FDBE3" fill-opacity="1.000000" fill-rule="nonzero"/>
		<path id="tooth-9" d="M346.06 89.72L359.8 89.72C370.8 89.72 379.75 80.77 379.75 69.77C379.75 24.91 368.41 17.55 359.89 17.73C349.87 17.91 333.56 27.92 331.87 50.8C331.17 61.08 331.43 68.27 331.43 75.09C331.43 83.16 337.99 89.72 346.06 89.72Z" fill="#9FDBE3" fill-opacity="1.000000" fill-rule="nonzero"/>
		<path id="tooth-8" d="M296.41 16.13C315.65 16.13 324.51 49.74 326.11 77.4C326.11 87.42 318.04 95.57 308.02 95.57L284.88 95.57C274.95 95.57 268.57 89.19 268.57 79.17C268.57 63.74 268.57 18.88 296.41 16.13Z" fill="#9FDBE3" fill-opacity="1.000000" fill-rule="nonzero"/>
		<path id="tooth-7" d="M235.58 16.13C216.34 16.13 207.48 49.74 205.88 77.4C205.88 87.42 213.95 95.57 223.97 95.57L247.11 95.57C257.04 95.57 263.42 89.19 263.42 79.17C263.42 63.74 263.42 18.88 235.58 16.13Z" fill="#9FDBE3" fill-opacity="1.000000" fill-rule="nonzero"/>
		<path id="tooth-7" d="M207.88 77.45Q207.89 80.81 209.08 83.67Q210.26 86.49 212.59 88.83Q214.95 91.21 217.81 92.4Q220.64 93.57 223.97 93.57L247.11 93.57Q252.51 93.57 256.06 91.01Q256.86 90.43 257.57 89.72Q258.24 89.05 258.79 88.3Q261.42 84.7 261.42 79.17Q261.42 28.91 242.19 19.95Q239.09 18.5 235.49 18.13Q233.99 18.14 232.55 18.46Q222.69 20.61 215.97 37.14Q209.26 53.64 207.88 77.45ZM235.58 16.13C216.34 16.13 207.48 49.74 205.88 77.4C205.88 87.42 213.95 95.57 223.97 95.57L247.11 95.57C257.04 95.57 263.42 89.19 263.42 79.17C263.42 63.74 263.42 18.88 235.58 16.13Z" fill="#14A9BD" fill-opacity="1.000000" fill-rule="evenodd"/>
		<path id="tooth-6" d="M185.75 89.72L172.01 89.72C161.01 89.72 152.06 80.77 152.06 69.77C152.06 24.91 163.41 17.55 171.92 17.73C181.94 17.91 198.25 27.92 199.94 50.8C200.65 61.08 200.38 68.27 200.38 75.09C200.38 83.16 193.82 89.72 185.75 89.72Z" fill="#9FDBE3" fill-opacity="1.000000" fill-rule="nonzero"/>
		<path id="tooth-5" d="M128.65 88.39C120.58 88.39 114.91 73.32 114.91 63.66C114.91 63.66 113.4 32.27 114.55 21.54C116.06 8.24 143.28 25.44 146.03 45.66C147.18 54.52 146.3 70.57 146.3 70.57C145.23 86.35 135.21 88.39 128.65 88.39Z" fill="#9FDBE3" fill-opacity="1.000000" fill-rule="nonzero"/>
		<path id="tooth-4" d="M97.08 78.37C91.5 77.31 82.28 62.77 81.48 49.91C81.48 49.91 79.53 37.94 79.53 27.84C79.53 6.11 107.46 24.47 107.81 36.79C108.08 44.86 109.23 67.56 109.23 67.56C110.3 78.2 101.16 79.17 97.08 78.37Z" fill="#9FDBE3" fill-opacity="1.000000" fill-rule="nonzero"/>
		<path id="tooth-3" d="M63.75 63.83C58.78 62.95 50.62 50.53 49.83 39.63C49.83 39.63 48.14 29.52 48.14 20.83C48.14 2.39 72.97 17.99 73.32 28.46C73.5 35.28 74.56 54.61 74.56 54.61C75.45 63.66 67.38 64.54 63.75 63.83Z" fill="#9FDBE3" fill-opacity="1.000000" fill-rule="nonzero"/>
		<path id="tooth-2" d="M35.82 50.62C31.83 49.91 25.35 39.36 24.73 30.14C24.73 30.14 23.4 21.54 23.4 14.27C23.4 -1.34 43.26 11.88 43.53 20.65C43.71 26.42 44.51 42.82 44.51 42.82C45.22 50.53 38.65 51.15 35.82 50.62Z" fill="#9FDBE3" fill-opacity="1.000000" fill-rule="nonzero"/>
		<path id="tooth-1" d="M13.03 37.41C9.84 36.79 4.52 28.19 3.98 20.65C3.98 20.65 2.83 13.65 2.83 7.62C2.83 -5.15 18.97 5.67 19.15 12.85C19.24 17.55 19.95 30.94 19.95 30.94C20.65 37.32 15.42 37.85 13.03 37.41Z" fill="#9FDBE3" fill-opacity="1.000000" fill-rule="nonzero"/>
	</g>
</svg>
