<svg width="32.000000" height="32.000000" viewBox="0 0 32 32" fill="none" xmlns="http://www.w3.org/2000/svg" xmlns:xlink="http://www.w3.org/1999/xlink">
	<desc>
			Created with Pixso.
	</desc>
	<defs>
		<clipPath id="clip107_43415">
			<rect id="Icon/VK" rx="0.000000" width="31.000000" height="31.000000" transform="translate(0.500000 0.500000)" fill="white" fill-opacity="0"/>
		</clipPath>
	</defs>
	<rect id="Icon/VK" rx="0.000000" width="31.000000" height="31.000000" transform="translate(0.500000 0.500000)" fill="#FFFFFF" fill-opacity="0"/>
	<g clip-path="url(#clip107_43415)">
		<path id="Ellipse 1" d="M32 16C32 24.83 24.83 32 16 32C7.16 32 0 24.83 0 16C0 7.16 7.16 0 16 0C24.83 0 32 7.16 32 16Z" fill="#FFFFFF" fill-opacity="0.100000" fill-rule="nonzero"/>
		<path id="Vector" d="M16.71 22.66C11.24 22.66 8.12 18.66 8 12L10.73 12C10.82 16.89 12.84 18.96 14.44 19.38L14.44 12L17.02 12L17.02 16.21C18.6 16.03 20.26 14.11 20.82 12L23.4 12C22.97 14.6 21.17 16.52 19.89 17.31C21.17 17.95 23.22 19.63 24 22.66L21.16 22.66C20.55 20.63 19.03 19.06 17.02 18.85L17.02 22.66L16.71 22.66Z" fill="#FFFFFF" fill-opacity="1.000000" fill-rule="nonzero"/>
	</g>
</svg>
