<svg width="32.000000" height="32.000000" viewBox="0 0 32 32" fill="none" xmlns="http://www.w3.org/2000/svg" xmlns:xlink="http://www.w3.org/1999/xlink">
	<desc>
			Created with Pixso.
	</desc>
	<defs/>
	<path id="bg" d="M0 16C0 24.83 7.16 32 16 32C24.83 32 32 24.83 32 16C32 7.16 24.83 0 16 0C7.16 0 0 7.16 0 16Z" fill="#FFFFFF" fill-opacity="0.100000" fill-rule="evenodd"/>
	<path id="youtube" d="M23.6 12.1C23.39 11.4 22.89 10.9 22.2 10.7C21 10.4 15.89 10.4 15.89 10.4C15.89 10.4 10.89 10.4 9.6 10.7C8.89 10.9 8.39 11.4 8.19 12.1C8 13.4 8 16 8 16C8 16 8 18.6 8.3 19.9C8.5 20.6 9 21.1 9.69 21.3C10.89 21.6 16 21.6 16 21.6C16 21.6 21 21.6 22.3 21.3C23 21.1 23.5 20.6 23.7 19.9C24 18.6 24 16 24 16C24 16 24 13.4 23.6 12.1ZM14.39 18.4L14.39 13.6L18.6 16L14.39 18.4Z" fill="#FFFFFF" fill-opacity="1.000000" fill-rule="nonzero"/>
</svg>
